<svg width="100%" height="100%" viewBox="0 0 24 24" fill="none" xmlns="http://www.w3.org/2000/svg">
<g clip-path="url(#clip0_76_113)">
<path fill-rule="evenodd" clip-rule="evenodd" d="M3.51472 20.4853C1.26428 18.2348 0 15.1826 0 12C0 8.8174 1.26428 5.76516 3.51472 3.51472C5.76516 1.26428 8.8174 0 12 0C15.1826 0 18.2348 1.26428 20.4853 3.51472C22.7357 5.76516 24 8.8174 24 12C24 15.1826 22.7357 18.2348 20.4853 20.4853C18.2348 22.7357 15.1826 24 12 24C8.8174 24 5.76516 22.7357 3.51472 20.4853ZM12.0002 7.04033C9.32023 7.04033 7.44024 8.19034 7.44024 8.19034C8.47025 7.27034 10.2702 6.74033 10.2702 6.74033L10.1002 6.57034C8.41025 6.60034 6.88025 7.77033 6.88025 7.77033C5.16024 11.3603 5.27023 14.4603 5.27023 14.4603C6.67025 16.2703 8.75023 16.1403 8.75023 16.1403L9.46025 15.2403C8.21023 14.9703 7.42025 13.8603 7.42025 13.8603C7.42025 13.8603 9.30024 15.1403 12.0002 15.1403C14.7002 15.1403 16.5802 13.8603 16.5802 13.8603C16.5802 13.8603 15.7902 14.9703 14.5402 15.2403L15.2502 16.1403C15.2502 16.1403 17.3302 16.2703 18.7302 14.4603C18.7302 14.4603 18.8402 11.3603 17.1202 7.77033C17.1202 7.77033 15.5902 6.60034 13.9002 6.57034L13.7302 6.74033C13.7302 6.74033 15.5302 7.27034 16.5602 8.19034C16.5602 8.19034 14.6802 7.04033 12.0002 7.04033ZM9.93024 10.8303C10.5802 10.8303 11.1102 11.4003 11.1002 12.1003C11.1002 12.7903 10.5802 13.3703 9.93024 13.3703C9.29023 13.3703 8.77025 12.7903 8.77025 12.1003C8.77025 11.4003 9.28025 10.8303 9.93024 10.8303ZM14.1002 10.8303C14.7502 10.8303 15.2702 11.4003 15.2702 12.1003C15.2702 12.7903 14.7502 13.3703 14.1002 13.3703C13.4602 13.3703 12.9402 12.7903 12.9402 12.1003C12.9402 11.4003 13.4502 10.8303 14.1002 10.8303Z" fill="currentColor"/>
</g>
<defs>
<clipPath id="clip0_76_113">
<rect width="100%" height="100%" fill="currentColor"/>
</clipPath>
</defs>
</svg>
