<svg width="100%" height="100%" viewBox="0 0 24 24" fill="none" xmlns="http://www.w3.org/2000/svg">
<g clip-path="url(#clip0_200_2063)">
<path fill-rule="evenodd" clip-rule="evenodd" d="M0.375 12C0.375 5.57812 5.57812 0.375 12 0.375C18.4219 0.375 23.625 5.57812 23.625 12C23.625 18.4219 18.4219 23.625 12 23.625C5.57812 23.625 0.375 18.4219 0.375 12ZM19.334 6.90627L18.2165 7.9988C18.1217 8.07299 18.0725 8.19727 18.0926 8.31784V16.3495C18.0725 16.47 18.1217 16.5943 18.2165 16.6685L19.3085 17.761V18.0003H13.8178V17.761L14.9499 16.6426C15.0592 16.5294 15.0592 16.4942 15.0592 16.3235V9.83328L11.9129 17.9799H11.4882L7.82956 9.83328V15.2941C7.79674 15.5241 7.87331 15.7541 8.0319 15.9191L9.50117 17.7369V17.9762H5.33398V17.7406L6.80508 15.9173C6.96185 15.7522 7.03294 15.5203 6.99284 15.2922V8.98003C7.00924 8.80567 6.94362 8.63131 6.81602 8.5126L5.51081 6.90627V6.66699H9.56862L12.7059 13.6859L15.4639 6.66699H19.334V6.90627Z" fill="currentColor"/>
</g>
<defs>
<clipPath id="clip0_200_2063">
<rect width="100%" height="100%" fill="currentColor"/>
</clipPath>
</defs>
</svg>
