<svg width="100%" height="100%" viewBox="0 0 56 56" fill="none" xmlns="http://www.w3.org/2000/svg">
  <g>
    <circle cx="28" cy="28" r="28" fill="currentColor"/>
    <g>
      <path d="M20.1533 37.9828C25.7604 37.9828 30.3062 33.3976 30.3062 27.7416C30.3062 22.0855 25.7608 17.5 20.1533 17.5C14.5457 17.5 10 22.0865 10 27.7416C10 33.3966 14.5461 37.9828 20.1533 37.9828Z" fill="#0F0F0F"/>
      <path d="M41.4442 27.7416C41.4442 33.0655 39.1713 37.3832 36.3676 37.3832C33.5638 37.3832 31.291 33.0655 31.291 27.7416C31.291 22.4176 33.5635 18.0999 36.3672 18.0999C39.171 18.0999 41.4442 22.4162 41.4442 27.7416Z" fill="#0F0F0F"/>
      <path d="M46 27.7416C46 32.5105 45.2007 36.3789 44.2145 36.3789C43.2283 36.3789 42.4294 32.5116 42.4294 27.7416C42.4294 22.9716 43.2286 19.1042 44.2145 19.1042C45.2004 19.1042 46 22.9712 46 27.7416Z" fill="#0F0F0F"/>
    </g>
  </g>
</svg>
