<?xml version="1.0" encoding="UTF-8"?>
<svg width="32px" height="32px" viewBox="0 0 32 32" version="1.1" xmlns="http://www.w3.org/2000/svg" xmlns:xlink="http://www.w3.org/1999/xlink">
    <title>谷歌</title>
    <g id="页面-1" stroke="none" stroke-width="1" fill="none" fill-rule="evenodd">
        <g id="首页" transform="translate(-1308, -1130)" fill-rule="nonzero">
            <g id="编组-5" transform="translate(900, 1102)">
                <g id="谷歌" transform="translate(408, 28)">
                    <path d="M0.00670137944,16.0200273 C0.0107102649,24.8470598 7.17299109,32 16.0052684,32 C24.8402177,31.99733 31.9998265,24.8403848 31.9971552,16.0133523 C31.9971552,7.18631974 24.8362097,0.0307095435 16.0012604,0.0307095435 C11.7581909,0.0310634321 7.68910584,1.71597415 4.6894291,4.7146681 C1.68975235,7.71336205 0.0052847099,11.780119 0.00670137944,16.0200273 L0.00670137944,16.0200273 Z" id="路径" fill="#FFFFFF"></path>
                    <path d="M8.07478918,13.9547794 L3.49632687,6.03554809 C6.76889488,1.92086716 11.857573,-0.321973141 17.1050631,0.0374830803 C22.3525533,0.396939302 27.0873375,3.31269267 29.7673752,7.83513066 L16.7186909,7.83513066 C12.7350671,7.51620811 9.09458101,10.0935739 8.07478918,13.9547794 Z" id="路径" fill="#DD4E41"></path>
                    <path d="M21.7260083,10.1526939 L30.9123248,10.1526939 C31.6404432,12.0096816 32.0091785,13.9894894 31.9998265,15.9853172 C32.0051705,24.7469347 24.9470974,31.8785148 16.178948,31.9706299 L22.7333501,20.6471439 C25.0080479,17.3736529 24.5844716,12.9373161 21.7313522,10.1526939 L21.7260083,10.1526939 L21.7260083,10.1526939 Z" id="路径" fill="#FFCD41"></path>
                    <path d="M10.1936807,16.0200273 C10.1595684,13.9251252 11.2576398,11.9743586 13.0669471,10.9155577 C14.8762544,9.85675685 17.1161028,9.85418334 18.927842,10.9088238 C20.7395812,11.9634642 21.8421391,13.9117023 21.8128481,16.0066773 C21.7684987,19.1786614 19.1845008,21.7278415 16.0098441,21.731493 C12.8351875,21.7351366 10.2453298,19.1919012 10.1936807,16.0200273 Z" id="路径" fill="#4C8BF5"></path>
                    <path d="M18.2056557,23.9072185 L13.6271934,31.8571548 C5.80092307,30.6706752 0.0127102123,23.9539786 0,16.0440573 C-0.00459593525,13.2962549 0.709236558,10.5949161 2.0708179,8.20759619 L8.59582808,19.4750122 C9.95006916,22.3408657 12.8309879,24.174889 16.0025964,24.1902389 C16.7460518,24.1815445 17.4859147,24.085658 18.2069917,23.9045485 L18.2069917,23.9072185 L18.2056557,23.9072185 Z" id="路径" fill="#1DA362"></path>
                </g>
            </g>
        </g>
    </g>
</svg>