<svg width="174" height="38" viewBox="0 0 174 38" fill="none" xmlns="http://www.w3.org/2000/svg">
<g clip-path="url(#clip0_120_1922)">
<path d="M41.1625 26.9443V10.4771H41.5624L48.4787 21.4866H48.4081L55.3008 10.4771H55.7008V26.9443H55.1832V14.1704C55.1832 13.6215 55.1911 13.0726 55.2067 12.5237C55.2224 11.9591 55.2381 11.4024 55.2538 10.8534L55.6302 10.9711L48.6198 22.1453H48.267L41.3742 11.1357L41.6095 10.8534C41.6408 11.371 41.6565 11.9042 41.6565 12.4531C41.6722 12.9864 41.68 13.5431 41.68 14.1234V26.9443H41.1625ZM65.2251 27.1796C64.0803 27.1796 63.053 26.913 62.1434 26.3797C61.2495 25.8308 60.5437 25.0859 60.0262 24.1449C59.5086 23.1882 59.2499 22.0982 59.2499 20.875C59.2499 19.636 59.5165 18.5382 60.0497 17.5815C60.5829 16.6092 61.2887 15.8485 62.1669 15.2996C63.0609 14.7507 64.0489 14.4763 65.131 14.4763C65.7897 14.4763 66.417 14.5782 67.013 14.7821C67.609 14.986 68.1422 15.2761 68.6127 15.6525C69.0832 16.0289 69.4753 16.4758 69.7889 16.9934C70.1183 17.5109 70.3378 18.0834 70.4476 18.7107L70.3065 18.6401L70.3535 14.5939H70.824V26.9443H70.3065V22.8981L70.5182 22.8275C70.377 23.4548 70.1418 24.0351 69.8124 24.5683C69.4988 25.1016 69.1067 25.5642 68.6362 25.9563C68.1657 26.3484 67.6403 26.6542 67.0601 26.8738C66.4955 27.0776 65.8838 27.1796 65.2251 27.1796ZM65.2251 26.662C66.1818 26.662 67.0444 26.419 67.8128 25.9328C68.597 25.4309 69.2086 24.7409 69.6478 23.8626C70.1026 22.9843 70.33 21.9728 70.33 20.8279C70.33 19.6987 70.1026 18.695 69.6478 17.8168C69.2086 16.9385 68.597 16.2484 67.8128 15.7466C67.0444 15.2447 66.1661 14.9938 65.1781 14.9938C64.1273 14.9938 63.1942 15.2447 62.3786 15.7466C61.5631 16.2484 60.928 16.9463 60.4731 17.8403C60.0183 18.7185 59.7909 19.7301 59.7909 20.875C59.7909 21.9885 60.0183 22.9843 60.4731 23.8626C60.928 24.7252 61.5631 25.4074 62.3786 25.9092C63.1942 26.4111 64.143 26.662 65.2251 26.662ZM74.1072 26.9443V14.5939H74.5777L74.6012 17.5815L74.46 17.6286C74.5698 17.111 74.7894 16.617 75.1187 16.1465C75.4638 15.6603 75.9186 15.2604 76.4832 14.9467C77.0634 14.6331 77.7457 14.4763 78.5298 14.4763C78.7964 14.4763 79.0395 14.4919 79.2591 14.5233C79.4943 14.5547 79.706 14.6017 79.8942 14.6644L79.7296 15.2055C79.4786 15.1271 79.2355 15.0722 79.0003 15.0408C78.7807 15.0095 78.5847 14.9938 78.4122 14.9938C77.7849 14.9938 77.2281 15.1193 76.7419 15.3702C76.2714 15.6211 75.8794 15.9505 75.5657 16.3582C75.252 16.766 75.0168 17.2051 74.86 17.6756C74.7031 18.1304 74.6247 18.5695 74.6247 18.993V26.9443H74.1072ZM81.742 22.7334V21.9806L89.1994 14.5939H89.9521L81.742 22.7334ZM81.4127 26.9443V9.53607H81.9302V26.9443H81.4127ZM90.0227 26.9443L84.071 20.0987L84.4709 19.7223L90.752 26.9443H90.0227ZM97.4124 27.1796C96.2205 27.1796 95.1697 26.9051 94.2601 26.3562C93.3505 25.8073 92.6369 25.0467 92.1194 24.0743C91.6175 23.102 91.3666 21.9963 91.3666 20.7573C91.3666 19.832 91.5077 18.9851 91.79 18.2167C92.0723 17.4482 92.4644 16.7895 92.9662 16.2406C93.4838 15.676 94.0954 15.2447 94.8012 14.9467C95.5069 14.6331 96.2832 14.4763 97.1301 14.4763C97.9143 14.4763 98.6357 14.6096 99.2944 14.8762C99.9531 15.1271 100.518 15.5035 100.988 16.0054C101.474 16.4915 101.843 17.0796 102.094 17.7697C102.345 18.4598 102.455 19.2361 102.423 20.0987L102.4 20.7103H91.6489V20.1928H102.141L101.859 20.5927L101.906 20.0046C101.906 19.0008 101.694 18.1226 101.27 17.3698C100.847 16.617 100.275 16.0367 99.5532 15.629C98.8474 15.2055 98.0633 14.9938 97.2007 14.9938C96.1342 14.9938 95.2011 15.2447 94.4013 15.7466C93.6171 16.2328 93.0055 16.915 92.5663 17.7932C92.1272 18.6558 91.8998 19.6438 91.8841 20.7573C91.8998 21.9022 92.1429 22.9216 92.6134 23.8156C93.0839 24.7095 93.7269 25.4074 94.5424 25.9092C95.3736 26.4111 96.3303 26.662 97.4124 26.662C98.2279 26.662 98.9807 26.513 99.6708 26.2151C100.361 25.9171 100.98 25.5093 101.529 24.9918L101.812 25.4152C101.419 25.7759 100.996 26.0896 100.541 26.3562C100.102 26.6071 99.6159 26.8032 99.0827 26.9443C98.5651 27.1012 98.0084 27.1796 97.4124 27.1796ZM104.891 26.9443V14.5939H105.362L105.385 17.5815L105.244 17.6286C105.354 17.111 105.574 16.617 105.903 16.1465C106.248 15.6603 106.703 15.2604 107.267 14.9467C107.848 14.6331 108.53 14.4763 109.314 14.4763C109.581 14.4763 109.824 14.4919 110.043 14.5233C110.279 14.5547 110.49 14.6017 110.679 14.6644L110.514 15.2055C110.263 15.1271 110.02 15.0722 109.785 15.0408C109.565 15.0095 109.369 14.9938 109.196 14.9938C108.569 14.9938 108.012 15.1193 107.526 15.3702C107.056 15.6211 106.664 15.9505 106.35 16.3582C106.036 16.766 105.801 17.2051 105.644 17.6756C105.487 18.1304 105.409 18.5695 105.409 18.993V26.9443H104.891Z" fill="white"/>
<path d="M113.171 26.9443V10.4771H119.617C120.793 10.4771 121.852 10.6731 122.793 11.0652C123.749 11.4572 124.565 12.0218 125.239 12.7589C125.913 13.4961 126.431 14.3665 126.792 15.3702C127.152 16.3739 127.333 17.4874 127.333 18.7107C127.333 19.934 127.152 21.0553 126.792 22.0747C126.431 23.0784 125.913 23.9489 125.239 24.686C124.58 25.4074 123.773 25.9641 122.816 26.3562C121.859 26.7483 120.793 26.9443 119.617 26.9443H113.171ZM115.712 24.7565L115.641 24.4978H119.499C120.33 24.4978 121.067 24.3645 121.71 24.0978C122.369 23.8312 122.918 23.4548 123.357 22.9687C123.812 22.4668 124.157 21.8552 124.392 21.1337C124.627 20.4123 124.745 19.6046 124.745 18.7107C124.745 17.8168 124.627 17.0169 124.392 16.3112C124.157 15.5898 123.812 14.9781 123.357 14.4763C122.902 13.9744 122.353 13.5902 121.71 13.3235C121.067 13.0569 120.33 12.9236 119.499 12.9236H115.57L115.712 12.7119V24.7565ZM128.592 26.9443L134.967 10.4771H137.555L143.883 26.9443H141.177L137.414 17.0169C137.366 16.9071 137.272 16.6405 137.131 16.2171C137.006 15.7936 136.857 15.3231 136.684 14.8056C136.512 14.2881 136.355 13.8176 136.214 13.3941C136.073 12.955 135.978 12.6727 135.931 12.5472L136.473 12.5237C136.378 12.7903 136.261 13.1275 136.12 13.5353C135.994 13.943 135.853 14.3743 135.696 14.8291C135.555 15.2839 135.414 15.7152 135.273 16.123C135.132 16.5151 135.014 16.8444 134.92 17.111L131.179 26.9443H128.592ZM131.415 22.851L132.356 20.4045H139.837L140.919 22.851H131.415ZM153.214 27.1796C152.054 27.1796 150.979 26.9679 149.991 26.5444C149.019 26.121 148.164 25.5329 147.427 24.7801C146.706 24.0116 146.141 23.1177 145.733 22.0982C145.341 21.0632 145.145 19.934 145.145 18.7107C145.145 17.4874 145.341 16.3661 145.733 15.3467C146.141 14.3116 146.706 13.4176 147.427 12.6648C148.164 11.8964 149.019 11.3004 149.991 10.877C150.979 10.4535 152.054 10.2418 153.214 10.2418C154.375 10.2418 155.441 10.4535 156.414 10.877C157.402 11.3004 158.256 11.8964 158.978 12.6648C159.715 13.4333 160.279 14.3351 160.672 15.3702C161.079 16.3896 161.283 17.5031 161.283 18.7107C161.283 19.9183 161.079 21.0396 160.672 22.0747C160.279 23.0941 159.715 23.9881 158.978 24.7565C158.256 25.525 157.402 26.121 156.414 26.5444C155.441 26.9679 154.375 27.1796 153.214 27.1796ZM153.214 24.7095C154.014 24.7095 154.743 24.5605 155.402 24.2625C156.076 23.9645 156.657 23.5489 157.143 23.0157C157.629 22.4668 158.005 21.8316 158.272 21.1102C158.554 20.3731 158.695 19.5733 158.695 18.7107C158.695 17.8481 158.554 17.0561 158.272 16.3347C158.005 15.5976 157.629 14.9624 157.143 14.4292C156.657 13.8803 156.076 13.4568 155.402 13.1589C154.743 12.8609 154.014 12.7119 153.214 12.7119C152.414 12.7119 151.677 12.8609 151.003 13.1589C150.344 13.4568 149.764 13.8724 149.262 14.4057C148.776 14.9389 148.399 15.5741 148.133 16.3112C147.866 17.0326 147.733 17.8324 147.733 18.7107C147.733 19.5733 147.866 20.3731 148.133 21.1102C148.399 21.8473 148.776 22.4825 149.262 23.0157C149.764 23.5489 150.344 23.9645 151.003 24.2625C151.677 24.5605 152.414 24.7095 153.214 24.7095Z" fill="white"/>
<ellipse cx="18.4229" cy="18.7456" rx="23.9702" ry="2.58639" transform="rotate(-45 18.4229 18.7456)" fill="white"/>
<path fill-rule="evenodd" clip-rule="evenodd" d="M9.96973 31.4599C10.0438 31.5095 10.1182 31.5584 10.193 31.6066C12.5918 33.1511 15.4024 33.9908 18.2996 33.9908C22.2708 33.9908 26.0793 32.4133 28.8873 29.6052C31.6954 26.7972 33.2729 22.9887 33.2729 19.0175C33.2729 16.1203 32.4332 13.3097 30.8887 10.9109C30.8546 10.8581 30.8203 10.8054 30.7855 10.7529C30.1369 11.5948 29.4301 12.4741 28.6713 13.3823C29.6027 15.0966 30.1033 17.0313 30.1033 19.0175C30.1033 22.148 28.8597 25.1503 26.6461 27.364C24.4325 29.5776 21.4301 30.8212 18.2996 30.8212C16.2945 30.8212 14.342 30.311 12.6157 29.3626C11.6992 30.119 10.8142 30.8203 9.96973 31.4599ZM13.6781 28.4729C15.1039 29.1698 16.6826 29.5419 18.2996 29.5419C21.0909 29.5419 23.7678 28.4331 25.7415 26.4594C27.7152 24.4857 28.824 21.8087 28.824 19.0175C28.824 17.4167 28.4593 15.8536 27.776 14.4391C27.0275 15.3106 26.2352 16.2048 25.404 17.1146C25.5688 17.73 25.6544 18.3693 25.6544 19.0175C25.6544 20.9681 24.8795 22.8388 23.5002 24.2181C22.1209 25.5974 20.2502 26.3723 18.2996 26.3723C17.6408 26.3723 16.9911 26.2839 16.3663 26.1137C15.4507 26.9424 14.5522 27.7306 13.6781 28.4729Z" fill="white"/>
<mask id="path-5-inside-1_120_1922" fill="white">
<path d="M28.8862 8.43084C26.0782 5.6228 22.2697 4.04526 18.2985 4.04526C14.3273 4.04526 10.5188 5.6228 7.71077 8.43084C4.90273 11.2389 3.32519 15.0474 3.32519 19.0186C3.32519 22.9897 4.90273 26.7982 7.71076 29.6063L12.9966 24.3205C11.5904 22.9143 10.8004 21.0072 10.8004 19.0186C10.8004 17.03 11.5904 15.1228 12.9966 13.7166C14.4027 12.3105 16.3099 11.5205 18.2985 11.5205C20.2871 11.5205 22.1942 12.3105 23.6004 13.7166L28.8862 8.43084Z"/>
</mask>
<path d="M28.8862 8.43084C26.0782 5.6228 22.2697 4.04526 18.2985 4.04526C14.3273 4.04526 10.5188 5.6228 7.71077 8.43084C4.90273 11.2389 3.32519 15.0474 3.32519 19.0186C3.32519 22.9897 4.90273 26.7982 7.71076 29.6063L12.9966 24.3205C11.5904 22.9143 10.8004 21.0072 10.8004 19.0186C10.8004 17.03 11.5904 15.1228 12.9966 13.7166C14.4027 12.3105 16.3099 11.5205 18.2985 11.5205C20.2871 11.5205 22.1942 12.3105 23.6004 13.7166L28.8862 8.43084Z" stroke="white" stroke-width="7.92404" stroke-linejoin="round" mask="url(#path-5-inside-1_120_1922)"/>
</g>
<defs>
<clipPath id="clip0_120_1922">
<rect width="173.309" height="37.3945" fill="white"/>
</clipPath>
</defs>
</svg>
