<svg width="20" height="20" viewBox="0 0 20 20" fill="none" xmlns="http://www.w3.org/2000/svg">
<path fill-rule="evenodd" clip-rule="evenodd" d="M10 0C10 0 12.034 0 13.8927 0.786165C13.8927 0.786165 15.6874 1.54526 17.0711 2.92893C17.0711 2.92893 18.4547 4.3126 19.2138 6.10731C19.2138 6.10731 20 7.96602 20 10C20 10 20 12.034 19.2138 13.8927C19.2138 13.8927 18.4547 15.6874 17.0711 17.0711C17.0711 17.0711 15.6874 18.4547 13.8927 19.2138C13.8927 19.2138 12.034 20 10 20C10 20 7.96602 20 6.10731 19.2138C6.10731 19.2138 4.3126 18.4547 2.92893 17.0711C2.92893 17.0711 1.54526 15.6874 0.786166 13.8927C0.786166 13.8927 0 12.034 0 10C0 10 0 7.96602 0.786166 6.10731C0.786166 6.10731 1.54527 4.3126 2.92893 2.92893C2.92893 2.92893 4.3126 1.54526 6.10731 0.786165C6.10731 0.786165 7.96602 0 10 0ZM10 1.53846C10 1.53846 8.278 1.53846 6.70662 2.20309C6.70662 2.20309 5.18828 2.8453 4.01679 4.01679C4.01679 4.01679 2.8453 5.18827 2.2031 6.70662C2.2031 6.70662 1.53846 8.27799 1.53846 10C1.53846 10 1.53846 11.722 2.2031 13.2934C2.2031 13.2934 2.8453 14.8117 4.01679 15.9832C4.01679 15.9832 5.18828 17.1547 6.70662 17.7969C6.70662 17.7969 8.278 18.4615 10 18.4615C10 18.4615 11.722 18.4615 13.2934 17.7969C13.2934 17.7969 14.8117 17.1547 15.9832 15.9832C15.9832 15.9832 17.1547 14.8117 17.7969 13.2934C17.7969 13.2934 18.4615 11.722 18.4615 10C18.4615 10 18.4615 8.278 17.7969 6.70662C17.7969 6.70662 17.1547 5.18827 15.9832 4.01679C15.9832 4.01679 14.8117 2.8453 13.2934 2.2031C13.2934 2.2031 11.722 1.53846 10 1.53846Z" fill="white"/>
<path d="M11.1304 6.19642C10.9862 6.05216 10.7905 5.97112 10.5865 5.97112C10.3825 5.97112 10.1868 6.05216 10.0426 6.19642C9.89831 6.34068 9.81727 6.53633 9.81727 6.74035C9.81727 6.94436 9.89831 7.14002 10.0426 7.28428L12.7583 9.99996L10.0429 12.7154C9.8986 12.8596 9.81727 13.0556 9.81727 13.2596C9.81727 13.4636 9.89831 13.6592 10.0426 13.8035C10.1868 13.9478 10.3825 14.0288 10.5865 14.0288C10.7905 14.0288 10.9862 13.9478 11.1304 13.8035L14.39 10.5439C14.6904 10.2435 14.6904 9.75644 14.39 9.45603L11.1304 6.19642Z" fill="white"/>
<path d="M6.15385 10.7692H13.8462C14.271 10.7692 14.6154 10.4248 14.6154 10C14.6154 9.57517 14.271 9.23077 13.8462 9.23077H6.15385C5.72901 9.23077 5.38462 9.57517 5.38462 10C5.38462 10.4248 5.72901 10.7692 6.15385 10.7692Z" fill="white"/>
</svg>
