<svg width="24" height="24" viewBox="0 0 24 24" fill="none" xmlns="http://www.w3.org/2000/svg">
<g clip-path="url(#clip0_200_2068)">
<path fill-rule="evenodd" clip-rule="evenodd" d="M0.375 12C0.375 5.57812 5.57812 0.375 12 0.375C18.4219 0.375 23.625 5.57812 23.625 12C23.625 18.4219 18.4219 23.625 12 23.625C5.57812 23.625 0.375 18.4219 0.375 12ZM18.0471 16.0844H18.9936C19.0518 16.6469 18.761 19 16.1187 19C14.5197 19 13.6798 18.1031 13.0434 17.0531C9.24137 18.0719 5 15.3375 5 11.1469C5 7.49062 8.16568 5 11.3863 5C14.6747 5 17.7984 7.475 17.7952 11.1469C17.7952 13.1938 16.8099 14.8594 15.3821 15.9281C15.8408 16.6031 16.3189 17.0469 16.9811 17.0469C17.708 17.0469 17.9987 16.5063 18.0471 16.0844ZM11.4024 12.6562C12.9465 12.6562 13.7282 13.375 14.3581 14.2875C14.7232 13.5094 14.9008 12.4531 14.8976 11.1469C14.8976 7.89062 13.8478 6.21875 11.3863 6.21875C8.96356 6.21875 7.91372 7.89062 7.91372 11.1531C7.91372 14.3937 8.96356 16.05 11.3863 16.05C11.7739 16.05 12.1196 16.0125 12.4426 15.9187C11.9419 14.9656 11.354 14.0031 10.2072 14.0031C9.98756 14.0031 9.7679 14.0344 9.56763 14.1281L9.17353 13.3687C9.64838 12.9688 10.4172 12.6562 11.4024 12.6562Z" fill="white"/>
</g>
<defs>
<clipPath id="clip0_200_2068">
<rect width="24" height="24" fill="white"/>
</clipPath>
</defs>
</svg>
