<svg width="24" height="24" viewBox="0 0 24 24" fill="none" xmlns="http://www.w3.org/2000/svg">
<g clip-path="url(#clip0_76_111)">
<path d="M24 12C24 5.37273 18.6273 0 12 0C5.37273 0 0 5.37273 0 12C0 18.6273 5.37273 24 12 24C18.6273 24 24 18.6273 24 12ZM5.53855 16.2644C5.74582 16.2905 5.95745 16.3047 6.17127 16.3047C7.41382 16.3069 8.55709 15.8585 9.46364 15.1058C8.30291 15.0785 7.32436 14.2582 6.98727 13.1324C7.14873 13.1662 7.31564 13.1858 7.48582 13.1869C7.728 13.188 7.96145 13.1553 8.184 13.092C6.97091 12.8236 6.05673 11.6727 6.05673 10.3015C6.05673 10.2895 6.05673 10.2775 6.05673 10.2655C6.41455 10.4815 6.82255 10.6124 7.25782 10.632C6.54764 10.1182 6.07964 9.24545 6.07964 8.26364C6.07964 7.74436 6.21055 7.26 6.43855 6.84545C7.74655 8.57455 9.70036 9.72218 11.9029 9.86509C11.8571 9.65891 11.8342 9.444 11.8342 9.22473C11.8342 7.67455 13.0211 6.43745 14.4851 6.46145C15.2476 6.47455 15.9371 6.82473 16.4204 7.37455C17.0247 7.25891 17.592 7.03636 18.1036 6.72545C17.9062 7.37236 17.4851 7.91127 16.9375 8.24836C17.4742 8.18836 17.9847 8.04655 18.4604 7.83164C18.1047 8.38473 17.6553 8.868 17.1371 9.25418C17.1425 9.37418 17.1447 9.49418 17.1447 9.61418C17.1447 13.2949 14.4775 17.5396 9.60109 17.5375C8.10545 17.5385 6.71127 17.0695 5.53855 16.2644Z" fill="white"/>
</g>
<defs>
<clipPath id="clip0_76_111">
<rect width="24" height="24" fill="white"/>
</clipPath>
</defs>
</svg>
