<svg width="36" height="36" viewBox="0 0 36 36" fill="none" xmlns="http://www.w3.org/2000/svg">
<g clip-path="url(#clip0_1237_746)">
<path d="M19.2937 35.9437H16.7063C7.5375 35.9437 0 28.4062 0 19.2937V16.7062C0 7.5375 7.5375 0 16.65 0H19.2375C28.35 0 35.8875 7.5375 35.8875 16.65V19.2375C35.9437 28.4062 28.5187 35.9437 19.2937 35.9437ZM27.8438 13.1625C27.3937 11.7 27.0562 10.9125 25.5938 10.6875C25.5938 10.6875 21.7688 10.4625 17.8313 10.4625C13.95 10.4625 10.125 10.6875 10.125 10.6875C8.55 10.9125 8.2125 11.7 7.875 13.1625C7.875 13.1625 7.5375 15.4125 7.5375 17.6625C7.5375 20.025 7.875 22.3875 7.875 22.3875C8.2125 23.7375 8.775 24.6375 10.125 24.8625C10.125 24.8625 14.2875 25.0875 18.3375 25.0875C21.9375 25.0875 25.425 24.8625 25.425 24.8625C26.775 24.6375 27.225 23.85 27.675 22.3875C27.675 22.3875 28.0125 20.25 28.0125 18C28.2937 15.6375 27.8438 13.1625 27.8438 13.1625ZM15.8625 21.7687V13.95L21.825 17.775L15.8625 21.7687Z" fill="#D7D7D7"/>
</g>
<defs>
<clipPath id="clip0_1237_746">
<rect width="36" height="36" fill="white"/>
</clipPath>
</defs>
</svg>
