<svg width="16" height="17" viewBox="0 0 16 17" fill="none" xmlns="http://www.w3.org/2000/svg">
<g clip-path="url(#clip0_98_1771)">
<g clip-path="url(#clip1_98_1771)">
<path fill-rule="evenodd" clip-rule="evenodd" d="M7.77188 0.894531C8.81088 0.931641 9.88698 0.931641 10.926 0.968747C11.8537 1.00585 12.7071 1.15428 13.5235 1.63667C14.5625 2.2675 15.1933 3.19518 15.4159 4.3826C15.5273 5.08764 15.5644 5.82978 15.6015 6.53482C15.6386 8.09332 15.6015 9.65182 15.6015 11.2103C15.6015 12.0267 15.5644 12.843 15.3046 13.6223C14.7851 15.1437 13.709 16.0714 12.1505 16.3682C11.4455 16.5166 10.7033 16.5166 9.99831 16.5538C8.4398 16.5909 6.91841 16.5538 5.35991 16.5538C4.54356 16.5538 3.7272 16.5166 2.94796 16.2569C1.42656 15.7374 0.498884 14.6613 0.202026 13.1028C0.0536001 12.3977 0.0536001 11.6556 0.0164926 10.9506C-0.0206158 9.39207 0.0164926 7.83357 0.0164926 6.27507C0.0164926 5.45871 0.0536001 4.64236 0.313349 3.8631C0.83285 2.34171 1.90895 1.41403 3.46745 1.11718C4.17249 0.968752 4.91463 0.968752 5.61967 0.931641C6.3247 0.894531 7.02973 0.894531 7.77188 0.894531V0.894531ZM14.1916 8.57531C14.1916 8.57531 14.1545 8.57531 14.1916 8.57531C14.1545 7.94448 14.1545 7.35077 14.1545 6.71995C14.1545 6.12624 14.1174 5.53252 14.0432 4.93881C13.8947 3.60294 13.1155 2.71237 11.8167 2.45263C11.1488 2.3042 10.4067 2.3042 9.73874 2.3042C8.40289 2.26709 7.10414 2.26709 5.76829 2.3042C5.10036 2.3042 4.43243 2.3413 3.80161 2.45263C2.68839 2.63816 1.90915 3.26898 1.57518 4.3822C1.46386 4.75327 1.42676 5.12434 1.38965 5.49541C1.35254 6.90548 1.35254 8.31555 1.35254 9.72563C1.35254 10.6162 1.38965 11.5439 1.46386 12.4345C1.57518 13.7703 2.39154 14.698 3.7274 14.9206C4.39532 15.0319 5.10036 15.0691 5.80539 15.0691C7.10414 15.1062 8.40289 15.0691 9.73874 15.0691C10.3325 15.0691 10.9262 15.0319 11.5199 14.9577C12.0765 14.9206 12.596 14.7351 13.0413 14.364C13.7834 13.7703 14.0432 12.9911 14.0803 12.1005C14.1545 10.9873 14.1545 9.79984 14.1916 8.57531Z" fill="white"/>
<path fill-rule="evenodd" clip-rule="evenodd" d="M11.7788 8.72437C11.7788 10.9508 9.99767 12.732 7.77124 12.732C5.54481 12.732 3.76367 10.9508 3.76367 8.68727C3.76367 6.49794 5.58192 4.7168 7.80834 4.7168C9.99767 4.7168 11.7788 6.49794 11.7788 8.72437ZM7.77124 11.3219C9.18131 11.3219 10.3687 10.1344 10.3687 8.72437C10.3687 7.3143 9.18131 6.12687 7.77124 6.12687C6.32406 6.12687 5.17374 7.3143 5.17374 8.72437C5.13663 10.1344 6.32406 11.3219 7.77124 11.3219Z" fill="white"/>
<path d="M12.8556 4.53119C12.8556 5.05069 12.4474 5.49598 11.9279 5.49598C11.4084 5.49598 10.9631 5.05069 11.0002 4.53119C11.0002 4.0117 11.4084 3.60352 11.9279 3.60352C12.4474 3.60352 12.8556 4.01169 12.8556 4.53119Z" fill="white"/>
</g>
</g>
<defs>
<clipPath id="clip0_98_1771">
<rect width="16" height="16" fill="white" transform="translate(0 0.894531)"/>
</clipPath>
<clipPath id="clip1_98_1771">
<rect width="15.618" height="15.6757" fill="white" transform="translate(0 0.894531)"/>
</clipPath>
</defs>
</svg>
