<svg width="16" height="17" viewBox="0 0 16 17" fill="none" xmlns="http://www.w3.org/2000/svg">
<path fill-rule="evenodd" clip-rule="evenodd" d="M15.618 4.39339C15.03 4.65063 14.442 4.83438 13.7806 4.90787C14.442 4.50364 14.9565 3.87892 15.177 3.14396C14.5523 3.51144 13.8541 3.76867 13.1558 3.91567C12.5679 3.29095 11.7227 2.88672 10.804 2.88672C9.04005 2.88672 7.60687 4.3199 7.60687 6.08381C7.60687 6.34106 7.64362 6.59829 7.68037 6.81878C4.99776 6.67179 2.64587 5.42234 1.06569 3.47469C0.77171 3.95242 0.624719 4.50364 0.624719 5.09161C0.624719 6.19406 1.17594 7.18626 2.0579 7.77423C1.54342 7.77423 1.02895 7.62724 0.58797 7.37V7.40675C0.58797 8.95018 1.69042 10.2731 3.16035 10.5671C2.9031 10.6406 2.60912 10.6773 2.31513 10.6773C2.09465 10.6773 1.9109 10.6406 1.72717 10.6038C2.13139 11.89 3.30734 12.8087 4.74051 12.8455C3.63807 13.6907 2.27839 14.2052 0.77171 14.2052C0.514475 14.2052 0.257239 14.2052 0 14.1684C1.43318 15.0871 3.08685 15.6016 4.92426 15.6016C10.8407 15.6016 14.0378 10.7141 14.0378 6.48805C14.0378 6.34106 14.0378 6.19406 14.0378 6.08381C14.6625 5.60609 15.2137 5.01811 15.618 4.39339Z" fill="white"/>
</svg>
