<svg width="16" height="17" viewBox="0 0 16 17" fill="none" xmlns="http://www.w3.org/2000/svg">
<g clip-path="url(#clip0_98_1780)">
<path fill-rule="evenodd" clip-rule="evenodd" d="M15.6174 10.2535V16.0208H12.2496V10.6324C12.2496 9.28527 11.7865 8.35914 10.5657 8.35914C9.63959 8.35914 9.09233 8.9906 8.83975 9.57995C8.75555 9.79044 8.71346 10.0851 8.71346 10.3798V16.0208H5.3457C5.3457 16.0208 5.3878 6.88575 5.3457 5.95962H8.71346V7.39091C8.71346 7.39091 8.71346 7.433 8.67136 7.433H8.71346V7.39091C9.17652 6.71736 9.93427 5.70703 11.7444 5.70703C13.9335 5.70703 15.6174 7.18043 15.6174 10.2535ZM1.89436 1.11816C0.757744 1.11816 0 1.87591 0 2.84414C0 3.81237 0.715649 4.57013 1.85226 4.57013H1.89436C3.07308 4.57013 3.78873 3.81238 3.78873 2.84414C3.74663 1.87591 3.03098 1.11816 1.89436 1.11816ZM0.167969 16.0202H3.49363V5.95898H0.167969V16.0202Z" fill="white"/>
</g>
<defs>
<clipPath id="clip0_98_1780">
<rect width="16" height="16" fill="white" transform="translate(0 0.894531)"/>
</clipPath>
</defs>
</svg>
