<svg width="175" height="48" viewBox="0 0 175 48" fill="none" xmlns="http://www.w3.org/2000/svg">
<g clip-path="url(#clip0_1252_764)">
<path d="M55.548 33.1445V14.9445H62.958C63.946 14.9445 64.8387 15.1959 65.636 15.6985C66.4507 16.1839 67.1007 16.8512 67.586 17.7005C68.0713 18.5499 68.314 19.4945 68.314 20.5345C68.314 21.5745 68.0713 22.5192 67.586 23.3685C67.1007 24.2179 66.4507 24.9025 65.636 25.4225C64.8387 25.9252 63.946 26.1765 62.958 26.1765H58.356V33.1445H55.548ZM58.356 23.4725H62.906C63.374 23.4725 63.7987 23.3425 64.18 23.0825C64.5613 22.8052 64.8647 22.4499 65.09 22.0165C65.3327 21.5659 65.454 21.0719 65.454 20.5345C65.454 19.9972 65.3327 19.5119 65.09 19.0785C64.8647 18.6452 64.5613 18.2985 64.18 18.0385C63.7987 17.7785 63.374 17.6485 62.906 17.6485H58.356V23.4725ZM76.0076 33.4045C75.0369 33.4045 74.1876 33.1792 73.4596 32.7285C72.7489 32.2779 72.1942 31.6452 71.7956 30.8305C71.4142 30.0159 71.2236 29.0452 71.2236 27.9185V19.4945H73.9016V27.1905C73.9016 27.9879 74.0229 28.6812 74.2656 29.2705C74.5256 29.8425 74.8896 30.2845 75.3576 30.5965C75.8429 30.9085 76.4236 31.0645 77.0996 31.0645C77.6022 31.0645 78.0616 30.9865 78.4776 30.8305C78.8936 30.6572 79.2489 30.4232 79.5436 30.1285C79.8556 29.8339 80.0982 29.4785 80.2716 29.0625C80.4449 28.6465 80.5316 28.1959 80.5316 27.7105V19.4945H83.2096V33.1445H80.5316V30.2845L80.9996 29.9725C80.7916 30.6139 80.4362 31.1945 79.9336 31.7145C79.4482 32.2345 78.8676 32.6505 78.1916 32.9625C77.5156 33.2572 76.7876 33.4045 76.0076 33.4045ZM94.1418 33.4045C93.5524 33.4045 92.9631 33.3092 92.3738 33.1185C91.8018 32.9279 91.2731 32.6765 90.7878 32.3645C90.3198 32.0352 89.9211 31.6799 89.5918 31.2985C89.2798 30.8999 89.0718 30.5012 88.9678 30.1025L89.6438 29.7385V33.0665H86.9658V13.9045H89.6438V22.6145L89.2278 22.3805C89.3144 21.9819 89.5051 21.6005 89.7998 21.2365C90.0944 20.8552 90.4671 20.5172 90.9178 20.2225C91.3858 19.9105 91.8884 19.6679 92.4258 19.4945C92.9631 19.3039 93.5091 19.2085 94.0638 19.2085C95.2944 19.2085 96.3864 19.5119 97.3398 20.1185C98.2931 20.7252 99.0471 21.5659 99.6018 22.6405C100.156 23.6979 100.434 24.9112 100.434 26.2805C100.434 27.6499 100.156 28.8719 99.6018 29.9465C99.0644 31.0212 98.3191 31.8705 97.3658 32.4945C96.4124 33.1012 95.3378 33.4045 94.1418 33.4045ZM93.6998 30.9605C94.4971 30.9605 95.2078 30.7612 95.8318 30.3625C96.4558 29.9465 96.9498 29.3919 97.3138 28.6985C97.6778 27.9879 97.8598 27.1819 97.8598 26.2805C97.8598 25.3965 97.6778 24.6079 97.3138 23.9145C96.9671 23.2039 96.4818 22.6492 95.8578 22.2505C95.2338 21.8519 94.5144 21.6525 93.6998 21.6525C92.8851 21.6525 92.1658 21.8519 91.5418 22.2505C90.9178 22.6492 90.4238 23.2039 90.0598 23.9145C89.6958 24.6079 89.5138 25.3965 89.5138 26.2805C89.5138 27.1819 89.6958 27.9879 90.0598 28.6985C90.4238 29.3919 90.9178 29.9465 91.5418 30.3625C92.1658 30.7612 92.8851 30.9605 93.6998 30.9605ZM103.395 33.1445V13.9045H106.073V33.1445H103.395ZM110.31 33.1445V19.4945H112.988V33.1445H110.31ZM111.61 16.4785C111.038 16.4785 110.596 16.3312 110.284 16.0365C109.972 15.7419 109.816 15.3259 109.816 14.7885C109.816 14.2859 109.972 13.8785 110.284 13.5665C110.613 13.2545 111.055 13.0985 111.61 13.0985C112.182 13.0985 112.624 13.2459 112.936 13.5405C113.248 13.8352 113.404 14.2512 113.404 14.7885C113.404 15.2912 113.239 15.6985 112.91 16.0105C112.598 16.3225 112.165 16.4785 111.61 16.4785ZM122.902 33.4045C121.637 33.4045 120.502 33.0925 119.496 32.4685C118.508 31.8445 117.72 30.9952 117.13 29.9205C116.558 28.8459 116.272 27.6412 116.272 26.3065C116.272 24.9719 116.558 23.7672 117.13 22.6925C117.72 21.6179 118.508 20.7685 119.496 20.1445C120.502 19.5205 121.637 19.2085 122.902 19.2085C124.116 19.2085 125.216 19.4599 126.204 19.9625C127.21 20.4479 127.972 21.1152 128.492 21.9645L127.01 23.7845C126.733 23.3859 126.378 23.0219 125.944 22.6925C125.511 22.3632 125.052 22.1032 124.566 21.9125C124.081 21.7219 123.613 21.6265 123.162 21.6265C122.33 21.6265 121.585 21.8345 120.926 22.2505C120.285 22.6492 119.774 23.2039 119.392 23.9145C119.011 24.6252 118.82 25.4225 118.82 26.3065C118.82 27.1905 119.02 27.9879 119.418 28.6985C119.817 29.3919 120.346 29.9465 121.004 30.3625C121.663 30.7785 122.391 30.9865 123.188 30.9865C123.656 30.9865 124.107 30.9085 124.54 30.7525C124.991 30.5965 125.424 30.3625 125.84 30.0505C126.256 29.7385 126.646 29.3572 127.01 28.9065L128.492 30.7265C127.938 31.5065 127.14 32.1479 126.1 32.6505C125.078 33.1532 124.012 33.4045 122.902 33.4045ZM132.11 33.4305C131.538 33.4305 131.096 33.2659 130.784 32.9365C130.472 32.5899 130.316 32.1045 130.316 31.4805C130.316 30.9085 130.481 30.4405 130.81 30.0765C131.14 29.7125 131.573 29.5305 132.11 29.5305C132.682 29.5305 133.124 29.7039 133.436 30.0505C133.748 30.3799 133.904 30.8565 133.904 31.4805C133.904 32.0525 133.74 32.5205 133.41 32.8845C133.081 33.2485 132.648 33.4305 132.11 33.4305ZM135.036 33.1445L142.239 14.9445H145.983L153.133 33.1445H148.661L145.229 23.9145C145.09 23.5505 144.951 23.1605 144.813 22.7445C144.674 22.3285 144.535 21.9039 144.397 21.4705C144.258 21.0199 144.119 20.5865 143.981 20.1705C143.859 19.7372 143.755 19.3385 143.669 18.9745L144.449 18.9485C144.345 19.3819 144.223 19.8065 144.085 20.2225C143.963 20.6385 143.833 21.0545 143.695 21.4705C143.573 21.8692 143.435 22.2765 143.279 22.6925C143.123 23.0912 142.975 23.5072 142.837 23.9405L139.405 33.1445H135.036ZM138.469 29.6605L139.847 26.3325H148.219L149.571 29.6605H138.469ZM155.039 33.1445V29.4265H158.107V18.6625H155.039V14.9445H165.621V18.6625H162.527V29.4265H165.621V33.1445H155.039Z" fill="white"/>
<ellipse cx="24.1401" cy="23.6906" rx="27.1676" ry="2.93139" transform="rotate(-45 24.1401 23.6906)" fill="white"/>
<path fill-rule="evenodd" clip-rule="evenodd" d="M14.561 38.1001C14.6025 38.1279 14.6441 38.1555 14.6858 38.1829C17.4324 39.9868 20.6668 40.9688 24.0024 40.9688C28.5033 40.9688 32.8198 39.1808 36.0024 35.9983C39.185 32.8157 40.9729 28.4991 40.9729 23.9983C40.9729 20.6626 39.9909 17.4283 38.187 14.6817C38.1759 14.6647 38.1647 14.6478 38.1535 14.6309C37.4479 15.5467 36.6816 16.5016 35.8607 17.487C36.9466 19.4648 37.5307 21.7014 37.5307 23.9983C37.5307 27.5862 36.1054 31.0272 33.5684 33.5642C31.0313 36.1013 27.5903 37.5266 24.0024 37.5266C21.6839 37.5266 19.4268 36.9314 17.4353 35.8257C16.4409 36.6439 15.4798 37.4042 14.561 38.1001ZM18.8889 34.6084C20.4692 35.37 22.2148 35.7763 24.0024 35.7763C27.1261 35.7763 30.1219 34.5354 32.3307 32.3266C34.5395 30.1178 35.7804 27.122 35.7804 23.9983C35.7804 22.2289 35.3823 20.5005 34.6356 18.933C33.819 19.8814 32.9569 20.853 32.0543 21.841C32.2412 22.5387 32.3382 23.2635 32.3382 23.9983C32.3382 26.2091 31.46 28.3293 29.8967 29.8926C28.3334 31.4559 26.2132 32.3341 24.0024 32.3341C23.2555 32.3341 22.5189 32.2339 21.8107 32.0408C20.8165 32.9407 19.8402 33.7982 18.8889 34.6084Z" fill="white"/>
<mask id="path-4-inside-1_1252_764" fill="white">
<path d="M36 12C32.8174 8.8174 28.5009 7.02944 24 7.02944C19.4991 7.02944 15.1826 8.8174 12 12C8.8174 15.1826 7.02944 19.4991 7.02944 24C7.02944 28.5009 8.8174 32.8174 12 36L17.9909 30.0091C16.3972 28.4154 15.5018 26.2539 15.5018 24C15.5018 21.7461 16.3972 19.5846 17.9909 17.9909C19.5846 16.3972 21.7461 15.5018 24 15.5018C26.2539 15.5018 28.4154 16.3972 30.0091 17.9909L36 12Z"/>
</mask>
<path d="M36 12C32.8174 8.8174 28.5009 7.02944 24 7.02944C19.4991 7.02944 15.1826 8.8174 12 12C8.8174 15.1826 7.02944 19.4991 7.02944 24C7.02944 28.5009 8.8174 32.8174 12 36L17.9909 30.0091C16.3972 28.4154 15.5018 26.2539 15.5018 24C15.5018 21.7461 16.3972 19.5846 17.9909 17.9909C19.5846 16.3972 21.7461 15.5018 24 15.5018C26.2539 15.5018 28.4154 16.3972 30.0091 17.9909L36 12Z" stroke="white" stroke-width="8.60555" stroke-linejoin="round" mask="url(#path-4-inside-1_1252_764)"/>
</g>
<defs>
<clipPath id="clip0_1252_764">
<rect width="175" height="48" fill="white"/>
</clipPath>
</defs>
</svg>
