<svg width="284" height="267" viewBox="0 0 284 267" fill="none" xmlns="http://www.w3.org/2000/svg">
<circle cx="140" cy="133" r="36" fill="url(#paint0_linear_75_43)"/>
<g filter="url(#filter0_bii_75_43)">
<path fill-rule="evenodd" clip-rule="evenodd" d="M71.4287 232.8C72.2676 233.329 73.1128 233.847 73.9641 234.356C93.7493 246.177 116.851 252.597 140.656 252.597C173.658 252.597 205.308 240.258 228.644 218.294C251.98 196.331 265.09 166.542 265.09 135.481C265.09 113.077 258.269 91.3343 245.71 72.713C245.286 72.0847 244.856 71.46 244.419 70.8389C238.874 77.6123 232.819 84.6949 226.306 92.015C233.89 105.253 237.964 120.169 237.964 135.481C237.964 159.771 227.712 183.066 209.463 200.241C191.214 217.417 166.463 227.066 140.656 227.066C124.231 227.066 108.235 223.157 94.0701 215.888C86.2209 221.999 78.6468 227.654 71.4287 232.8ZM101.593 209.959C113.63 215.551 126.979 218.539 140.656 218.539C164.06 218.539 186.507 209.788 203.057 194.212C219.606 178.635 228.904 157.51 228.904 135.481C228.904 122.738 225.793 110.297 219.966 99.0581C213.582 106.068 206.811 113.267 199.696 120.597C201.066 125.41 201.777 130.411 201.777 135.481C201.777 150.738 195.338 165.37 183.875 176.159C172.413 186.947 156.866 193.008 140.656 193.008C135.18 193.008 129.78 192.316 124.587 190.984C116.749 197.661 109.063 204.001 101.593 209.959Z" fill="white" fill-opacity="0.03"/>
<path fill-rule="evenodd" clip-rule="evenodd" d="M156.886 147.658C234.68 74.44 290.94 8.68094 282.546 0.780742C277.617 -3.85787 251.495 12.4815 215.02 41.5841C193.663 26.602 167.611 18.3716 140.657 18.3716C107.655 18.3716 76.0045 30.7105 52.6685 52.6739C29.3324 74.6372 16.2223 104.426 16.2223 135.487C16.2223 160.984 25.0561 185.623 41.1284 205.781C12.126 238.323 -3.93426 261.442 0.829535 265.925C9.2235 273.826 79.0924 220.875 156.886 147.658ZM84.1677 160.241C97.2663 147.029 111.477 133.178 126.489 119.048C140.277 106.072 153.815 93.7318 166.807 82.2543C158.687 78.721 149.775 76.8402 140.657 76.8402C124.131 76.8402 108.282 83.019 96.5959 94.0174C84.9101 105.016 78.3451 119.933 78.3451 135.487C78.3451 144.122 80.3684 152.56 84.1677 160.241Z" fill="white" fill-opacity="0.03"/>
</g>
<defs>
<filter id="filter0_bii_75_43" x="-55.9853" y="-55.9853" width="395.346" height="378.677" filterUnits="userSpaceOnUse" color-interpolation-filters="sRGB">
<feFlood flood-opacity="0" result="BackgroundImageFix"/>
<feGaussianBlur in="BackgroundImageFix" stdDeviation="27.9926"/>
<feComposite in2="SourceAlpha" operator="in" result="effect1_backgroundBlur_75_43"/>
<feBlend mode="normal" in="SourceGraphic" in2="effect1_backgroundBlur_75_43" result="shape"/>
<feColorMatrix in="SourceAlpha" type="matrix" values="0 0 0 0 0 0 0 0 0 0 0 0 0 0 0 0 0 0 127 0" result="hardAlpha"/>
<feOffset dy="2.38235"/>
<feGaussianBlur stdDeviation="1.19118"/>
<feComposite in2="hardAlpha" operator="arithmetic" k2="-1" k3="1"/>
<feColorMatrix type="matrix" values="0 0 0 0 1 0 0 0 0 1 0 0 0 0 1 0 0 0 0.15 0"/>
<feBlend mode="normal" in2="shape" result="effect2_innerShadow_75_43"/>
<feColorMatrix in="SourceAlpha" type="matrix" values="0 0 0 0 0 0 0 0 0 0 0 0 0 0 0 0 0 0 127 0" result="hardAlpha"/>
<feOffset/>
<feGaussianBlur stdDeviation="20.25"/>
<feComposite in2="hardAlpha" operator="arithmetic" k2="-1" k3="1"/>
<feColorMatrix type="matrix" values="0 0 0 0 1 0 0 0 0 1 0 0 0 0 1 0 0 0 0.05 0"/>
<feBlend mode="normal" in2="effect2_innerShadow_75_43" result="effect3_innerShadow_75_43"/>
</filter>
<linearGradient id="paint0_linear_75_43" x1="104" y1="97" x2="189.085" y2="137.39" gradientUnits="userSpaceOnUse">
<stop stop-color="#CBFF5E"/>
<stop offset="1" stop-color="#00E5FF"/>
</linearGradient>
</defs>
</svg>
