<svg width="100%" height="100%" viewBox="0 0 82 82" fill="none" xmlns="http://www.w3.org/2000/svg">
<g>
<path d="M50.0896 52.9654L41.3595 27.7178C41.2068 27.2346 40.9002 26.8145 40.4864 26.5218C39.3381 25.8261 37.8983 25.8261 36.7499 26.5218C36.3362 26.8145 36.0296 27.2346 35.8769 27.7178L27.2515 52.8607C26.8587 54.0131 26.9285 54.8163 27.4436 55.2964C28.0095 55.7967 28.7497 56.0539 29.5039 56.0123C30.2179 56.066 30.9258 55.8477 31.4857 55.4012C31.9529 54.9545 32.3088 54.4042 32.5245 53.7949L34.3753 48.9933H42.8523L44.8515 54.0131C45.0627 54.555 45.3906 55.0438 45.8119 55.4449C46.3561 55.8855 47.054 56.0899 47.75 56.0123C48.5064 56.0375 49.2436 55.7719 49.8103 55.2703C50.3341 54.7901 50.4214 54.0305 50.0896 52.9654ZM35.4317 44.2789L38.6706 33.89L41.8833 44.2789H35.4317ZM58.8286 53.3583C58.893 54.0942 58.6569 54.8248 58.1738 55.3837C57.5946 55.8873 56.8337 56.1304 56.0698 56.0559C55.3153 56.1424 54.5604 55.8971 54.0008 55.3837C53.5564 54.8261 53.3383 54.1218 53.3897 53.4107V28.6955C53.3897 26.9146 54.2801 26.0241 56.0611 26.0241C56.7943 25.9551 57.528 26.1501 58.1301 26.5741C58.6669 27.1108 58.9303 27.8626 58.846 28.617L58.8286 53.3583Z" fill="currentColor"/>
<path d="M44.7114 4C25.7915 4.03018 10.4615 19.1152 10.4309 37.7326C10.4213 37.8679 10.4213 38.0036 10.4309 38.1388C8.04921 40.5528 3 46.0759 3 49.9585C3 54.2552 7.12828 55.9113 10.0736 56.0051L13.4318 56.7472L14.067 72.9807C14.1019 76.3252 16.8763 79.0134 20.2752 78.996H32.8585C34.2111 79.0718 35.3701 78.0543 35.4472 76.7233C35.5242 75.3922 34.4901 74.2518 33.1375 74.176C33.0446 74.1708 32.9514 74.1708 32.8585 74.176H20.2752C19.5887 74.1717 19.0331 73.6251 19.0288 72.9495L18.2349 52.8646L10.9469 51.3022L10.6929 51.2475H10.415C9.84266 51.2098 9.27998 51.0833 8.74782 50.8725C7.95392 50.56 7.95392 50.271 7.95392 49.9976C7.95392 48.5992 11.0739 44.3807 14.6147 40.959C15.2716 40.3198 15.5079 39.3717 15.226 38.506C15.306 38.2665 15.3462 38.0159 15.3451 37.7638C15.3451 21.8002 28.4964 8.85911 44.7194 8.85911C60.9424 8.85911 74.0937 21.8002 74.0937 37.7638C74.0937 39.1075 76.5468 40.1778 76.5468 40.1778C76.5468 40.1778 79 39.1075 79 37.7638C78.9908 19.1293 63.6487 4.02109 44.7114 4Z" fill="currentColor"/>
<path d="M70.0413 23C70.0413 23 82.484 43.7949 63.074 63.7463C63.074 63.7463 62.1144 68.004 67.106 66.7784C67.106 66.7784 81.0164 55.4857 78.7504 33.8391L70.0413 23Z" fill="currentColor"/>
</g>
</svg>
