<svg width="100%" height="100%" viewBox="0 0 82 82" fill="none" xmlns="http://www.w3.org/2000/svg">
<g>
<path d="M79.0872 42.7044C78.7063 42.7044 78.1349 42.5148 77.754 42.3253C71.2785 36.6383 68.0407 35.8801 66.898 35.8801C65.7552 35.8801 62.5175 36.6383 56.042 42.3253C55.2801 42.894 54.1374 42.894 53.3756 42.1357C44.9955 33.7948 36.8059 33.7948 28.4257 42.1357C27.6639 42.894 26.5212 42.894 25.7593 42.3253C19.2838 36.6383 16.0461 35.8801 14.9033 35.8801C13.5701 35.8801 10.5228 36.6383 4.04731 42.3253C3.47594 42.894 2.71412 42.894 1.95229 42.5148C1.38092 42.1357 1 41.567 1 40.8088C1 18.8191 18.9029 1 40.9959 1C63.0888 1 80.9917 18.8191 80.9917 40.8088C80.9917 41.567 80.6108 42.1357 79.849 42.5148C79.6585 42.7044 79.2776 42.7044 79.0872 42.7044ZM15.0938 32.0887C18.1411 32.0887 21.9502 34.1739 27.0926 38.3444C36.2345 30.0035 45.7573 30.0035 54.8992 38.3444C60.0416 34.1739 64.0412 32.0887 66.898 32.0887C69.5644 32.0887 72.6117 33.6052 76.8017 36.6383C74.8972 18.8192 59.4702 4.79128 40.9959 4.79128C22.5216 4.79128 7.09465 18.8192 4.99959 36.6383C9.18963 33.4157 12.4274 32.0887 15.0938 32.0887Z" fill="currentColor" stroke="currentColor"/>
<path d="M40.9009 81.0003C40.3309 81.0003 39.9509 80.8111 39.5709 80.4329L1.57001 42.6098C0.809996 41.8534 0.809996 40.7187 1.57001 39.9622C2.33003 39.2058 3.47005 39.2058 4.23007 39.9622L36.1508 71.7336L25.3205 41.8533C24.9405 40.9078 25.5105 39.7731 26.4606 39.3948C27.4106 39.0166 28.5506 39.584 28.9306 40.5295L42.8009 78.3526C43.1809 79.1091 42.8009 80.0547 42.0409 80.622C41.6609 80.8111 41.2809 81.0003 40.9009 81.0003Z" fill="currentColor" stroke="currentColor"/>
<path d="M40.9099 81.0003C40.5299 81.0003 40.1499 80.8111 39.9599 80.622C39.1999 80.0547 38.8199 79.2982 39.1999 78.3526L53.0701 40.5295C53.4501 39.584 54.5902 39.0166 55.5402 39.3948C56.4902 39.7731 57.0602 40.9078 56.6802 41.8533L45.85 71.7336L77.7707 39.9622C78.5307 39.2058 79.6707 39.2058 80.4307 39.9622C81.1907 40.7187 81.1907 41.8534 80.4307 42.6098L42.4299 80.4329C41.8599 80.8112 41.4799 81.0003 40.9099 81.0003Z" fill="currentColor" stroke="currentColor"/>
</g>
</svg>
