<svg viewBox="0 0 26 26" fill="none" xmlns="http://www.w3.org/2000/svg">
  <path id="Vector" d="M9.2838 21.419L10.528 20.1748L13 22.6468L11.7558 23.891L9.2838 21.419Z" fill="currentColor"/>
  <path id="Vector_2" d="M1.84325 13.9785L3.0874 12.7344L5.56758 15.2146L4.32342 16.4587L1.84325 13.9785Z" fill="currentColor"/>
  <path id="Vector_3" d="M5.56769 15.2145L6.80371 13.9785L8.03973 15.2145L6.80371 16.4506L5.56769 15.2145Z" fill="currentColor"/>
  <path id="Vector_4" d="M1.85137 11.4987L4.33154 9.01855L5.56757 10.2546L3.08739 12.7348L1.85137 11.4987Z" fill="currentColor"/>
  <path id="Vector_5" d="M13 22.647L22.9126 12.7344L24.1568 13.9785L14.2442 23.8911L13 22.647Z" fill="currentColor"/>
  <path id="Vector_6" d="M8.03966 15.2139L9.28381 13.9697L10.528 15.2139L9.28381 16.458L8.03966 15.2139Z" fill="currentColor"/>
  <path id="Vector_7" d="M13 15.2142L14.236 13.9782L15.4802 15.2224L10.528 20.1746L9.2838 18.9304L11.764 16.4503L10.528 15.2142L11.764 13.9782L13 15.2142Z" fill="currentColor"/>
  <path id="Vector_8" d="M5.56769 10.2546L6.80371 9.01855L8.04787 10.2627L6.81184 11.4987L5.56769 10.2546Z" fill="currentColor"/>
  <path id="Vector_9" d="M8.04779 10.2624L9.28381 9.02637L10.5198 10.2624L9.28381 11.4984L8.04779 10.2624Z" fill="currentColor"/>
  <path id="Vector_10" d="M15.4801 10.2621L14.2441 11.4981L13 10.254L11.7558 11.4981L10.5198 10.2621L11.7639 9.01796L9.28375 6.53778L10.5198 5.30176L15.4801 10.2621Z" fill="currentColor"/>
  <path id="Vector_11" d="M9.28374 4.06611L11.7639 1.58594L12.9999 2.82196L10.5198 5.30214L9.28374 4.06611Z" fill="currentColor"/>
  <path id="Vector_12" d="M13.0001 2.82196L14.2361 1.58594L24.1487 11.4985L22.9126 12.7345L13.0001 2.82196Z" fill="currentColor"/>
</svg>
