<svg viewBox="0 0 33 32" fill="none" xmlns="http://www.w3.org/2000/svg">
<g clip-path="url(#clip0_791_2724)">
<path d="M32.2002 25.8999H30.6802V30.4799H32.2002V25.8999Z" fill="currentColor"/>
<path d="M32.2002 1.52002H30.6802V6.09002H32.2002V1.52002Z" fill="currentColor"/>
<path d="M30.6802 13.7101H29.1502V12.1901H27.6302V15.2401H26.1102V10.6701H24.5802V9.14012H23.0602V13.7101H21.5402V15.2401H20.0102V12.1901H18.4902V10.6701H16.9602V7.62012H15.4402V9.14012H13.9202V12.1901H12.3902V15.2401H10.8702V9.14012H9.35019V10.6701H7.8202V12.1901H6.3002V15.2401H4.7702V13.7101H3.2502V12.1901H1.7302V15.2401H0.200195V16.7601H1.7302V19.8101H3.2502V18.2801H4.7702V16.7601H6.3002V18.2801H7.8202V21.3301H9.35019V22.8601H10.8702V16.7601H12.3902V19.8101H13.9202V22.8601H15.4402V24.3801H16.9602V21.3301H18.4902V18.2801H20.0102V16.7601H21.5402V18.2801H23.0602V22.8601H24.5802V21.3301H26.1102V16.7601H27.6302V19.8101H29.1502V18.2801H30.6802V16.7601H32.2002V15.2401H30.6802V13.7101Z" fill="currentColor"/>
<path d="M30.6804 0H26.1104V1.52H30.6804V0Z" fill="currentColor"/>
<path d="M30.6804 30.48H26.1104V32H30.6804V30.48Z" fill="currentColor"/>
<path d="M6.29998 30.48H1.72998V32H6.29998V30.48Z" fill="currentColor"/>
<path d="M6.29998 0H1.72998V1.52H6.29998V0Z" fill="currentColor"/>
<path d="M1.7302 25.8999H0.200195V30.4799H1.7302V25.8999Z" fill="currentColor"/>
<path d="M1.7302 1.52002H0.200195V6.09002H1.7302V1.52002Z" fill="currentColor"/>
</g>
<defs>
<clipPath id="clip0_791_2724">
<rect width="32" height="32" fill="white" transform="translate(0.200195)"/>
</clipPath>
</defs>
</svg>
