<svg width="100%" height="100%" viewBox="0 0 88 88" fill="none" xmlns="http://www.w3.org/2000/svg">
<g id="Group">
<path id="Vector" d="M83.82 4.18H79.6125V0H8.3875V4.18H4.18V8.3875H0V79.6125H4.18V83.82H8.3875V88H79.6125V83.82H83.82V79.6125H88V8.3875H83.82V4.18ZM87.493 46.09H83.2855V79.1055H79.1055V83.2855H8.89446V79.1055H4.71446V46.09H0.506956V41.91H4.71446V8.89446H8.89446V4.71446H79.1055V8.89446H83.2855V41.91H87.493V46.09Z" fill="currentColor"/>
<path id="Vector_2" d="M67 42H80V46H67V42Z" fill="currentColor"/>
<path id="Vector_3" d="M63 38H67V42H63V38Z" fill="currentColor"/>
<path id="Vector_4" d="M59 42H63V50H59V42Z" fill="currentColor"/>
<path id="Vector_5" d="M54 50H59V58H54V50Z" fill="currentColor"/>
<path id="Vector_6" d="M50 58H54V62H50V58Z" fill="currentColor"/>
<path id="Vector_7" d="M46 50H50V58H46V50Z" fill="currentColor"/>
<path id="Vector_8" d="M42 42H46V50H42V42Z" fill="currentColor"/>
<path id="Vector_9" d="M38 34H42V42H38V34Z" fill="currentColor"/>
<path id="Vector_10" d="M33 26H38V34H33V26Z" fill="currentColor"/>
<path id="Vector_11" d="M29 21H33V26H29V21Z" fill="currentColor"/>
<path id="Vector_12" d="M25 26H29V34H25V26Z" fill="currentColor"/>
<path id="Vector_13" d="M21 34H25V42H21V34Z" fill="currentColor"/>
<path id="Vector_14" d="M8 42H21V46H8V42Z" fill="currentColor"/>
</g>
</svg>
