<svg width="100%" height="100%" viewBox="0 0 84 84" fill="none" xmlns="http://www.w3.org/2000/svg">
<g id="User-Single-Aim--Streamline-Pixel">
<path id="Vector" d="M80.416 32.0059H76.4101V40.0439H72.4043V44.0497H76.4101V52.0877H80.416V44.0497H84.4481V40.0439H80.416V32.0059Z" fill="currentColor"/>
<path id="Vector_2" d="M72.4043 52.0879H76.4101V60.1259H72.4043V52.0879Z" fill="currentColor"/>
<path id="Vector_3" d="M72.4043 23.9688H76.4101V32.0068H72.4043V23.9688Z" fill="currentColor"/>
<path id="Vector_4" d="M68.3711 60.125H72.4033V68.1367H68.3711V60.125Z" fill="currentColor"/>
<path id="Vector_5" d="M68.3711 15.9297H72.4033V23.9677H68.3711V15.9297Z" fill="currentColor"/>
<path id="Vector_6" d="M64.3662 64.1309H60.334V72.1689H68.372V68.1367H64.3662V64.1309Z" fill="currentColor"/>
<path id="Vector_7" d="M60.334 11.9238H68.372V15.9297H60.334V11.9238Z" fill="currentColor"/>
<path id="Vector_8" d="M52.3223 72.1699H60.3339V76.1758H52.3223V72.1699Z" fill="currentColor"/>
<path id="Vector_9" d="M52.3223 60.125H60.3339V64.1308H52.3223V60.125Z" fill="currentColor"/>
<path id="Vector_10" d="M52.3223 52.0879H56.3281V56.0937H52.3223V52.0879Z" fill="currentColor"/>
<path id="Vector_11" d="M52.3223 7.91797H60.3339V11.9238H52.3223V7.91797Z" fill="currentColor"/>
<path id="Vector_12" d="M48.2891 36.0117H52.3213V44.0497H48.2891V36.0117Z" fill="currentColor"/>
<path id="Vector_13" d="M44.2841 72.1699H40.2519V76.1758H32.2402V80.2079H40.2519V84.2138H44.2841V80.2079H52.3221V76.1758H44.2841V72.1699Z" fill="currentColor"/>
<path id="Vector_14" d="M32.2402 56.0938H52.3221V60.1259H32.2402V56.0938Z" fill="currentColor"/>
<path id="Vector_15" d="M36.2461 48.0547H48.2899V52.0869H36.2461V48.0547Z" fill="currentColor"/>
<path id="Vector_16" d="M40.2519 11.9247H44.2841V7.91888H52.3221V3.88669H44.2841V-0.119141H40.2519V3.88669H32.2402V7.91888H40.2519V11.9247Z" fill="currentColor"/>
<path id="Vector_17" d="M32.2402 36.0117H36.2461V44.0497H32.2402V36.0117Z" fill="currentColor"/>
<path id="Vector_18" d="M24.2031 72.1699H32.2411V76.1758H24.2031V72.1699Z" fill="currentColor"/>
<path id="Vector_19" d="M24.2031 60.125H32.2411V64.1308H24.2031V60.125Z" fill="currentColor"/>
<path id="Vector_20" d="M28.209 52.0879H32.2412V56.0937H28.209V52.0879Z" fill="currentColor"/>
<path id="Vector_21" d="M24.2031 7.91797H32.2411V11.9238H24.2031V7.91797Z" fill="currentColor"/>
<path id="Vector_22" d="M28.209 32.0057H32.2411V27.9999H52.323V32.0057H56.3289V52.0876H60.3347V23.9677H56.3289V19.9619H52.323V15.9297H32.2411V19.9619H28.209V23.9677H24.2031V52.0876H28.209V32.0057Z" fill="currentColor"/>
<path id="Vector_23" d="M20.1962 64.1309V68.1367H16.1641V72.1689H24.2021V64.1309H20.1962Z" fill="currentColor"/>
<path id="Vector_24" d="M16.1641 11.9238H24.2021V15.9297H16.1641V11.9238Z" fill="currentColor"/>
<path id="Vector_25" d="M12.1582 60.125H16.164V68.1367H12.1582V60.125Z" fill="currentColor"/>
<path id="Vector_26" d="M12.1582 15.9297H16.164V23.9677H12.1582V15.9297Z" fill="currentColor"/>
<path id="Vector_27" d="M8.12695 52.0879H12.1591V60.1259H8.12695V52.0879Z" fill="currentColor"/>
<path id="Vector_28" d="M8.12695 23.9688H12.1591V32.0068H8.12695V23.9688Z" fill="currentColor"/>
<path id="Vector_29" d="M12.1591 44.0497V40.0439H8.1269V32.0059H4.12107V40.0439H0.115234V44.0497H4.12107V52.0877H8.1269V44.0497H12.1591Z" fill="currentColor"/>
</g>
</svg>
