<svg viewBox="0 0 169 85" fill="none" xmlns="http://www.w3.org/2000/svg">
<path d="M61.5762 42.6277C61.5762 37.2036 65.734 32.992 71.051 32.992C76.0251 32.992 79.9215 36.2477 80.5773 40.9986H76.3407C75.8945 38.3386 73.7884 36.504 71.1025 36.504C67.8646 36.504 65.6795 39.0089 65.6795 42.6252C65.6795 46.2411 67.8646 48.7997 71.1025 48.7997C73.7884 48.7997 75.8673 46.9408 76.3407 44.2781H80.5773C79.9189 49.0828 76.0251 52.3115 71.051 52.3115C65.734 52.3143 61.5762 48.0785 61.5762 42.6277Z" fill="currentColor"/>
<path d="M82.8672 51.8815V33.3338H86.867V40.6434H95.052V33.3338H99.0521V51.8815H95.052V44.0297H86.867V51.8815H82.8672Z" fill="currentColor"/>
<path d="M127.502 52.1993C122.737 52.1993 119.763 49.6941 119.475 45.7684H123.529C123.635 47.8087 124.977 49.1253 127.425 49.1253C129.453 49.1253 130.9 48.2466 130.9 46.7485C130.9 45.5866 129.978 44.8898 128.372 44.5798L125.268 43.987C122.4 43.4448 120.187 41.92 120.187 38.8459C120.187 35.5397 123.161 33.1629 127.24 33.1629C131.319 33.1629 134.585 35.5905 134.846 39.4657H130.791C130.661 37.5294 129.292 36.21 127.292 36.21C125.292 36.21 124.239 37.2944 124.239 38.587C124.239 39.8794 125.423 40.3949 126.792 40.654L130.03 41.3002C133.346 41.9467 135.137 43.4448 135.137 46.1822C135.137 49.7209 132.242 52.2019 127.504 52.2019L127.502 52.1993Z" fill="currentColor"/>
<path d="M141.215 39.5592V51.8815H137.582V33.3338H142.371L147.846 47.0771L153.348 33.3338H158.137V51.8815H154.504V39.4575L149.503 51.8843H146.162L141.215 39.5618V39.5592Z" fill="currentColor"/>
<path d="M119.399 51.9659H115.497L110.233 41.1808L105.008 51.9659H101.111L110.22 33.1629L119.399 51.9659Z" fill="currentColor"/>
<path d="M40.8819 46.304C40.8819 52.4511 35.8044 57.4342 29.5416 57.4342C23.2787 57.4342 18.2012 52.4511 18.2012 46.304H40.8819Z" fill="currentColor"/>
<path d="M18.3107 46.304C18.3107 40.2165 23.3387 35.2815 29.5412 35.2815C35.7437 35.2815 40.7718 40.2165 40.7718 46.304H48.6332C48.6332 35.9552 40.0855 27.5657 29.5412 27.5657C18.9969 27.5657 10.4492 35.9552 10.4492 46.304H18.3107Z" fill="currentColor"/>
</svg>
