<svg viewBox="0 0 88 88" fill="none" xmlns="http://www.w3.org/2000/svg">
  <g>
    <path d="M82.7812 69.1113H87.3633V82.7975H82.7812V69.1113Z" fill="currentColor"/>
    <path d="M82.7812 5.20215H87.3633V18.9183H82.7812V5.20215Z" fill="currentColor"/>
    <path d="M69.0977 0.650391H82.7839V5.20247H69.0977V0.650391Z" fill="currentColor"/>
    <path d="M69.0977 82.7979H82.7839V87.3499H69.0977V82.7979Z" fill="currentColor"/>
    <path d="M5.21875 82.7979H18.9049V87.3499H5.21875V82.7979Z" fill="currentColor"/>
    <path d="M5.21875 0.650391H18.9049V5.20247H5.21875V0.650391Z" fill="currentColor"/>
    <path d="M0.636719 69.1113H5.21875V82.7975H0.636719V69.1113Z" fill="currentColor"/>
    <path d="M0.636719 5.20215H5.21875V18.9183H0.636719V5.20215Z" fill="currentColor"/>
    <path d="M56.9623 44.3849V47.6149H50.4811V50.8661H31.0586V54.0961H40.7698V57.3261H43.9998V60.5774H47.2511V63.8074H60.1923V67.0374H63.4436V70.2886H66.6736V73.5186H69.9036V60.5774H73.1548V57.3261H76.3848V44.3849H73.1548V41.1336H69.9036V37.9036H63.4436V28.1924H60.1923V44.3849H56.9623Z" fill="currentColor"/>
    <path d="M56.9609 24.9414H60.1909V28.1927H56.9609V24.9414Z" fill="currentColor"/>
    <path d="M47.25 34.6738H53.71V41.1338H47.25V34.6738Z" fill="currentColor"/>
    <path d="M50.4805 21.7119H56.9617V24.9419H50.4805V21.7119Z" fill="currentColor"/>
    <path d="M34.2852 34.6738H40.7664V41.1338H34.2852V34.6738Z" fill="currentColor"/>
    <path d="M27.8047 54.0967H31.0559V57.3267H27.8047V54.0967Z" fill="currentColor"/>
    <path d="M24.5742 18.4814H50.478V21.7114H24.5742V18.4814Z" fill="currentColor"/>
    <path d="M24.5777 50.8662H21.3477V63.8075H24.5777V60.5775H27.8077V57.3262H24.5777V50.8662Z" fill="currentColor"/>
    <path d="M21.3477 34.6738H27.8077V41.1338H21.3477V34.6738Z" fill="currentColor"/>
    <path d="M18.0938 21.7119H24.575V24.9419H18.0938V21.7119Z" fill="currentColor"/>
    <path d="M18.0938 47.6152H21.345V50.8665H18.0938V47.6152Z" fill="currentColor"/>
    <path d="M14.8633 44.3848H18.0933V47.6148H14.8633V44.3848Z" fill="currentColor"/>
    <path d="M14.8633 24.9414H18.0933V28.1927H14.8633V24.9414Z" fill="currentColor"/>
    <path d="M11.6133 28.1924H14.8645V44.3849H11.6133V28.1924Z" fill="currentColor"/>
  </g>
</svg>
