<svg xmlns="http://www.w3.org/2000/svg" viewBox="-0.5 -0.5 24 24" height="100%" width="100%">
  <g>
    <path d="m20.811406249999997 16.423437500000002 -18.615624999999998 0 0 -10.9465625 -1.0996875 0 0 13.138750000000002 1.0996875 0 0 1.0996875 6.569375000000001 0 0 1.0925 1.0925 0 0 -1.0925 3.2846875000000004 0 0 1.0925 1.0996875 0 0 -1.0925 6.569375000000001 0 0 -1.0996875 1.0925 0 0 -13.138750000000002 -1.0925 0 0 10.9465625z" fill="currentColor" stroke-width="1"></path>
    <path d="M16.43421875 4.3771875h4.3771875v1.0996875h-4.3771875Z" fill="currentColor" stroke-width="1"></path>
    <path d="m8.76515625 21.9003125 0 -1.0925 -1.0925 0 0 2.1921874999999997 7.661875 0 0 -2.1921874999999997 -1.0925 0 0 1.0925 -5.476875 0z" fill="currentColor" stroke-width="1"></path>
    <path d="M9.85765625 10.95375h3.2846875000000004v1.0925h-3.2846875000000004Z" fill="currentColor" stroke-width="1"></path>
    <path d="M9.85765625 13.138750000000002h3.2846875000000004v1.0996875h-3.2846875000000004Z" fill="currentColor" stroke-width="1"></path>
    <path d="m10.95734375 0 0 1.0925 -1.0996875 0 0 1.0996875 -1.0925 0 0 1.0925 -1.0925 0 0 1.0925 2.185 0 0 5.476875 3.2846875000000004 0 0 -5.476875 2.1921874999999997 0 0 -1.0925 -1.0925 0 0 -1.0925 -1.0996875 0 0 -1.0996875 -1.0925 0 0 -1.0925 -1.0925 0z" fill="currentColor" stroke-width="1"></path>
    <path d="M2.19578125 4.3771875h4.3771875v1.0996875h-4.3771875Z" fill="currentColor" stroke-width="1"></path>
  </g>
</svg>