<svg width="100%" height="100%" viewBox="0 0 85 84" fill="none" xmlns="http://www.w3.org/2000/svg">
<g id="User-Single-Aim--Streamline-Pixel">
<path id="Vector" d="M80.6347 31.959H76.6289V39.997H72.623V44.0028H76.6289V52.0409H80.6347V44.0028H84.6669V39.997H80.6347V31.959Z" fill="currentColor"/>
<path id="Vector_2" d="M72.623 52.041H76.6289V60.079H72.623V52.041Z" fill="currentColor"/>
<path id="Vector_3" d="M72.623 23.9219H76.6289V31.9599H72.623V23.9219Z" fill="currentColor"/>
<path id="Vector_4" d="M68.5898 60.0781H72.622V68.0898H68.5898V60.0781Z" fill="currentColor"/>
<path id="Vector_5" d="M68.5898 15.8828H72.622V23.9208H68.5898V15.8828Z" fill="currentColor"/>
<path id="Vector_6" d="M64.5849 64.084H60.5527V72.122H68.5908V68.0898H64.5849V64.084Z" fill="currentColor"/>
<path id="Vector_7" d="M60.5527 11.877H68.5908V15.8828H60.5527V11.877Z" fill="currentColor"/>
<path id="Vector_8" d="M52.541 72.123H60.5527V76.1289H52.541V72.123Z" fill="currentColor"/>
<path id="Vector_9" d="M52.541 60.0781H60.5527V64.084H52.541V60.0781Z" fill="currentColor"/>
<path id="Vector_10" d="M52.541 52.041H56.5468V56.0468H52.541V52.041Z" fill="currentColor"/>
<path id="Vector_11" d="M52.541 7.87109H60.5527V11.8769H52.541V7.87109Z" fill="currentColor"/>
<path id="Vector_12" d="M48.5078 35.9648H52.54V44.0029H48.5078V35.9648Z" fill="currentColor"/>
<path id="Vector_13" d="M44.5028 72.123H40.4707V76.1289H32.459V80.1611H40.4707V84.1669H44.5028V80.1611H52.5409V76.1289H44.5028V72.123Z" fill="currentColor"/>
<path id="Vector_14" d="M32.459 56.0469H52.5409V60.0791H32.459V56.0469Z" fill="currentColor"/>
<path id="Vector_15" d="M36.4648 48.0078H48.5087V52.04H36.4648V48.0078Z" fill="currentColor"/>
<path id="Vector_16" d="M40.4707 11.8778H44.5028V7.87201H52.5409V3.83982H44.5028V-0.166016H40.4707V3.83982H32.459V7.87201H40.4707V11.8778Z" fill="currentColor"/>
<path id="Vector_17" d="M32.459 35.9648H36.4648V44.0029H32.459V35.9648Z" fill="currentColor"/>
<path id="Vector_18" d="M24.4219 72.123H32.4599V76.1289H24.4219V72.123Z" fill="currentColor"/>
<path id="Vector_19" d="M24.4219 60.0781H32.4599V64.084H24.4219V60.0781Z" fill="currentColor"/>
<path id="Vector_20" d="M28.4277 52.041H32.4599V56.0468H28.4277V52.041Z" fill="currentColor"/>
<path id="Vector_21" d="M24.4219 7.87109H32.4599V11.8769H24.4219V7.87109Z" fill="currentColor"/>
<path id="Vector_22" d="M28.4277 31.9589H32.4599V27.953H52.5418V31.9589H56.5476V52.0407H60.5534V23.9208H56.5476V19.915H52.5418V15.8828H32.4599V19.915H28.4277V23.9208H24.4219V52.0407H28.4277V31.9589Z" fill="currentColor"/>
<path id="Vector_23" d="M20.415 64.084V68.0898H16.3828V72.122H24.4208V64.084H20.415Z" fill="currentColor"/>
<path id="Vector_24" d="M16.3828 11.877H24.4208V15.8828H16.3828V11.877Z" fill="currentColor"/>
<path id="Vector_25" d="M12.377 60.0781H16.3828V68.0898H12.377V60.0781Z" fill="currentColor"/>
<path id="Vector_26" d="M12.377 15.8828H16.3828V23.9208H12.377V15.8828Z" fill="currentColor"/>
<path id="Vector_27" d="M8.3457 52.041H12.3779V60.079H8.3457V52.041Z" fill="currentColor"/>
<path id="Vector_28" d="M8.3457 23.9219H12.3779V31.9599H8.3457V23.9219Z" fill="currentColor"/>
<path id="Vector_29" d="M12.3778 44.0028V39.997H8.34565V31.959H4.33982V39.997H0.333984V44.0028H4.33982V52.0409H8.34565V44.0028H12.3778Z" fill="currentColor"/>
</g>
</svg>
