<svg width="100%" height="100%" viewBox="0 0 78 75" fill="none" xmlns="http://www.w3.org/2000/svg">
<g id="Money-Payments-Accounting-Bill-Money-1--Streamline-Pixel" clip-path="url(#clip0_199_77432)">
<path id="Vector" d="M73.6738 3.67383H77.3481V43.9229H73.6738V3.67383Z" fill="currentColor"/>
<path id="Vector_2" d="M0.5 61.9688H77.3478V65.643H0.5V61.9688Z" fill="currentColor"/>
<path id="Vector_3" d="M0.652344 71.1113H77.5002V74.7856H0.652344V71.1113Z" fill="currentColor"/>
<path id="Vector_4" d="M0.5 52.8516H77.3478V56.5018H0.5V52.8516Z" fill="currentColor"/>
<path id="Vector_5" d="M4.15039 43.9238H73.6737V47.5741H4.15039V43.9238Z" fill="currentColor"/>
<path id="Vector_6" d="M66.373 36.5977H70.0233V40.2479H66.373V36.5977Z" fill="currentColor"/>
<path id="Vector_7" d="M66.373 7.32422H70.0233V10.9745H66.373V7.32422Z" fill="currentColor"/>
<path id="Vector_8" d="M62.6992 18.3007H66.3735V29.2755H62.6992V32.9498H70.0238V14.6504H62.6992V18.3007Z" fill="currentColor"/>
<path id="Vector_9" d="M59.0488 21.9492H62.6991V25.6235H59.0488V21.9492Z" fill="currentColor"/>
<path id="Vector_10" d="M55.375 25.625H59.0493V29.2753H55.375V25.625Z" fill="currentColor"/>
<path id="Vector_11" d="M55.375 18.2988H59.0493V21.9491H55.375V18.2988Z" fill="currentColor"/>
<path id="Vector_12" d="M51.7246 21.9492H55.3749V25.6235H51.7246V21.9492Z" fill="currentColor"/>
<path id="Vector_13" d="M44.4004 25.625H48.0747V32.9496H44.4004V25.625Z" fill="currentColor"/>
<path id="Vector_14" d="M44.4004 14.6504H48.0747V18.3007H44.4004V14.6504Z" fill="currentColor"/>
<path id="Vector_15" d="M40.7503 25.6236H44.4006V21.9493H40.7503V14.6488H44.4006V10.9745H40.7503V7.32422H37.1001V10.9745H33.4258V14.6488H37.1001V21.9493H33.4258V25.6236H37.1001V32.9482H33.4258V36.5984H37.1001V40.2487H40.7503V36.5984H44.4006V32.9482H40.7503V25.6236Z" fill="currentColor"/>
<path id="Vector_16" d="M29.7754 29.2734H33.4257V32.9477H29.7754V29.2734Z" fill="currentColor"/>
<path id="Vector_17" d="M29.7754 14.6504H33.4257V21.9509H29.7754V14.6504Z" fill="currentColor"/>
<path id="Vector_18" d="M22.4492 21.9492H26.0995V25.6235H22.4492V21.9492Z" fill="currentColor"/>
<path id="Vector_19" d="M18.7988 25.625H22.4491V29.2753H18.7988V25.625Z" fill="currentColor"/>
<path id="Vector_20" d="M18.7988 18.2988H22.4491V21.9491H18.7988V18.2988Z" fill="currentColor"/>
<path id="Vector_21" d="M15.125 21.9492H18.7993V25.6235H15.125V21.9492Z" fill="currentColor"/>
<path id="Vector_22" d="M11.4751 29.2755V18.3007H15.1253V14.6504H7.80078V32.9498H15.1253V29.2755H11.4751Z" fill="currentColor"/>
<path id="Vector_23" d="M7.80078 36.5977H11.4751V40.2479H7.80078V36.5977Z" fill="currentColor"/>
<path id="Vector_24" d="M7.80078 7.32422H11.4751V10.9745H7.80078V7.32422Z" fill="currentColor"/>
<path id="Vector_25" d="M4.15039 0H73.6737V3.67429H4.15039V0Z" fill="currentColor"/>
<path id="Vector_26" d="M0.5 3.67383H4.15027V43.9229H0.5V3.67383Z" fill="currentColor"/>
</g>
<defs>
<clipPath id="clip0_199_77432">
<rect width="88" height="88" fill="white" transform="translate(-3.5)"/>
</clipPath>
</defs>
</svg>
