<svg xmlns="http://www.w3.org/2000/svg" viewBox="0 0 64 68"><g fill="currentColor" fill-rule="evenodd" transform="translate(-.002 .586)"><polygon fill-rule="nonzero" points="22.411 28.789 25.598 28.789 25.598 25.598 28.789 25.598 28.789 28.789 25.6 28.789 25.6 32.002 22.411 32.002 22.411 35.193 51.174 35.193 51.174 31.998 54.387 31.998 54.387 35.193 60.797 35.193 60.797 38.386 64.004 38.386 64.004 63.982 60.794 63.982 60.794 67.195 9.6 67.195 9.6 63.982 6.41 63.982 6.41 60.791 9.602 60.791 9.602 63.982 60.791 63.982 60.791 38.386 9.602 38.386 9.602 41.599 6.41 41.599 6.41 35.193 19.198 35.193 19.198 32.002 22.408 32.002 22.408 28.789 9.602 28.789 9.602 32.002 6.41 32.002 6.41 25.598 22.411 25.598"/><polygon fill-rule="nonzero" points="6.406 60.791 3.193 60.791 3.193 57.6 6.406 57.6"/><path d="M38.40921 60.79097 22.40821 60.79097 22.40821 41.59867 38.40921 41.59867 38.40921 60.79097ZM25.59961 57.59957 35.19631 57.59957 35.19631 44.79007 25.59961 44.79007 25.59961 57.59957ZM57.60061 60.79097 41.59961 60.79097 41.59961 41.59867 57.60061 41.59867 57.60061 60.79097ZM44.79101 57.59957 54.38771 57.59957 54.38771 44.79007 44.79101 44.79007 44.79101 57.59957Z"/><polygon fill-rule="nonzero" points="3.191 3.191 3.191 41.599 6.404 41.599 6.404 44.79 3.191 44.79 3.191 57.6 0 57.6 0 3.191"/><path d="M16.00391 48.00297 19.19141 48.00297 19.19141 54.38667 16.00391 54.38667 16.00391 57.59957 9.59961 57.59957 9.59961 54.38667 6.41011 54.38667 6.41011 48.00297 9.59961 48.00297 9.59961 44.79007 16.00391 44.79007 16.00391 48.00297ZM9.60161 54.38667 16.00001 54.38667 16.00001 48.00297 9.60161 48.00297 9.60161 54.38667ZM56.07421 24.88187 47.28811 33.66797 36.82031 23.20017 45.60641 14.41407 56.07421 24.88187ZM40.89061 23.19917 47.28811 29.59667 51.99121 24.89257 45.59471 18.49607 40.89061 23.19917Z"/><polygon fill-rule="nonzero" points="60.789 28.789 57.602 28.789 57.602 32.002 54.389 32.002 54.389 28.789 57.598 28.789 57.598 25.598 60.789 25.598"/><polygon fill-rule="nonzero" points="32.004 19.192 35.195 19.192 35.195 22.405 32.004 22.405 32.004 25.598 28.791 25.598 28.791 3.191 32.004 3.191"/><polygon fill-rule="nonzero" points="64.004 25.598 60.791 25.598 60.791 22.405 64.004 22.405"/><path d="M25.60251,22.40527 L6.41011,22.40527 L6.41011,6.40427 L25.60251,6.40427 L25.60251,22.40527 Z M9.60161,19.19237 L22.41111,19.19237 L22.41111,9.59667 L9.60161,9.59667 L9.60161,19.19237 Z"/><polygon fill-rule="nonzero" points="57.602 19.192 60.789 19.192 60.789 22.405 57.598 22.405 57.598 19.192 54.389 19.192 54.389 16.001 57.602 16.001"/><polygon fill-rule="nonzero" points="41.598 16.001 38.408 16.001 38.408 19.192 35.195 19.192 35.195 16.001 38.406 16.001 38.406 12.788 41.598 12.788"/><polygon fill-rule="nonzero" points="54.389 16.001 51.197 16.001 51.197 12.788 54.389 12.788"/><polygon fill-rule="nonzero" points="48.004 9.597 51.193 9.597 51.193 12.788 48.002 12.788 48.002 9.597 44.791 9.597 44.791 12.788 41.6 12.788 41.6 9.597 44.791 9.597 44.791 6.404 48.004 6.404"/><polygon fill-rule="nonzero" points="28.791 3.191 3.193 3.191 3.193 0 28.791 0"/></g></svg>