<svg width="100%" height="100%" viewBox="0 0 92 92" fill="none" xmlns="http://www.w3.org/2000/svg">
<g id="Group">
<path id="Vector" d="M87.0586 9.49414H91.6406V82.5072H87.0586V9.49414Z" fill="currentColor"/>
<path id="Vector_2" d="M82.5059 82.5059H87.0579V87.0579H82.5059V82.5059Z" fill="currentColor"/>
<path id="Vector_3" d="M82.5059 4.91211H87.0579V9.49414H82.5059V4.91211Z" fill="currentColor"/>
<path id="Vector_4" d="M9.49414 87.0586H82.5072V91.6406H9.49414V87.0586Z" fill="currentColor"/>
<path id="Vector_5" d="M73.3717 59.6855H18.627V64.2376H14.0449V73.3717H18.627V68.8197H73.3717V73.3717H77.9538V64.2376H73.3717V59.6855Z" fill="currentColor"/>
<path id="Vector_6" d="M73.3717 36.8652H18.627V41.4173H14.0449V50.5514H18.627V45.9993H73.3717V50.5514H77.9538V41.4173H73.3717V36.8652Z" fill="currentColor"/>
<path id="Vector_7" d="M73.3717 14.0449H18.627V18.597H14.0449V27.7311H18.627V23.179H73.3717V27.7311H77.9538V18.597H73.3717V14.0449Z" fill="currentColor"/>
<path id="Vector_8" d="M18.627 73.373H73.3717V77.9251H18.627V73.373Z" fill="currentColor"/>
<path id="Vector_9" d="M18.627 50.5527H73.3717V55.1048H18.627V50.5527Z" fill="currentColor"/>
<path id="Vector_10" d="M18.627 27.7324H73.3717V32.3145H18.627V27.7324Z" fill="currentColor"/>
<path id="Vector_11" d="M9.49414 0.359375H82.5072V4.91146H9.49414V0.359375Z" fill="currentColor"/>
<path id="Vector_12" d="M4.94141 82.5059H9.49349V87.0579H4.94141V82.5059Z" fill="currentColor"/>
<path id="Vector_13" d="M4.94141 4.91211H9.49349V9.49414H4.94141V4.91211Z" fill="currentColor"/>
<path id="Vector_14" d="M0.359375 9.49414H4.94141V82.5072H0.359375V9.49414Z" fill="currentColor"/>
</g>
</svg>
