<svg xmlns="http://www.w3.org/2000/svg" viewBox="0 0 76 73"><g fill="currentColor"><polygon points="50.659 72.368 47.049 72.368 47.049 68.758 50.659 68.758"/><polygon points="72.39 61.514 68.757 61.514 68.757 68.758 65.149 68.758 65.149 72.368 61.516 72.368 61.516 68.758 65.146 68.758 65.146 61.514 68.757 61.514 68.756 54.294 72.39 54.294"/><polygon points="47.048 54.294 47.049 68.758 43.437 68.758 43.437 54.294"/><polygon points="57.901 61.514 54.291 61.514 54.291 57.903 57.901 57.903"/><polygon points="61.515 57.903 57.904 57.903 57.904 54.294 61.515 54.294"/><polygon points="50.659 54.294 47.048 54.294 47.049 50.66 50.659 50.66"/><polygon points="65.149 54.294 61.515 54.294 61.516 47.05 65.149 47.05"/><polygon points="76.003 54.294 72.393 54.294 72.393 36.195 76.003 36.195"/><polygon points="61.511 47.05 54.294 47.05 54.294 50.66 50.659 50.66 50.66 47.05 54.291 47.05 54.291 43.416 61.511 43.416"/><polygon points="65.149 43.416 61.516 43.416 61.516 36.195 65.149 36.195"/><polygon points="61.516 36.195 57.904 36.195 57.904 25.318 61.515 25.318"/><polygon points="65.149 25.318 68.757 25.318 68.757 28.952 72.39 28.952 72.39 36.195 68.756 36.195 68.757 28.952 65.146 28.952 65.146 25.318 61.515 25.318 61.516 21.708 65.149 21.708"/><path d="M25.34275,21.70801 L28.95015,21.70801 L28.95015,25.31831 L25.33985,25.31831 L25.33985,21.70801 L21.70895,21.70801 L21.70895,18.09761 L25.34275,18.09761 L25.34275,21.70801 Z M43.43845,7.24411 L39.80565,7.24411 L39.80565,18.09761 L36.19625,18.09761 L36.19625,25.31831 L32.56245,25.31831 L32.56245,18.09761 L36.19535,18.09761 L36.19535,7.24411 L39.80465,7.24411 L39.80465,-1.77635684e-15 L43.43845,-1.77635684e-15 L43.43845,7.24411 Z M50.65915,25.31831 L47.04885,25.31831 L47.04885,21.70801 L50.65915,21.70801 L50.65915,25.31831 Z M57.90135,18.09761 L54.29395,18.09761 L54.29395,21.70801 L50.66015,21.70801 L50.66015,18.09761 L54.29105,18.09761 L54.29105,14.46391 L57.90135,14.46391 L57.90135,18.09761 Z M21.70605,18.09761 L18.09575,18.09761 L18.09575,14.46391 L21.70605,14.46391 L21.70605,18.09761 Z M18.09475,10.85351 L18.09475,14.46391 L14.48435,14.46391 L14.48435,10.85351 L18.09475,10.85351 Z M61.51465,14.46391 L57.90425,14.46391 L57.90425,10.85351 L61.51465,10.85351 L61.51465,14.46391 Z M21.70605,10.85351 L18.09575,10.85351 L18.09575,7.24411 L21.70605,7.24411 L21.70605,10.85351 Z M54.29395,7.24411 L57.90135,7.24411 L57.90135,10.85351 L54.29105,10.85351 L54.29105,7.24411 L50.66015,7.24411 L50.66015,3.61035 L54.29395,3.61035 L54.29395,7.24411 Z M28.95015,3.61035 L25.34275,3.61035 L25.34275,7.24411 L21.70895,7.24411 L21.70895,3.61035 L25.33985,3.61035 L25.33985,-1.77635684e-15 L28.95015,-1.77635684e-15 L28.95015,3.61035 Z M50.65915,3.61035 L47.04885,3.61035 L47.04885,-1.77635684e-15 L50.65915,-1.77635684e-15 L50.65915,3.61035 Z"/><polygon points="10.854 68.758 14.487 68.758 14.487 72.368 10.854 72.368 10.854 68.758 7.244 68.758 7.244 61.514 10.854 61.514"/><polygon points="28.95 72.368 25.34 72.368 25.34 68.758 28.95 68.758"/><polygon points="32.562 68.758 28.95 68.758 28.951 54.294 32.562 54.294"/><polygon points="7.241 61.514 3.607 61.514 3.607 54.294 0 54.294 0 36.195 3.607 36.195 3.607 28.952 7.241 28.952 7.241 36.195 3.61 36.195 3.61 54.294 7.241 54.294"/><polygon points="21.706 61.514 18.096 61.514 18.096 57.903 21.706 57.903"/><polygon points="14.487 25.318 18.095 25.318 18.095 36.195 14.487 36.195 14.487 43.416 21.704 43.416 21.704 47.05 14.487 47.05 14.487 54.294 18.095 54.294 18.096 57.903 14.484 57.903 14.484 54.294 10.854 54.294 10.854 47.05 14.484 47.05 14.484 43.416 10.854 43.416 10.854 36.195 14.484 36.195 14.484 25.318 10.854 25.318 10.854 28.952 7.244 28.952 7.244 25.318 10.854 25.318 10.854 21.708 14.487 21.708"/><polygon points="25.343 50.66 28.95 50.66 28.951 54.294 25.34 54.294 25.34 50.66 21.709 50.66 21.709 47.05 25.343 47.05"/></g></svg>