<svg width="100%" height="100%" viewBox="0 0 78 74" fill="none" xmlns="http://www.w3.org/2000/svg">
<g id="Coding-Apps-Websites-Database--Streamline-Pixel">
<path id="Vector" d="M70.5679 66.4847H74.5085V62.5699H78.4233V11.5488H74.5085V15.4636H70.5679V19.3784H58.7978V23.319H19.5469V27.2337H54.883V46.8592H58.7978V42.9444H70.5679V39.0039H74.5085V42.9444H70.5679V46.8592H58.7978V50.774H54.883V70.3995H19.5469V74.34H58.7978V70.3995H70.5679V66.4847Z" fill="currentColor"/>
<path id="Vector_2" d="M66.6523 7.60938H74.5077V11.5499H66.6523V7.60938Z" fill="currentColor"/>
<path id="Vector_3" d="M54.8828 3.69336H66.6529V7.60815H54.8828V3.69336Z" fill="currentColor"/>
<path id="Vector_4" d="M19.5469 46.8594H54.883V50.7742H19.5469V46.8594Z" fill="currentColor"/>
<path id="Vector_5" d="M23.4863 58.6289H35.2565V62.5695H23.4863V58.6289Z" fill="currentColor"/>
<path id="Vector_6" d="M23.4863 35.0898H35.2565V39.0046H23.4863V35.0898Z" fill="currentColor"/>
<path id="Vector_7" d="M23.4863 -0.246094H54.8819V3.69445H23.4863V-0.246094Z" fill="currentColor"/>
<path id="Vector_8" d="M7.77539 66.4844H19.5455V70.3992H7.77539V66.4844Z" fill="currentColor"/>
<path id="Vector_9" d="M7.77539 42.9453H19.5455V46.8601H7.77539V42.9453Z" fill="currentColor"/>
<path id="Vector_10" d="M7.77539 19.3789H19.5455V23.3195H7.77539V19.3789Z" fill="currentColor"/>
<path id="Vector_11" d="M11.6914 3.69336H23.4873V7.60815H11.6914V3.69336Z" fill="currentColor"/>
<path id="Vector_12" d="M7.77539 50.7734H15.6307V58.6288H7.77539V50.7734Z" fill="currentColor"/>
<path id="Vector_13" d="M7.77539 27.2344H15.6307V35.0897H7.77539V27.2344Z" fill="currentColor"/>
<path id="Vector_14" d="M3.86133 7.60938H11.6909V11.5499H3.86133V7.60938Z" fill="currentColor"/>
<path id="Vector_15" d="M3.86133 62.5703H7.77612V66.4851H3.86133V62.5703Z" fill="currentColor"/>
<path id="Vector_16" d="M3.86242 42.9444H7.77721V39.0039H3.86242V19.3784H7.77721V15.4636H3.86242V11.5488H-0.078125V62.5699H3.86242V42.9444Z" fill="currentColor"/>
</g>
</svg>
