<svg width="100%" height="100%" viewBox="0 0 93 88" fill="none" xmlns="http://www.w3.org/2000/svg">
<g id="Group">
<path id="Vector" d="M87.7188 25.7334H92.9572V62.2663H87.7188V25.7334Z" fill="currentColor"/>
<path id="Vector_2" d="M82.5156 62.2666H87.72V67.4707H82.5156V62.2666Z" fill="currentColor"/>
<path id="Vector_3" d="M82.5156 20.5293H87.72V25.7333H82.5156V20.5293Z" fill="currentColor"/>
<path id="Vector_4" d="M72.0723 25.7334H82.5151V30.9377H72.0723V25.7334Z" fill="currentColor"/>
<path id="Vector_5" d="M72.0723 67.4697H82.5151V72.7082H72.0723V67.4697Z" fill="currentColor"/>
<path id="Vector_6" d="M77.3112 20.5288V15.29H72.0727V10.0859H61.6643V15.29H56.4258V20.5288H61.6643V25.7328H72.0727V20.5288H77.3112Z" fill="currentColor"/>
<path id="Vector_7" d="M61.6641 30.9375H72.0725V36.176H61.6641V30.9375Z" fill="currentColor"/>
<path id="Vector_8" d="M61.6641 72.709H72.0725V77.9133H61.6641V72.709Z" fill="currentColor"/>
<path id="Vector_9" d="M51.2202 88.3563V83.1178H61.663V77.9134H51.2202V41.3809H40.7773V46.6194H45.9817V83.1178H40.7773V88.3563H51.2202Z" fill="currentColor"/>
<path id="Vector_10" d="M51.2207 36.1758H61.6635V41.3801H51.2207V36.1758Z" fill="currentColor"/>
<path id="Vector_11" d="M51.2214 30.938H56.4258V25.7336H51.2214V20.5293H40.7786V25.7336H35.5742V30.938H40.7786V36.1765H51.2214V30.938Z" fill="currentColor"/>
<path id="Vector_12" d="M40.7786 -0.356445V4.88204H35.5742V10.0864H40.7786V15.2907H51.2214V10.0864H56.4258V4.88204H51.2214V-0.356445H40.7786Z" fill="currentColor"/>
<path id="Vector_13" d="M30.3359 77.9131H40.7788V83.1174H30.3359V77.9131Z" fill="currentColor"/>
<path id="Vector_14" d="M30.3359 36.1758H40.7788V41.3801H30.3359V36.1758Z" fill="currentColor"/>
<path id="Vector_15" d="M19.9258 72.709H30.3342V77.9133H19.9258V72.709Z" fill="currentColor"/>
<path id="Vector_16" d="M30.3344 20.5288H35.5729V15.29H30.3344V10.0859H19.926V15.29H14.6875V20.5288H19.926V25.7328H30.3344V20.5288Z" fill="currentColor"/>
<path id="Vector_17" d="M19.9258 30.9375H30.3342V36.176H19.9258V30.9375Z" fill="currentColor"/>
<path id="Vector_18" d="M9.48438 67.4697H19.9272V72.7082H9.48438V67.4697Z" fill="currentColor"/>
<path id="Vector_19" d="M9.48438 25.7334H19.9272V30.9377H9.48438V25.7334Z" fill="currentColor"/>
<path id="Vector_20" d="M4.24609 62.2666H9.48458V67.4707H4.24609V62.2666Z" fill="currentColor"/>
<path id="Vector_21" d="M4.24609 20.5293H9.48458V25.7333H4.24609V20.5293Z" fill="currentColor"/>
<path id="Vector_22" d="M-0.958984 25.7334H4.24536V62.2663H-0.958984V25.7334Z" fill="currentColor"/>
</g>
</svg>
