<svg width="100%" height="100%" viewBox="0 0 89 90" fill="none" xmlns="http://www.w3.org/2000/svg">
<g id="Group">
<path id="Vector" d="M84.6969 17.1559H3.275V4.30273H-1V85.7246H3.275V21.4309H84.6969V85.7246H89V4.30273H84.6969V17.1559Z" fill="currentColor"/>
<path id="Vector_2" d="M3.27539 85.7246H84.6973V89.9996H3.27539V85.7246Z" fill="currentColor"/>
<path id="Vector_3" d="M24.7051 8.57812H29.0082V12.8531H24.7051V8.57812Z" fill="currentColor"/>
<path id="Vector_4" d="M16.1289 8.57812H20.432V12.8531H16.1289V8.57812Z" fill="currentColor"/>
<path id="Vector_5" d="M7.57812 8.57812H11.8531V12.8531H7.57812V8.57812Z" fill="currentColor"/>
<path id="Vector_6" d="M3.27539 0H84.6973V4.30312H3.27539V0Z" fill="currentColor"/>
<path id="Vector_7" d="M73.2887 62.7357V38.1006H48.6266V42.2244H52.7504V46.3213H56.8473V50.4182H52.7504V54.542H44.5297V50.4182H40.4328V46.3213H36.309V42.2244H28.0883V46.3213H23.9914V50.4182H19.8945V54.542H15.7707V58.6389H11.6738V62.7357H19.8945V58.6389H23.9914V54.542H28.0883V50.4182H36.309V54.542H40.4328V58.6389H44.5297V62.7357H52.7504V58.6389H56.8473V54.542H65.068V58.6389H69.1648V62.7357H73.2887Z" fill="currentColor"/>
</g>
</svg>
