<svg viewBox="0 0 33 32" fill="none" xmlns="http://www.w3.org/2000/svg">
  <path d="M18.0297 12.1898V13.7198H19.5497V12.1898H25.6397V13.7198H27.1697V12.1898H28.6897V15.2398H30.2197V12.1898H31.7397V6.0998H30.2197V3.0498H28.6897V6.0998H27.1697V4.5698H25.6397V6.0998H19.5497V4.5698H18.0297V6.0998H16.4997V3.0498H14.9797V6.0998H13.4497V12.1898H14.9797V15.2398H16.4997V12.1898H18.0297ZM27.1697 7.6198H30.2197V10.6698H27.1697V7.6198ZM19.5497 7.6198H25.6397V10.6698H19.5497V7.6198ZM14.9797 10.6698V7.6198H18.0297V10.6698H14.9797Z" fill="currentColor"/>
  <path d="M24.12 28.9602H25.64V27.4302H27.17V16.7602H28.69V15.2402H25.64V13.7202H24.12V16.7602H21.07V13.7202H19.55V15.2402H16.5V16.7602H18.03V27.4302H19.55V28.9602H21.07V30.4802H24.12V28.9602ZM19.55 24.3802V19.8102H21.07V24.3802H19.55ZM22.6 27.4302H21.07V25.9102H22.6V27.4302Z" fill="currentColor"/>
  <path d="M21.07 30.48H16.5V32H21.07V30.48Z" fill="currentColor"/>
  <path d="M19.55 4.57H21.07V1.53H24.12V4.57H25.64V3.05H28.69V1.53H25.64V0H19.55V1.53H16.5V3.05H19.55V4.57Z" fill="currentColor"/>
  <path d="M16.5 28.96H14.98V30.48H16.5V28.96Z" fill="currentColor"/>
  <path d="M14.9797 27.4302H13.4497V28.9602H14.9797V27.4302Z" fill="currentColor"/>
  <path d="M13.4497 24.3799H11.9297V27.4299H13.4497V24.3799Z" fill="currentColor"/>
  <path d="M11.9299 22.8599H7.35986V24.3799H11.9299V22.8599Z" fill="currentColor"/>
  <path d="M7.35984 24.3799H5.83984V25.9099H7.35984V24.3799Z" fill="currentColor"/>
  <path d="M5.83957 25.9102H4.30957V27.4302H5.83957V25.9102Z" fill="currentColor"/>
  <path d="M4.30977 27.4302H1.25977V28.9602H4.30977V27.4302Z" fill="currentColor"/>
</svg>
