<svg width="100%" height="100%" viewBox="0 0 2196 2195" fill="none" xmlns="http://www.w3.org/2000/svg">
<mask id="mask0_279_10660" style="mask-type:luminance" maskUnits="userSpaceOnUse" x="9" y="8" width="2179" height="2178">
<path d="M2142.47 788.329C2157.15 839.521 2168.54 891.603 2176.55 944.254C2183.92 1001.16 2187.57 1058.49 2187.46 1115.87C2183.38 1335.72 2112.83 1549.19 1985.08 1728.17C1955.42 1770.4 1922.64 1810.35 1887.01 1847.69C1853.27 1883.37 1817.06 1916.63 1778.65 1947.22C1704.91 2005.89 1623.96 2054.88 1537.77 2092.97C1458.46 2125.09 1441.91 2131.71 1405.26 2141.27C1385.03 2146.67 1358.31 2154.88 1337.72 2158.92C1297.39 2166.65 1243.33 2176.45 1202.88 2180.62C1106.3 2189.94 1008.91 2186.19 913.336 2169.47C861.842 2160.53 811.047 2147.96 761.334 2131.83C707.682 2114.27 655.435 2092.68 605.041 2067.23C584.447 2056.32 556.989 2041.86 537.131 2029.6C510.04 2012.81 474.123 1989.64 448.749 1970.39C395.35 1930.5 345.628 1885.9 300.179 1837.14C283.017 1818.51 260.585 1793.26 245.385 1773.16C221.849 1742.02 191.939 1699.61 171.1 1666.63C141.329 1615.92 114.759 1563.39 91.5437 1509.36C86.3953 1497.1 81.859 1483.62 77.8138 1470.38C-27.6071 1114.89 344.922 659.249 908.066 453.678C344.922 659.249 -27.6071 1115.62 77.8138 1470.38C81.859 1483.62 86.3953 1496.61 91.5437 1509.36C76.0983 1470.38 52.8076 1401.36 47.7817 1379.67C41.8977 1353.8 32.5811 1319.72 28.2907 1293.86C21.9165 1255.25 16.0327 1203.39 12.3552 1164.53C9.10545 1124.07 8.85964 1083.43 11.6197 1042.93C15.575 987.244 22.449 931.801 32.2135 876.833C38.9432 841.291 48.034 806.236 59.4264 771.903C67.3943 749.225 77.2009 718.702 86.272 696.514C97.3045 669.301 112.75 633.384 126.357 607.52C151.102 558.092 179.797 510.744 212.165 465.937C241.972 423.818 274.744 383.878 310.23 346.419C343.893 310.653 380.153 277.424 418.716 247.004C455.738 217.428 494.637 190.28 535.169 165.732C575.076 141.342 616.653 119.796 659.591 101.254C679.204 93.2859 705.068 81.5181 725.172 74.8986C810.98 46.5821 817.967 44.253 860.013 35.3045C902.058 26.356 954.401 18.7558 994.853 13.6074C1015.69 10.9106 1043.89 10.4203 1064.97 9.07188C1112.47 7.67088 1160.01 9.34955 1207.29 14.0976C1256.86 18.9785 1306.01 27.3762 1354.39 39.2271C1406.2 51.6541 1456.97 68.0468 1506.27 88.2601C1655.02 148.071 1788.63 240.184 1897.43 357.942C1914.34 376.574 1936.9 401.704 1952.22 421.93C1979.06 455.948 2003.86 491.518 2026.51 528.454C2052.62 574.422 2084.49 637.43 2105.94 685.727C2119.89 719.27 2132.08 753.517 2142.47 788.329Z" fill="white"/>
</mask>
<g mask="url(#mask0_279_10660)">
<path d="M960.03 1979.22C558.94 1979.22 203.941 1791.42 73.3902 1471.97C-32.7662 1114.52 340.743 656.186 906.338 449.757L910.138 448.408L911.609 452.086C1090.58 890.318 1322.02 1535.59 1427.44 1890.71L1428.54 1894.51L1424.86 1895.74C1275.99 1950.54 1118.66 1978.79 960.03 1979.22ZM905.113 459.195C346.014 664.766 -23.3272 1117.34 81.2357 1469.4C258.735 1904.2 857.918 2092.36 1417.38 1889.61C1312.45 1534.73 1083.1 895.344 905.113 458.95L905.113 459.195Z" stroke="#A0A0A0" stroke-width="0.1" stroke-miterlimit="10"/>
<path d="M863.649 988.396C660.652 988.396 480.701 893.272 414.629 730.972L422.229 727.785C511.714 946.717 813.757 1040.98 1095.7 938.137L1098.64 945.86C1023.4 973.674 943.864 988.071 863.649 988.396Z" stroke="#A0A0A0" stroke-width="0.1" stroke-miterlimit="10"/>
<path d="M882.544 1534.49C536.125 1534.49 229.302 1372.31 116.648 1096.26L124.248 1093.07C277.967 1469.27 796.736 1631.45 1280.81 1454.69L1283.63 1462.53C1155.16 1509.72 1019.41 1534.07 882.544 1534.49Z" stroke="#A0A0A0" stroke-width="0.1" stroke-miterlimit="10"/>
<path d="M376.39 1821.72C270.601 1465.49 507.553 850.497 904.475 450.756L910.359 456.64C515.276 854.42 279.304 1465.25 384.357 1819.27L376.39 1821.72Z" stroke="#A0A0A0" stroke-width="0.1" stroke-miterlimit="10"/>
<path d="M859.238 1972.86C753.695 1617.37 773.431 935.323 903.369 452.838L911.336 455.044C781.766 936.548 762.031 1616.51 867.207 1970.78L859.238 1972.86Z" stroke="#A0A0A0" stroke-width="0.1" stroke-miterlimit="10"/>
<path d="M1420.3 1897.35L1419.07 1893.06C1313.65 1538.18 1082.46 893.151 903.611 455.286L901.895 451.241L905.939 449.77C1263.51 319.097 1623.91 314.929 1869.93 438.738C2000.23 504.319 2088.13 602.631 2123.92 723.129C2197.47 904.306 2191.46 1103.13 2105.41 1297.92C1988.34 1562.7 1740.11 1780.53 1424.46 1895.75L1420.3 1897.35ZM912.805 456.144C1090.79 892.415 1320.02 1531.68 1425.81 1886.56C1737.29 1771.58 1982.21 1555.59 2097.81 1294.61C2183 1102.03 2189.38 905.287 2116.07 725.948C2080.77 607.289 1994.47 510.694 1866.13 446.215C1623.17 324 1267.07 327.678 912.805 456.144Z" stroke="#A0A0A0" stroke-width="0.1" stroke-miterlimit="10"/>
<path d="M1098.67 946.225L1095.73 938.503C1253.37 880.889 1377.67 772.281 1435.65 640.259C1478.31 543.664 1481.49 445.108 1444.72 355.133L1452.44 351.945C1490.07 444.005 1486.89 544.89 1443.12 643.692C1384.41 777.674 1258.39 887.876 1098.67 946.225Z" stroke="#A0A0A0" stroke-width="0.1" stroke-miterlimit="10"/>
<path d="M1283.62 1462.53L1280.8 1454.69C1551.34 1355.89 1764.02 1169.32 1864.17 942.785C1937.72 776.563 1943.24 607.032 1879.98 452.455L1887.58 449.391C1951.69 606.296 1946.18 778.157 1871.77 946.34C1770.64 1174.71 1556 1362.88 1283.62 1462.53Z" stroke="#A0A0A0" stroke-width="0.1" stroke-miterlimit="10"/>
<path d="M1890.32 1596.4C1785.15 1242.26 1343.24 731.214 905.25 457.12L909.664 450.133C1349.12 725.085 1792.26 1238.22 1898.29 1593.95L1890.32 1596.4Z" stroke="#A0A0A0" stroke-width="0.1" stroke-miterlimit="10"/>
<path d="M2140.24 1177.53C2035.31 824.122 1482.1 501.24 907.062 457.723L907.675 449.51C1485.9 493.149 2042.42 818.728 2148.21 1175.08L2140.24 1177.53Z" stroke="#A0A0A0" stroke-width="0.1" stroke-miterlimit="10"/>
<path d="M2116.08 725.936C2090.25 662.848 2055.26 603.907 2012.26 551.01C1969.71 508.204 1920.33 472.783 1866.14 446.202C1622.2 323.62 1264.26 327.665 908.77 457.602L905.093 458.951L903.622 455.273C876.041 387.853 852.75 332.691 832.891 287.09C813.768 293.219 794.646 299.757 775.523 306.703L771.355 308.174L770.129 304.007C703.199 78.7 717.173 73.7967 723.915 71.0999C730.657 68.4031 744.755 64.1125 837.55 276.671C1300.05 132.881 1777.88 248.844 2018.26 544.881C2067.44 594.682 2103.72 655.74 2123.93 722.748L2116.08 725.936ZM1444.46 348.872C1603.81 348.872 1750.91 378.782 1869.94 438.725C1903.36 455.423 1935.13 475.247 1964.82 497.932C1714.99 243.819 1271.61 151.146 840.859 284.639C860.349 329.259 883.15 383.317 909.751 448.409C1080.92 384.68 1261.82 351.006 1444.46 348.872ZM726.857 79.1902C724.406 84.829 723.548 117.068 776.748 297.019C794.4 290.645 812.052 284.761 829.704 279.122C753.335 104.565 731.883 82.2548 726.857 80.0483L726.857 79.1902Z" stroke="#A0A0A0" stroke-width="0.1" stroke-miterlimit="10"/>
<path d="M1444.73 355.139C1355.36 136.206 1053.44 41.8178 771.503 144.91L768.684 137.064C1054.79 32.5016 1361.61 128.974 1452.69 351.952L1444.73 355.139Z" stroke="#A0A0A0" stroke-width="0.1" stroke-miterlimit="10"/>
<path d="M1879.99 452.212C1726.27 76.1287 1207.63 -86.1706 723.425 90.716L720.605 82.8707C1208.97 -95.4869 1732.4 68.8963 1887.71 449.147L1879.99 452.212Z" stroke="#A0A0A0" stroke-width="0.1" stroke-miterlimit="10"/>
<path d="M910.369 456.634L904.484 450.75C1147.57 205.585 1405.85 88.2739 1594.75 135.836C1705.07 163.54 1782.79 245.547 1820.67 373.033L1812.7 375.485C1775.92 250.818 1699.68 170.772 1592.79 143.926C1406.21 96.8547 1151.49 213.921 910.369 456.634Z" stroke="#A0A0A0" stroke-width="0.1" stroke-miterlimit="10"/>
<path d="M911.346 454.789L903.379 452.583C979.135 171.256 1077.69 9.07934 1173.92 7.85352L1175.02 7.85352C1239.99 7.85352 1296.26 81.4031 1337.81 221.883L1329.84 224.212C1289.39 88.0224 1235.94 15.8213 1175.02 15.8213L1174.04 15.8213C1083.21 17.2923 985.018 181.308 911.346 454.789Z" stroke="#A0A0A0" stroke-width="0.1" stroke-miterlimit="10"/>
<path d="M73.3619 1471.97C-0.187561 1290.42 5.57381 1091.96 91.7493 896.689C208.325 633.136 455.084 415.92 769.018 300.203C703.313 78.696 717.165 73.7926 723.907 71.4636C730.649 69.1345 751.979 62.1473 911.214 451.469L912.807 455.515L908.762 456.985C347.702 661.821 -23.6006 1115.62 81.2074 1468.54L73.3619 1471.97ZM726.849 80.0443C724.275 85.8057 723.539 118.413 778.089 302.164L779.192 305.841L775.515 307.19C461.949 421.682 215.435 638.162 99.3494 900.611C23.5934 1072.23 10.1093 1246.17 59.51 1408.84C11.4577 1063.52 371.728 646.743 901.897 451.715C765.831 118.29 733.223 82.8637 726.849 80.0443Z" stroke="#A0A0A0" stroke-width="0.1" stroke-miterlimit="10"/>
<path d="M414.674 731.323C377.041 639.264 380.228 538.378 423.99 439.577C483.198 305.717 608.722 195.392 768.447 137.043L771.266 144.888C613.747 202.379 489.326 311.11 431.468 443.009C388.809 539.604 385.622 638.283 422.274 728.136L414.674 731.323Z" stroke="#A0A0A0" stroke-width="0.1" stroke-miterlimit="10"/>
<path d="M116.65 1096.25C52.5398 939.347 58.0557 767.487 132.463 599.303C233.594 370.687 447.991 182.523 720.859 82.8633L723.678 90.7086C453.139 189.51 240.459 376.081 140.309 602.613C66.7593 768.712 61.3652 938.367 124.495 1092.94L116.65 1096.25Z" stroke="#A0A0A0" stroke-width="0.1" stroke-miterlimit="10"/>
<path d="M298.929 600.796C258.354 463.994 271.715 365.315 337.542 315.301C438.182 238.565 652.089 289.069 909.635 450.142L905.221 457.129C650.74 297.772 440.389 247.39 342.568 322.288C279.683 370.095 267.302 465.71 306.896 598.835L298.929 600.796Z" stroke="#A0A0A0" stroke-width="0.1" stroke-miterlimit="10"/>
<path d="M48.849 1019.65C12.0742 895.11 33.5265 778.411 111.244 682.062C250.62 509.343 548.128 422.309 908.03 449.155L907.417 457.368C550.947 430.522 255.646 516.208 118.108 686.842C42.1073 780.986 21.0231 895.233 56.8171 1016.83L48.849 1019.65Z" stroke="#A0A0A0" stroke-width="0.1" stroke-miterlimit="10"/>
<path d="M1470.95 2123.75C1463.22 2123.75 1442.14 2106.95 1359.52 1917.69C896.893 2061.48 418.945 1945.39 178.683 1649.23C129.538 1599.49 93.3398 1538.46 73.2617 1471.49L81.1072 1468.79C106.888 1531.78 141.789 1590.63 184.69 1643.47C227.215 1686.39 276.65 1721.86 330.93 1748.4C574.992 1870.98 932.81 1866.94 1288.3 1737.12L1292.1 1735.77L1293.57 1739.45C1321.15 1806.87 1344.44 1862.03 1364.18 1907.63C1383.38 1901.51 1402.55 1894.97 1421.67 1888.02L1425.84 1886.55L1427.06 1890.72C1493.87 2115.9 1479.9 2120.81 1473.28 2123.62C1472.51 2123.81 1471.72 2123.85 1470.95 2123.75ZM1367.49 1915.36C1443.73 2089.91 1465.55 2112.59 1470.33 2115.17C1472.79 2109.53 1473.64 2077.29 1420.32 1897.46C1402.79 1903.71 1385.14 1909.6 1367.49 1915.23L1367.49 1915.36ZM232.129 1696.55C481.952 1950.78 925.578 2043.58 1356.33 1910.09C1336.97 1865.47 1314.16 1811.41 1287.56 1746.32C931.217 1875.64 572.541 1879.2 327.376 1755.88C293.833 1739.14 261.942 1719.27 232.129 1696.55Z" stroke="#A0A0A0" stroke-width="0.1" stroke-miterlimit="10"/>
<path d="M1075.37 2183.69C728.954 2183.69 422.13 2021.51 309.477 1745.46L317.077 1742.39C470.795 2118.6 989.565 2280.78 1473.64 2104.01L1476.46 2111.74C1348 2158.98 1212.25 2183.34 1075.37 2183.69Z" stroke="#A0A0A0" stroke-width="0.1" stroke-miterlimit="10"/>
<path d="M689.739 2069.2C660.287 2069.34 630.931 2065.84 602.337 2058.79C492.013 2031.08 414.419 1949.07 376.418 1821.71L384.385 1819.26C421.16 1943.8 497.529 2023.85 605.034 2050.82C791.114 2097.64 1046.33 1980.82 1287.45 1738.11L1293.33 1743.99C1085.31 1952.87 866.87 2069.2 689.739 2069.2Z" stroke="#A0A0A0" stroke-width="0.1" stroke-miterlimit="10"/>
<path d="M1022.07 2186.76C957.099 2186.76 900.955 2113.21 859.277 1972.85L867.246 1970.52C907.698 2106.59 961.266 2178.91 1022.07 2178.91L1023.05 2178.91C1114 2177.81 1212.19 2013.92 1285.74 1740.43L1293.83 1742.64C1218.08 2024.58 1119.4 2186.02 1023.17 2187.25L1022.07 2186.76Z" stroke="#A0A0A0" stroke-width="0.1" stroke-miterlimit="10"/>
<path d="M1470.94 2123.75C1461.38 2123.75 1430.85 2097.52 1285.84 1742.64L1284.25 1738.6L1288.29 1737.13C1849.47 1532.29 2220.78 1078.37 2115.97 725.577L2123.69 722.758C2197.85 904.302 2191.48 1102.76 2105.43 1297.92C1988.73 1561.59 1742.09 1778.81 1428.16 1894.52C1493.74 2116.03 1479.89 2120.81 1473.27 2123.26C1472.53 2123.57 1471.74 2123.73 1470.94 2123.75ZM1295.16 1743.75C1431.34 2076.68 1463.83 2111.49 1470.33 2115.3C1472.78 2109.66 1473.64 2076.93 1419.09 1893.3L1417.98 1889.62L1421.66 1888.27C1735.23 1773.78 1981.62 1557.3 2097.83 1294.85C2173.58 1123.23 2186.94 949.29 2137.54 786.623C2185.72 1131.69 1825.69 1548.47 1295.16 1743.5L1295.16 1743.75Z" stroke="#A0A0A0" stroke-width="0.1" stroke-miterlimit="10"/>
<path d="M1476.45 2111.75L1473.63 2104.02C1744.17 2005.22 1956.85 1818.65 2057 1592C2130.55 1425.9 2136.06 1256.24 2072.81 1101.67L2080.41 1098.48C2144.52 1255.38 2139.01 1427.24 2064.6 1595.55C1963.47 1824.04 1749.19 2012.21 1476.45 2111.75Z" stroke="#A0A0A0" stroke-width="0.1" stroke-miterlimit="10"/>
<path d="M1736.45 1914.5C1623.06 1914.5 1465.79 1856.03 1287.55 1744.6L1291.97 1737.49C1546.33 1896.84 1756.68 1947.35 1854.62 1872.33C1917.38 1824.52 1929.76 1728.91 1890.29 1595.9L1898.26 1593.45C1938.84 1730.13 1925.47 1828.81 1859.53 1878.95C1828.51 1902.97 1786.83 1914.5 1736.45 1914.5Z" stroke="#A0A0A0" stroke-width="0.1" stroke-miterlimit="10"/>
<path d="M1416.66 1750.13C1375.35 1750.13 1332.81 1748.53 1289.42 1745.23L1289.42 1736.89C1646.13 1763.86 1941.19 1678.05 2078.85 1507.42C2154.73 1413.27 2175.81 1299.02 2140.14 1177.55L2148.11 1175.09C2184.88 1299.51 2163.55 1416.21 2085.71 1512.56C1963.38 1664.57 1718.33 1750.13 1416.66 1750.13Z" stroke="#A0A0A0" stroke-width="0.1" stroke-miterlimit="10"/>
<path d="M1287.42 1746.32L1285.82 1742.64C1106.85 1304.29 875.54 658.889 770.119 304.013L769.016 300.213L772.693 298.865C1337.8 92.4358 1943.97 282.684 2123.67 722.755C2230.2 1080.21 1856.32 1538.79 1291.09 1744.97L1287.42 1746.32ZM779.19 305.362C884.611 659.87 1113.96 1299.26 1292.07 1735.78C1851.05 1530.21 2220.39 1077.75 2115.95 725.697C1938.21 290.652 1339.15 102.61 779.19 305.362Z" stroke="#A0A0A0" stroke-width="0.1" stroke-miterlimit="10"/>
<path d="M2072.82 1101.54C1919.1 725.337 1400.45 563.16 916.253 739.924L913.434 732.201C1401.8 553.844 1925.23 718.227 2080.54 1098.36L2072.82 1101.54Z" stroke="#A0A0A0" stroke-width="0.1" stroke-miterlimit="10"/>
<path d="M1292.72 1743.98L1286.83 1738.09C1681.79 1340.31 1917.76 728.995 1812.71 375.467L1820.68 373.016C1926.47 729.731 1689.64 1344.24 1292.72 1743.98Z" stroke="#A0A0A0" stroke-width="0.1" stroke-miterlimit="10"/>
<path d="M1293.82 1742.16L1285.73 1739.95C1415.3 1258.45 1435.16 578.485 1329.86 224.221L1337.83 221.893C1443.5 577.382 1423.64 1259.43 1293.82 1742.16Z" stroke="#A0A0A0" stroke-width="0.1" stroke-miterlimit="10"/>
<path d="M752.735 1845.85C593.378 1845.85 446.28 1815.94 327.252 1755.87C196.824 1690.29 109.055 1591.98 73.2607 1471.48C-0.288806 1290.43 5.59527 1091.47 91.7708 896.691C208.837 632.158 456.944 414.206 772.716 298.856L776.762 297.385L778.11 301.675C883.408 656.184 1114.72 1301.34 1293.57 1739.45L1295.16 1743.49L1291.12 1744.96C1118.86 1809.53 936.685 1843.66 752.735 1845.85ZM771.491 308.172C459.886 423.154 215.089 639.145 99.4935 900.123C14.2987 1092.7 7.92452 1289.45 81.2288 1468.78C116.41 1587.32 202.831 1683.92 331.052 1748.39C574.133 1870.98 930.235 1867.05 1284.38 1738.59C1106.26 1302.07 877.034 662.926 771.491 308.172Z" stroke="#A0A0A0" stroke-width="0.1" stroke-miterlimit="10"/>
<path d="M309.479 1745.46C245.368 1588.68 250.884 1416.81 325.291 1248.51C426.422 1019.89 640.819 831.728 913.687 732.191L916.507 739.914C645.968 838.716 433.287 1025.29 333.137 1251.82C259.587 1418.04 254.194 1587.69 317.324 1742.15L309.479 1745.46Z" stroke="#A0A0A0" stroke-width="0.1" stroke-miterlimit="10"/>
<path d="M1287.57 1744.6C848.114 1469.65 404.979 956.518 298.945 600.784L306.913 598.332C412.089 952.473 853.876 1463.52 1291.99 1737.49L1287.57 1744.6Z" stroke="#A0A0A0" stroke-width="0.1" stroke-miterlimit="10"/>
<path d="M1289.38 1745.21C711.28 1701.58 154.755 1376 48.8437 1019.65L56.8119 1017.2C161.865 1370.73 714.957 1693.48 1289.99 1736.88L1289.38 1745.21Z" stroke="#A0A0A0" stroke-width="0.1" stroke-miterlimit="10"/>
<path d="M1100.39 2189.82C1037.24 2189.99 974.189 2184.58 911.985 2173.64C860.257 2164.57 809.222 2151.91 759.247 2135.77C705.402 2118.2 652.987 2096.52 602.465 2070.92C579.542 2058.66 553.432 2045.05 534.186 2033.16C517.515 2022.74 475.469 1996.39 445.436 1973.71C391.812 1933.68 341.921 1888.88 296.376 1839.85C279.95 1822.08 257.149 1796.58 241.336 1775.62C216.82 1743.38 187.032 1700.48 166.806 1668.85C137.846 1619.59 111.972 1568.58 89.3337 1516.11L87.0046 1511.09C85.0433 1506.43 83.205 1501.52 81.3663 1496.62C66.2887 1456.9 47.4109 1400.15 42.9979 1380.9C41.1592 1372.94 39.0753 1364.23 36.8688 1355.28C31.7203 1334.32 26.4488 1312.75 23.3843 1293.99C16.7648 1253.78 11.1262 1200.71 7.44871 1164.42C4.23596 1123.63 3.99018 1082.66 6.71324 1041.84C10.9673 986.51 18.0865 931.437 28.0425 876.844C34.7873 841.068 44.003 805.802 55.6235 771.3C57.7074 765.294 59.9143 759.042 62.1208 752.055C68.4951 733.3 75.7271 712.093 82.4691 695.667C90.9273 674.705 106.986 635.234 122.677 606.304C147.426 556.763 176.121 509.293 208.484 464.354C238.525 422.02 271.585 381.913 307.408 344.346C341.299 308.482 377.718 275.095 416.384 244.441C453.523 214.716 492.59 187.484 533.328 162.923C573.417 138.448 615.154 116.78 658.239 98.0773C664.491 95.6257 671.478 92.6837 678.588 89.6191C694.156 82.9997 710.214 76.2577 724.066 71.7222C809.874 43.2831 817.106 40.954 858.907 31.8829C903.037 22.444 962.857 14.231 994.483 10.1857C1009.07 8.347 1026.72 7.48894 1043.52 6.75344C1050.87 6.75344 1058.1 6.14039 1064.6 5.65006C1112.3 4.24521 1160.05 5.92405 1207.53 10.676C1257.38 15.628 1306.82 24.0659 1355.49 35.9279C1407.42 48.3411 1458.32 64.7339 1507.74 84.9609C1656.81 144.763 1790.78 236.866 1900 354.642C1918.88 375.481 1940.21 399.385 1955.04 418.876L1955.77 419.979C1982.36 453.797 2006.92 489.163 2029.32 525.89C2055.56 572.104 2087.67 635.479 2109 683.531C2123.02 717.365 2135.3 751.898 2145.78 786.991C2160.52 838.392 2171.98 890.676 2180.1 943.529C2187.4 1000.69 2191 1058.26 2190.89 1115.88C2189.48 1220.26 2172.67 1323.85 2141 1423.32C2123.38 1480.12 2100.95 1535.32 2073.94 1588.31C2003.32 1728.66 1903.22 1852.09 1780.48 1950.18C1706.39 2009.17 1625.02 2058.4 1538.38 2096.66C1459.07 2128.78 1442.52 2135.52 1405.38 2145.7L1385.15 2151.33C1368.85 2155.87 1351.93 2160.53 1337.59 2163.59C1280.35 2174.62 1234.74 2181.98 1202.02 2185.29C1168.24 2188.52 1134.32 2190.04 1100.39 2189.82ZM95.2182 1507.78L97.5473 1512.68C119.956 1564.83 145.626 1615.51 174.406 1664.44C194.51 1695.94 224.297 1738.6 247.956 1770.59C263.646 1791.31 286.324 1816.68 302.505 1834.34C347.821 1882.9 397.377 1927.33 450.585 1967.09C480.372 1989.53 522.05 2016.13 538.722 2026.05C557.722 2038.31 583.587 2051.55 606.387 2063.56C702.894 2112.6 806.187 2146.93 912.844 2165.43C1008.06 2182 1105.07 2185.71 1201.28 2176.46C1233.76 2173.15 1279.12 2165.92 1336.12 2154.89C1350.09 2152.19 1366.77 2147.41 1382.82 2142.63C1390.06 2140.55 1397.04 2138.59 1403.3 2136.99C1440.07 2127.43 1456.37 2120.69 1535.32 2088.69C1621.13 2050.83 1701.71 2002.1 1775.09 1943.68C1853.64 1880.86 1923.07 1807.42 1981.39 1725.48C2047.55 1632.38 2098.75 1529.52 2133.15 1420.62C2164.33 1321.86 2180.85 1219.07 2182.19 1115.51C2182.32 1058.13 2178.71 1000.81 2171.4 943.897C2163.41 891.493 2152.07 839.657 2137.44 788.707C2128.37 759.9 2114.76 716.383 2101.4 686.228C2080.07 638.298 2048.2 575.291 2021.97 529.2C1999.53 492.813 1974.97 457.776 1948.42 424.269L1947.68 423.166C1933.1 403.921 1911.89 380.14 1893.14 359.423C1784.97 242.893 1652.41 151.685 1504.92 92.316C1455.91 72.1276 1405.42 55.735 1353.9 43.283C1305.5 31.6397 1256.35 23.447 1206.8 18.7665C1159.76 14.0199 1112.47 12.341 1065.21 13.7405L1043.88 14.8437C1026.97 15.5792 1009.44 16.3148 994.85 18.1535C963.224 22.1987 903.772 30.4119 860.01 39.7282C818.577 48.7993 811.59 51.0057 725.905 79.3222C712.421 83.7352 696.485 90.4773 681.04 96.9742L660.691 105.555C618.029 123.955 576.736 145.38 537.128 169.665C496.584 194.045 457.721 221.115 420.797 250.692C382.388 281.068 346.252 314.213 312.679 349.862C277.147 387.106 244.371 426.887 214.613 468.889C182.601 513.488 154.155 560.542 129.541 609.614C114.463 638.543 98.0373 677.77 89.5791 698.486C82.9597 714.79 75.8497 735.874 69.4754 754.384C67.2689 761.249 64.9401 767.745 62.8562 773.752C51.4602 807.908 42.4086 842.803 35.7652 878.192C25.8661 932.704 18.8288 987.696 14.6814 1042.94C11.932 1083.23 12.1367 1123.67 15.2942 1163.93C18.7265 1200.09 24.6103 1252.93 31.2297 1292.89C34.1717 1310.91 39.443 1332.24 44.4689 1352.95C46.7979 1362.03 48.8819 1370.85 50.7207 1378.82C52.5594 1386.79 55.1336 1395.25 59.0562 1407.5C56.212 1386.95 54.7788 1366.23 54.7661 1345.48C54.7661 1012.91 404.984 632.537 905.488 449.767L908.307 457.612C411.113 639.156 62.4881 1016.1 62.4881 1345.11C62.3497 1387.1 68.3377 1428.9 80.2627 1469.16C82.7144 1477.38 85.4116 1485.59 88.3536 1493.68L93.7473 1507.78L95.2182 1507.78Z" stroke="#A0A0A0" stroke-width="0.1" stroke-miterlimit="10"/>
</g>
<path d="M91.5476 1509.36C114.763 1563.39 141.333 1615.92 171.104 1666.63C191.943 1699.6 221.853 1742.02 245.389 1773.15C260.589 1793.26 283.021 1818.51 300.183 1837.14C345.632 1885.9 395.354 1930.49 448.752 1970.39C474.127 1989.64 510.044 2012.8 537.135 2029.6C556.993 2041.86 584.451 2056.32 605.045 2067.23C655.439 2092.67 707.686 2114.27 761.338 2131.83C811.051 2147.96 861.846 2160.53 913.34 2169.46C1008.91 2186.19 1106.3 2189.94 1202.88 2180.62C1243.33 2176.45 1297.39 2166.64 1337.72 2158.92C1358.31 2154.88 1385.04 2146.66 1405.26 2141.27C1441.92 2131.71 1458.46 2125.09 1537.78 2092.97C1623.96 2054.87 1704.91 2005.89 1778.65 1947.22C1817.06 1916.63 1853.27 1883.37 1887.01 1847.68C1922.64 1810.35 1955.42 1770.4 1985.08 1728.17C2112.83 1549.19 2183.39 1335.72 2187.46 1115.87C2187.57 1058.49 2183.92 1001.16 2176.55 944.252C2168.54 891.601 2157.16 839.519 2142.48 788.327C2132.09 753.515 2119.9 719.268 2105.95 685.725C2084.49 637.428 2052.62 574.42 2026.51 528.452C2003.86 491.516 1979.06 455.946 1952.23 421.928C1936.9 401.702 1914.35 376.572 1897.43 357.94C1788.63 240.183 1655.02 148.069 1506.27 88.2581C1456.98 68.0448 1406.2 51.6522 1354.39 39.2251C1306.02 27.3742 1256.86 18.9766 1207.29 14.0957C1160.01 9.3476 1112.47 7.66893 1064.97 9.06992C1043.89 10.4183 1015.7 10.9086 994.857 13.6054C954.405 18.7539 902.062 26.354 860.017 35.3026C817.971 44.2511 810.984 46.5801 725.176 74.8967C705.072 81.5161 679.208 93.284 659.594 101.252C616.657 119.794 575.08 141.34 535.173 165.73C494.641 190.278 455.742 217.426 418.72 247.002C380.157 277.422 343.897 310.651 310.234 346.417C274.748 383.876 241.976 423.816 212.168 465.935C179.801 510.742 151.106 558.091 126.361 607.518C112.754 633.382 97.3084 669.299 86.2759 696.512C77.2048 718.7 67.3982 749.223 59.4303 771.901C48.038 806.234 38.9471 841.289 32.2174 876.831C22.4529 931.799 15.5789 987.242 11.6236 1042.93C8.86355 1083.43 9.10935 1124.07 12.3591 1164.53C16.0366 1203.39 21.9204 1255.24 28.2947 1293.86C32.585 1319.72 41.9016 1353.8 47.7856 1379.66C52.8115 1401.36 76.1022 1470.38 91.5476 1509.36ZM91.5476 1509.36C86.3992 1497.1 81.8629 1483.61 77.8177 1470.38M91.5476 1509.36C86.3992 1496.61 81.8629 1483.61 77.8177 1470.38M77.8177 1470.38C-27.6032 1114.89 344.925 659.247 908.069 453.677C344.925 659.247 -27.6032 1115.62 77.8177 1470.38Z" stroke="#A0A0A0" stroke-width="0.1" stroke-miterlimit="10"/>
<mask id="mask1_279_10660" style="mask-type:luminance" maskUnits="userSpaceOnUse" x="9" y="10" width="2179" height="2176">
<path d="M2106.16 685.364C2135.21 758.914 2135.21 758.914 2164.14 874.141C2172.7 911.437 2178.64 949.284 2181.92 987.407C2186.51 1030.07 2188.35 1072.98 2187.43 1115.87C2186.09 1141.25 2185.47 1174.96 2182.65 1200.21C2178.73 1235.51 2172.6 1282.59 2165 1317.28C2141.76 1430.03 2100.63 1538.33 2043.15 1638.08C1988.83 1732.65 1920.7 1818.58 1841.02 1893.05C1769.14 1960.27 1688.38 2017.32 1601 2062.58C1559.17 2084.11 1516.06 2103.07 1471.92 2119.33C1451.82 2125.95 1425.46 2136.01 1404.99 2141.28C1322.74 2162.85 1314.16 2165.06 1270.15 2171.8C1249.68 2174.99 1222.46 2179.28 1201.87 2180.63C1160.81 2183.2 1105.89 2185.04 1064.7 2185.04C1017.48 2183.36 970.402 2178.82 923.731 2171.43C872.37 2163.21 821.687 2151.21 772.096 2135.52C724.646 2120.07 678.112 2101.94 632.72 2081.21C575.873 2054.41 521.448 2022.75 470.053 1986.58C418.004 1950.12 369.31 1909.1 324.547 1864C307.263 1845.73 283.85 1821.7 267.914 1802.7C244.624 1774.14 214.223 1735.41 194.365 1704.64C180.023 1682.94 161.145 1653.64 149.009 1631.09C130.131 1595.66 106.841 1547.36 90.9052 1510.59C223.417 1835.07 747.703 1939.63 1289.76 1742.27C747.703 1940.24 223.294 1835.07 90.9052 1510.59C81.834 1485.34 68.3502 1452.12 60.5049 1426.5C50.9435 1395.48 40.8917 1352.95 32.9239 1321.69C24.4684 1284.42 18.5706 1246.62 15.272 1208.55C10.6821 1165.85 8.83938 1122.89 9.7556 1079.96C11.104 1054.71 11.717 1020.87 14.4138 995.743C18.3364 960.44 24.4657 913.245 32.1884 878.554C55.4006 765.854 96.4947 657.594 153.913 557.879C182.097 509.033 213.894 462.362 249.037 418.257C281.948 377.297 317.708 338.71 356.051 302.784C427.957 235.579 508.76 178.576 596.191 133.375C638.007 111.816 681.115 92.8616 725.27 76.6197C745.373 70.0003 771.728 59.8259 792.077 54.5548C883.033 30.7738 883.033 30.7738 926.918 24.0317C947.267 20.8446 974.603 16.5543 995.196 15.3285C1036.26 12.6316 1091.06 10.793 1132.24 10.793C1179.47 12.4619 1226.54 17.0059 1273.21 24.3996C1324.58 32.6041 1375.26 44.6092 1424.85 60.3162C1472.33 75.7829 1518.9 93.913 1564.35 114.62C1621.13 141.462 1675.51 173.122 1726.89 209.254C1778.96 245.728 1827.7 286.75 1872.52 331.836C1889.68 350.101 1913.09 374.127 1929.03 393.128C1952.32 421.689 1982.72 460.425 2002.58 491.194C2043.67 552.195 2078.38 617.261 2106.16 685.364Z" fill="white"/>
</mask>
<g mask="url(#mask1_279_10660)">
<path d="M960.03 1979.21C558.94 1979.21 203.941 1791.42 73.3902 1471.97C-32.7662 1114.52 340.743 656.182 906.338 449.753L910.138 448.404L911.609 452.082C1090.58 890.314 1322.02 1535.59 1427.44 1890.71L1428.54 1894.51L1424.86 1895.74C1275.99 1950.53 1118.66 1978.79 960.03 1979.21ZM905.113 459.191C346.014 664.762 -23.3272 1117.34 81.2357 1469.39C258.735 1904.19 857.918 2092.36 1417.38 1889.61C1312.45 1534.73 1083.1 895.34 905.113 458.946L905.113 459.191Z" stroke="#A0A0A0" stroke-width="0.1" stroke-miterlimit="10"/>
<path d="M882.544 1534.48C536.125 1534.48 229.302 1372.31 116.648 1096.25L124.248 1093.06C277.967 1469.27 796.736 1631.45 1280.81 1454.68L1283.63 1462.53C1155.16 1509.72 1019.41 1534.07 882.544 1534.48Z" stroke="#A0A0A0" stroke-width="0.1" stroke-miterlimit="10"/>
<path d="M376.39 1821.71C270.601 1465.49 507.553 850.493 904.475 450.752L910.359 456.636C515.276 854.416 279.304 1465.24 384.357 1819.26L376.39 1821.71Z" stroke="#A0A0A0" stroke-width="0.1" stroke-miterlimit="10"/>
<path d="M859.238 1972.86C753.695 1617.37 773.431 935.319 903.369 452.834L911.336 455.04C781.766 936.544 762.031 1616.51 867.207 1970.77L859.238 1972.86Z" stroke="#A0A0A0" stroke-width="0.1" stroke-miterlimit="10"/>
<path d="M1420.3 1897.34L1419.07 1893.05C1313.65 1538.18 1082.46 893.147 903.611 455.282L901.895 451.237L905.939 449.766C1263.51 319.093 1623.91 314.925 1869.93 438.734C2000.23 504.315 2088.13 602.627 2123.92 723.125C2197.47 904.302 2191.46 1103.13 2105.41 1297.91C1988.34 1562.69 1740.11 1780.52 1424.46 1895.75L1420.3 1897.34ZM912.805 456.14C1090.79 892.411 1320.02 1531.68 1425.81 1886.56C1737.29 1771.57 1982.21 1555.58 2097.81 1294.6C2183 1102.03 2189.38 905.283 2116.07 725.945C2080.77 607.285 1994.47 510.69 1866.13 446.211C1623.17 323.996 1267.07 327.674 912.805 456.14Z" stroke="#A0A0A0" stroke-width="0.1" stroke-miterlimit="10"/>
<path d="M1283.62 1462.53L1280.8 1454.69C1551.34 1355.88 1764.02 1169.31 1864.17 942.781C1937.72 776.559 1943.24 607.028 1879.98 452.451L1887.58 449.387C1951.69 606.292 1946.18 778.153 1871.77 946.336C1770.64 1174.71 1556 1362.87 1283.62 1462.53Z" stroke="#A0A0A0" stroke-width="0.1" stroke-miterlimit="10"/>
<path d="M1890.32 1596.4C1785.15 1242.26 1343.24 731.21 905.25 457.116L909.664 450.129C1349.12 725.081 1792.26 1238.21 1898.29 1593.95L1890.32 1596.4Z" stroke="#A0A0A0" stroke-width="0.1" stroke-miterlimit="10"/>
<path d="M2140.24 1177.52C2035.31 824.118 1482.1 501.236 907.062 457.719L907.675 449.506C1485.9 493.145 2042.42 818.724 2148.21 1175.07L2140.24 1177.52Z" stroke="#A0A0A0" stroke-width="0.1" stroke-miterlimit="10"/>
<path d="M2116.08 725.932C2090.25 662.844 2055.26 603.903 2012.26 551.006C1969.71 508.2 1920.33 472.779 1866.14 446.198C1622.2 323.616 1264.26 327.661 908.77 457.599L905.093 458.947L903.622 455.269C876.041 387.849 852.75 332.687 832.891 287.086C813.768 293.215 794.646 299.753 775.523 306.7L771.355 308.17L770.129 304.003C703.199 78.6961 717.173 73.7928 723.915 71.096C730.657 68.3991 744.755 64.1086 837.55 276.667C1300.05 132.877 1777.88 248.841 2018.26 544.877C2067.44 594.678 2103.72 655.736 2123.93 722.744L2116.08 725.932ZM1444.46 348.868C1603.81 348.868 1750.91 378.778 1869.94 438.721C1903.36 455.419 1935.13 475.244 1964.82 497.928C1714.99 243.815 1271.61 151.142 840.859 284.635C860.349 329.255 883.15 383.314 909.751 448.405C1080.92 384.676 1261.82 351.002 1444.46 348.868ZM726.857 79.1863C724.406 84.8251 723.548 117.064 776.748 297.015C794.4 290.641 812.052 284.757 829.704 279.118C753.335 104.561 731.883 82.2509 726.857 80.0444L726.857 79.1863Z" stroke="#A0A0A0" stroke-width="0.1" stroke-miterlimit="10"/>
<path d="M1879.99 452.208C1726.27 76.1248 1207.63 -86.1745 723.425 90.7121L720.605 82.8668C1208.97 -95.4908 1732.4 68.8924 1887.71 449.143L1879.99 452.208Z" stroke="#A0A0A0" stroke-width="0.1" stroke-miterlimit="10"/>
<path d="M910.369 456.63L904.484 450.746C1147.57 205.581 1405.85 88.27 1594.75 135.832C1705.07 163.536 1782.79 245.543 1820.67 373.029L1812.7 375.481C1775.92 250.814 1699.68 170.768 1592.79 143.922C1406.21 96.8508 1151.49 213.917 910.369 456.63Z" stroke="#A0A0A0" stroke-width="0.1" stroke-miterlimit="10"/>
<path d="M911.346 454.785L903.379 452.579C979.135 171.252 1077.69 9.07543 1173.92 7.84961L1175.02 7.84961C1239.99 7.84961 1296.26 81.3992 1337.81 221.879L1329.84 224.208C1289.39 88.0185 1235.94 15.8174 1175.02 15.8174L1174.04 15.8174C1083.21 17.2884 985.018 181.304 911.346 454.785Z" stroke="#A0A0A0" stroke-width="0.1" stroke-miterlimit="10"/>
<path d="M73.3619 1471.96C-0.187561 1290.42 5.57381 1091.96 91.7493 896.685C208.325 633.132 455.084 415.917 769.018 300.199C703.313 78.6921 717.165 73.7887 723.907 71.4597C730.649 69.1306 751.979 62.1434 911.214 451.465L912.807 455.511L908.762 456.982C347.702 661.817 -23.6006 1115.62 81.2074 1468.53L73.3619 1471.96ZM726.849 80.0404C724.275 85.8018 723.539 118.409 778.089 302.16L779.192 305.837L775.515 307.186C461.949 421.678 215.435 638.158 99.3494 900.608C23.5934 1072.22 10.1093 1246.17 59.51 1408.83C11.4577 1063.52 371.728 646.739 901.897 451.711C765.831 118.286 733.223 82.8598 726.849 80.0404Z" stroke="#A0A0A0" stroke-width="0.1" stroke-miterlimit="10"/>
<path d="M116.65 1096.25C52.5398 939.343 58.0557 767.483 132.463 599.299C233.594 370.683 447.991 182.519 720.859 82.8594L723.678 90.7046C453.139 189.506 240.459 376.077 140.309 602.609C66.7593 768.709 61.3652 938.363 124.495 1092.94L116.65 1096.25Z" stroke="#A0A0A0" stroke-width="0.1" stroke-miterlimit="10"/>
<path d="M298.929 600.792C258.354 463.99 271.715 365.311 337.542 315.297C438.182 238.561 652.089 289.065 909.635 450.138L905.221 457.125C650.74 297.768 440.389 247.387 342.568 322.284C279.683 370.092 267.302 465.706 306.896 598.831L298.929 600.792Z" stroke="#A0A0A0" stroke-width="0.1" stroke-miterlimit="10"/>
<path d="M48.849 1019.65C12.0742 895.106 33.5265 778.408 111.244 682.058C250.62 509.339 548.128 422.305 908.03 449.151L907.417 457.364C550.947 430.518 255.646 516.204 118.108 686.838C42.1073 780.982 21.0231 895.229 56.8171 1016.83L48.849 1019.65Z" stroke="#A0A0A0" stroke-width="0.1" stroke-miterlimit="10"/>
<path d="M1470.95 2123.74C1463.22 2123.74 1442.14 2106.95 1359.52 1917.68C896.893 2061.47 418.945 1945.39 178.683 1649.23C129.538 1599.49 93.3398 1538.46 73.2617 1471.48L81.1072 1468.79C106.888 1531.77 141.789 1590.63 184.69 1643.47C227.215 1686.39 276.65 1721.86 330.93 1748.4C574.992 1870.98 932.81 1866.93 1288.3 1737.12L1292.1 1735.77L1293.57 1739.45C1321.15 1806.87 1344.44 1862.03 1364.18 1907.63C1383.38 1901.5 1402.55 1894.96 1421.67 1888.02L1425.84 1886.55L1427.06 1890.71C1493.87 2115.9 1479.9 2120.8 1473.28 2123.62C1472.51 2123.8 1471.72 2123.84 1470.95 2123.74ZM1367.49 1915.35C1443.73 2089.91 1465.55 2112.59 1470.33 2115.16C1472.79 2109.52 1473.64 2077.28 1420.32 1897.46C1402.79 1903.71 1385.14 1909.59 1367.49 1915.23L1367.49 1915.35ZM232.129 1696.54C481.952 1950.78 925.578 2043.57 1356.33 1910.08C1336.97 1865.46 1314.16 1811.4 1287.56 1746.31C931.217 1875.64 572.541 1879.19 327.376 1755.87C293.833 1739.13 261.942 1719.27 232.129 1696.54Z" stroke="#A0A0A0" stroke-width="0.1" stroke-miterlimit="10"/>
<path d="M1075.37 2183.69C728.954 2183.69 422.13 2021.51 309.477 1745.46L317.077 1742.39C470.795 2118.6 989.565 2280.77 1473.64 2104.01L1476.46 2111.73C1348 2158.98 1212.25 2183.33 1075.37 2183.69Z" stroke="#A0A0A0" stroke-width="0.1" stroke-miterlimit="10"/>
<path d="M1193.79 2099.72C990.672 2099.72 810.843 2004.6 744.648 1842.3L752.371 1839.24C841.856 2058.17 1143.78 2152.43 1425.84 2049.47L1428.66 2057.19C1353.46 2085.01 1273.97 2099.41 1193.79 2099.72Z" stroke="#A0A0A0" stroke-width="0.1" stroke-miterlimit="10"/>
<path d="M689.739 2069.2C660.287 2069.34 630.931 2065.84 602.337 2058.78C492.013 2031.08 414.419 1949.07 376.418 1821.71L384.385 1819.26C421.16 1943.8 497.529 2023.85 605.034 2050.81C791.114 2097.64 1046.33 1980.82 1287.45 1738.11L1293.33 1743.99C1085.31 1952.87 866.87 2069.2 689.739 2069.2Z" stroke="#A0A0A0" stroke-width="0.1" stroke-miterlimit="10"/>
<path d="M1022.07 2186.75C957.099 2186.75 900.955 2113.2 859.277 1972.85L867.246 1970.52C907.698 2106.58 961.266 2178.91 1022.07 2178.91L1023.05 2178.91C1114 2177.8 1212.19 2013.91 1285.74 1740.43L1293.83 1742.64C1218.08 2024.58 1119.4 2186.02 1023.17 2187.24L1022.07 2186.75Z" stroke="#A0A0A0" stroke-width="0.1" stroke-miterlimit="10"/>
<path d="M1470.94 2123.75C1461.38 2123.75 1430.85 2097.52 1285.84 1742.64L1284.25 1738.59L1288.29 1737.12C1849.47 1532.29 2220.78 1078.37 2115.97 725.573L2123.69 722.754C2197.85 904.299 2191.48 1102.76 2105.43 1297.91C1988.73 1561.59 1742.09 1778.8 1428.16 1894.52C1493.74 2116.03 1479.89 2120.81 1473.27 2123.26C1472.53 2123.56 1471.74 2123.73 1470.94 2123.75ZM1295.16 1743.74C1431.34 2076.68 1463.83 2111.49 1470.33 2115.29C1472.78 2109.65 1473.64 2076.92 1419.09 1893.29L1417.98 1889.62L1421.66 1888.27C1735.23 1773.78 1981.62 1557.3 2097.83 1294.85C2173.58 1123.23 2186.94 949.286 2137.54 786.619C2185.72 1131.69 1825.69 1548.47 1295.16 1743.5L1295.16 1743.74Z" stroke="#A0A0A0" stroke-width="0.1" stroke-miterlimit="10"/>
<path d="M1476.45 2111.74L1473.63 2104.02C1744.17 2005.22 1956.85 1818.65 2057 1591.99C2130.55 1425.89 2136.06 1256.24 2072.81 1101.66L2080.41 1098.47C2144.52 1255.38 2139.01 1427.24 2064.6 1595.55C1963.47 1824.04 1749.19 2012.2 1476.45 2111.74Z" stroke="#A0A0A0" stroke-width="0.1" stroke-miterlimit="10"/>
<path d="M1428.66 2057.55L1425.84 2049.83C1583.48 1992.34 1707.78 1883.61 1765.63 1751.71C1808.42 1655.12 1811.6 1556.44 1774.83 1466.46L1782.55 1463.4C1820.18 1555.46 1816.87 1656.34 1773.23 1755.02C1713.9 1889 1588.38 1999.33 1428.66 2057.55Z" stroke="#A0A0A0" stroke-width="0.1" stroke-miterlimit="10"/>
<path d="M1736.45 1914.49C1623.06 1914.49 1465.79 1856.02 1287.55 1744.59L1291.97 1737.48C1546.33 1896.84 1756.68 1947.34 1854.62 1872.32C1917.38 1824.52 1929.76 1728.9 1890.29 1595.9L1898.26 1593.45C1938.84 1730.13 1925.47 1828.81 1859.53 1878.94C1828.51 1902.97 1786.83 1914.49 1736.45 1914.49Z" stroke="#A0A0A0" stroke-width="0.1" stroke-miterlimit="10"/>
<path d="M1416.66 1750.12C1375.35 1750.12 1332.81 1748.53 1289.42 1745.22L1289.42 1736.89C1646.13 1763.85 1941.19 1678.05 2078.85 1507.41C2154.73 1413.27 2175.81 1299.02 2140.14 1177.54L2148.11 1175.09C2184.88 1299.51 2163.55 1416.21 2085.71 1512.56C1963.38 1664.56 1718.33 1750.12 1416.66 1750.12Z" stroke="#A0A0A0" stroke-width="0.1" stroke-miterlimit="10"/>
<path d="M1287.42 1746.31L1285.82 1742.64C1106.85 1304.28 875.54 658.886 770.119 304.009L769.016 300.209L772.693 298.861C1337.8 92.4319 1943.97 282.68 2123.67 722.751C2230.2 1080.2 1856.32 1538.78 1291.09 1744.97L1287.42 1746.31ZM779.19 305.358C884.611 659.866 1113.96 1299.26 1292.07 1735.77C1851.05 1530.2 2220.39 1077.75 2115.95 725.693C1938.21 290.648 1339.15 102.606 779.19 305.358Z" stroke="#A0A0A0" stroke-width="0.1" stroke-miterlimit="10"/>
<path d="M2072.82 1101.54C1919.1 725.333 1400.45 563.156 916.253 739.92L913.434 732.197C1401.8 553.84 1925.23 718.223 2080.54 1098.35L2072.82 1101.54Z" stroke="#A0A0A0" stroke-width="0.1" stroke-miterlimit="10"/>
<path d="M1774.84 1466.47C1685.35 1247.53 1383.31 1153.27 1101.37 1256.24L1098.55 1248.39C1384.66 1143.95 1691.48 1240.42 1782.56 1463.4L1774.84 1466.47Z" stroke="#A0A0A0" stroke-width="0.1" stroke-miterlimit="10"/>
<path d="M1292.72 1743.97L1286.83 1738.09C1681.79 1340.31 1917.76 728.991 1812.71 375.464L1820.68 373.012C1926.47 729.727 1689.64 1344.23 1292.72 1743.97Z" stroke="#A0A0A0" stroke-width="0.1" stroke-miterlimit="10"/>
<path d="M1293.82 1742.16L1285.73 1739.95C1415.3 1258.45 1435.16 578.481 1329.86 224.218L1337.83 221.889C1443.5 577.378 1423.64 1259.43 1293.82 1742.16Z" stroke="#A0A0A0" stroke-width="0.1" stroke-miterlimit="10"/>
<path d="M752.735 1845.84C593.378 1845.84 446.28 1815.93 327.252 1755.87C196.824 1690.29 109.055 1591.97 73.2607 1471.48C-0.288806 1290.42 5.59527 1091.47 91.7708 896.687C208.837 632.154 456.944 414.202 772.716 298.852L776.762 297.381L778.11 301.671C883.408 656.18 1114.72 1301.33 1293.57 1739.44L1295.16 1743.49L1291.12 1744.96C1118.86 1809.52 936.685 1843.66 752.735 1845.84ZM771.491 308.168C459.886 423.151 215.089 639.141 99.4935 900.119C14.2987 1092.7 7.92452 1289.44 81.2288 1468.78C116.41 1587.32 202.831 1683.91 331.052 1748.39C574.133 1870.97 930.235 1867.05 1284.38 1738.58C1106.26 1302.07 877.034 662.922 771.491 308.168Z" stroke="#A0A0A0" stroke-width="0.1" stroke-miterlimit="10"/>
<path d="M309.479 1745.45C245.368 1588.67 250.884 1416.81 325.291 1248.51C426.422 1019.89 640.819 831.724 913.687 732.188L916.507 739.91C645.968 838.712 433.287 1025.28 333.137 1251.81C259.587 1418.04 254.194 1587.69 317.324 1742.14L309.479 1745.45Z" stroke="#A0A0A0" stroke-width="0.1" stroke-miterlimit="10"/>
<path d="M744.649 1842.66C707.139 1750.6 710.326 1649.71 753.965 1551.03C813.295 1417.05 938.819 1306.72 1098.54 1248.38L1101.36 1256.22C943.722 1313.71 819.424 1422.44 761.565 1554.34C718.784 1650.94 715.597 1749.61 752.372 1839.59L744.649 1842.66Z" stroke="#A0A0A0" stroke-width="0.1" stroke-miterlimit="10"/>
<path d="M1287.57 1744.6C848.114 1469.64 404.979 956.514 298.945 600.78L306.913 598.328C412.089 952.469 853.876 1463.52 1291.99 1737.49L1287.57 1744.6Z" stroke="#A0A0A0" stroke-width="0.1" stroke-miterlimit="10"/>
<path d="M1289.38 1745.21C711.28 1701.57 154.755 1375.99 48.8437 1019.64L56.8119 1017.19C161.865 1370.72 714.957 1693.48 1289.99 1736.88L1289.38 1745.21Z" stroke="#A0A0A0" stroke-width="0.1" stroke-miterlimit="10"/>
<path d="M1065.69 2189.21C1018.16 2187.7 970.754 2183.36 923.738 2176.21C872.147 2167.75 821.257 2155.46 771.49 2139.44C723.9 2123.84 677.207 2105.63 631.624 2084.89C574.559 2057.92 519.894 2026.14 468.221 1989.89C415.951 1953.11 367.053 1911.76 322.103 1866.33L313.4 1857.13C297.096 1840.09 278.832 1820.36 265.347 1804.42C247.328 1782.36 213.74 1740.31 191.184 1706.36C170.591 1675.34 155.268 1650.21 145.584 1631.95C130.384 1603.39 112.487 1566.73 97.7767 1534.5C94.0992 1526.77 90.5446 1518.93 87.3574 1510.96C84.1703 1502.99 80.9832 1493.8 77.4283 1484.48C69.9508 1464.62 62.1056 1444.15 56.8345 1426.62C48.7441 1400.39 40.4084 1366.93 33.0535 1337.38L29.1308 1321.57C20.7214 1284.09 14.8243 1246.08 11.4788 1207.81C6.7019 1164.92 4.85873 1121.75 5.96248 1078.61C5.96248 1071.5 6.69819 1063.53 6.94335 1055.44C7.80143 1035.22 8.78206 1012.29 10.7434 994.152C14.5434 960.319 20.5501 912.512 28.518 876.595C51.8875 763.426 93.275 654.742 151.101 554.694C205.585 459.738 273.966 373.466 353.974 298.741C426.151 231.187 507.286 173.893 595.094 128.474C637.072 106.866 680.345 87.8709 724.664 71.5959L745.258 64.4861C761.193 58.8473 777.742 53.086 791.839 49.4085C882.918 25.6275 882.918 25.6275 926.679 18.8854C947.273 15.5757 974.61 11.4079 995.326 10.0595C1036.76 7.36265 1091.19 5.64649 1131.15 5.64649L1132.62 5.64649C1180 7.09266 1227.24 11.4732 1274.08 18.7629C1325.48 27.3604 1376.2 39.6505 1425.84 55.5377C1473.48 71.0905 1520.22 89.3021 1565.82 110.087C1622.93 136.903 1677.57 168.693 1729.1 205.088C1781.23 241.669 1829.97 282.859 1874.73 328.161L1883.68 337.477C1899.74 354.516 1918.13 373.639 1931.49 390.065C1949.63 412.253 1983.34 454.544 2005.77 488.131C2046.91 549.622 2081.7 615.131 2109.6 683.65C2138.65 757.2 2138.65 757.2 2167.71 872.918C2176.18 910.434 2182.12 948.481 2185.48 986.797C2190.25 1029.65 2192.09 1072.77 2191 1115.88C2191 1123.35 2190.38 1131.57 2190.01 1140.39C2189.16 1160.25 2188.3 1182.93 2186.34 1200.7C2182.54 1234.78 2176.29 1282.83 2168.56 1318.26C2145.09 1431.4 2103.71 1540.07 2045.98 1640.16C2017.71 1689.2 1985.79 1736.03 1950.49 1780.27C1917.49 1821.42 1881.56 1860.14 1842.98 1896.11C1771.05 1963.44 1690.21 2020.57 1602.72 2065.89C1560.72 2087.47 1517.45 2106.51 1473.15 2122.89L1452.68 2129.88C1436.75 2135.52 1420.2 2141.28 1405.98 2144.96L1404.87 2144.96C1361.02 2158.25 1316.34 2168.69 1271.14 2176.21L1270.03 2176.21C1250.17 2179.28 1222.96 2183.57 1202.49 2184.92C1160.69 2187.37 1106.14 2189.21 1065.69 2189.21ZM140.559 1605.59C144.481 1613.44 148.403 1620.92 152.081 1627.9C161.765 1646.05 176.597 1670.81 197.314 1701.45C219.624 1735.29 253.089 1777.09 270.863 1799.52C284.102 1815.7 302.367 1834.95 318.548 1851.86L327.251 1861.06C416.019 1950.54 519.728 2023.84 633.708 2077.66C678.927 2098.36 725.299 2116.46 772.594 2131.84C821.998 2147.42 872.472 2159.39 923.615 2167.63C970.087 2174.95 1016.96 2179.45 1063.97 2181.12L1065.69 2181.12C1105.41 2181.12 1159.83 2179.4 1201.51 2176.71C1221.49 2175.48 1248.58 2171.19 1268.32 2168.12L1269.3 2168.12C1314.25 2161.01 1358.68 2150.93 1402.3 2137.97L1403.4 2137.97C1417.25 2134.29 1433.68 2128.53 1449.49 2123.01L1470.21 2114.92C1514.2 2098.72 1557.15 2079.81 1598.8 2058.29C1685.85 2013.4 1766.32 1956.77 1837.96 1889.98C1876.22 1854.26 1911.86 1815.83 1944.61 1775C1979.63 1731.11 2011.31 1684.64 2039.36 1635.99C2096.56 1536.6 2137.53 1428.72 2160.72 1316.42C2168.44 1281.36 2174.57 1233.56 2178.37 1199.72C2180.21 1182.19 2181.19 1159.76 2181.92 1139.9C2181.92 1131.44 2182.66 1123.23 2183.03 1115.39C2184.06 1072.65 2182.21 1029.9 2177.51 987.41C2174.15 949.554 2168.3 911.962 2159.98 874.879C2130.93 759.161 2130.93 759.161 2102.12 686.47C2074.36 618.531 2039.82 553.561 1999.03 492.544C1976.97 459.079 1943.38 417.033 1925.48 394.478C1912.24 378.297 1894.1 359.174 1878.04 342.381L1869.09 333.064C1824.62 287.892 1776.12 246.862 1724.2 210.482C1673.08 174.64 1618.94 143.305 1562.39 116.829C1517.1 96.1872 1470.7 78.0984 1423.38 62.6475C1373.98 47.0484 1323.51 35.0851 1272.36 26.8534C1225.89 19.5212 1179.02 15.0182 1132.01 13.3692C1092.17 13.3692 1037.13 15.0854 995.203 17.7822C974.977 19.1306 947.764 23.2985 927.906 26.4857C883.899 33.3503 883.899 33.3502 793.065 56.8861C779.213 60.5635 762.91 66.3249 747.097 71.8411L726.38 78.951C682.53 95.1158 639.71 113.947 598.159 135.339C510.983 180.391 430.426 237.23 358.755 304.257C279.456 378.411 211.658 463.975 157.597 558.126C100.197 657.575 59.1405 765.597 35.9953 878.066C28.1501 913.86 22.0209 961.3 18.3434 994.887C16.3821 1012.78 15.4016 1035.58 14.6661 1055.57C14.6661 1063.78 14.6659 1071.75 13.6852 1078.98C12.5945 1121.71 14.3965 1164.47 19.0789 1206.95C22.475 1244.81 28.3719 1282.41 36.7308 1319.49L40.6535 1335.3C47.8859 1364.72 56.2213 1398.06 64.1892 1424.05C69.4602 1441.33 77.3054 1461.68 84.7829 1481.42L94.4674 1507.77C97.6546 1515.13 101.086 1522.85 104.764 1530.82C251.863 1836.29 761.929 1927.99 1284.25 1738.6L1284.99 1738.6L1286.95 1737.86L1289.77 1745.71C806.182 1922.1 330.929 1857.5 141.049 1605.59L140.559 1605.59Z" stroke="#A0A0A0" stroke-width="0.1" stroke-miterlimit="10"/>
</g>
<path d="M90.9052 1510.59C106.841 1547.36 130.131 1595.66 149.009 1631.09C161.145 1653.64 180.023 1682.94 194.365 1704.64C214.223 1735.4 244.624 1774.14 267.914 1802.7C283.85 1821.7 307.263 1845.73 324.547 1863.99C369.31 1909.1 418.004 1950.12 470.053 1986.58C521.448 2022.75 575.873 2054.41 632.72 2081.21C678.112 2101.94 724.646 2120.07 772.096 2135.51C821.687 2151.21 872.37 2163.21 923.731 2171.43C970.402 2178.81 1017.48 2183.36 1064.7 2185.04C1105.89 2185.04 1160.81 2183.2 1201.87 2180.62C1222.46 2179.28 1249.68 2174.99 1270.15 2171.8C1314.16 2165.06 1322.74 2162.85 1404.99 2141.27C1425.46 2136 1451.82 2125.95 1471.92 2119.33C1516.06 2103.07 1559.17 2084.11 1601 2062.58C1688.38 2017.31 1769.14 1960.27 1841.02 1893.05C1920.7 1818.58 1988.83 1732.64 2043.15 1638.07C2100.63 1538.33 2141.76 1430.02 2165 1317.28C2172.6 1282.58 2178.73 1235.51 2182.65 1200.21C2185.47 1174.96 2186.09 1141.25 2187.43 1115.87C2188.35 1072.98 2186.51 1030.07 2181.92 987.406C2178.64 949.282 2172.7 911.435 2164.14 874.139C2135.21 758.912 2135.21 758.912 2106.16 685.362C2078.38 617.259 2043.67 552.193 2002.58 491.192C1982.72 460.423 1952.32 421.687 1929.03 393.126C1913.09 374.125 1889.68 350.099 1872.52 331.834C1827.7 286.748 1778.96 245.726 1726.89 209.252C1675.51 173.12 1621.13 141.46 1564.35 114.618C1518.9 93.9111 1472.33 75.7809 1424.85 60.3143C1375.26 44.6072 1324.58 32.6021 1273.21 24.3977C1226.54 17.0039 1179.47 12.46 1132.24 10.791C1091.06 10.791 1036.26 12.6297 995.196 15.3265C974.603 16.5523 947.267 20.8426 926.918 24.0298C883.033 30.7718 883.033 30.7719 792.077 54.5529C771.728 59.8239 745.373 69.9983 725.27 76.6178C681.115 92.8597 638.007 111.814 596.191 133.374C508.76 178.574 427.957 235.577 356.051 302.782C317.708 338.708 281.948 377.295 249.037 418.255C213.894 462.36 182.097 509.031 153.913 557.877C96.4947 657.592 55.4006 765.853 32.1884 878.552C24.4657 913.243 18.3364 960.438 14.4138 995.741C11.717 1020.87 11.104 1054.7 9.7556 1079.96C8.83938 1122.89 10.6821 1165.84 15.272 1208.54C18.5706 1246.62 24.4684 1284.42 32.9239 1321.69C40.8917 1352.95 50.9435 1395.48 60.5049 1426.5C68.3502 1452.12 81.834 1485.34 90.9052 1510.59ZM90.9052 1510.59C223.417 1835.06 747.703 1939.63 1289.76 1742.27C747.703 1940.24 223.294 1835.06 90.9052 1510.59Z" stroke="#A0A0A0" stroke-width="0.1" stroke-miterlimit="10"/>
<mask id="mask2_279_10660" style="mask-type:luminance" maskUnits="userSpaceOnUse" x="1" y="1" width="2194" height="2194">
<path d="M83.4405 1512.43C217.055 1839.48 745.386 1945.39 1291.25 1745.34C745.141 1944.78 217.055 1838.87 83.4405 1512.43C67.8725 1473.2 44.4597 1403.58 39.4338 1381.76C33.4273 1355.77 23.9878 1321.32 19.6975 1294.97C13.3232 1256.11 7.43924 1203.89 3.63918 1164.66C0.38575 1123.88 0.13995 1082.91 2.90372 1042.08C6.96251 986.31 13.9184 930.787 23.7429 875.738C30.5811 839.902 39.7951 804.561 51.324 769.949C59.2918 747.026 69.2211 716.38 78.2923 693.948C89.4473 666.612 104.892 630.327 118.622 604.217C143.342 554.504 172.038 506.869 204.429 461.777C234.598 419.25 267.824 378.977 303.844 341.278C337.785 305.264 374.288 271.752 413.065 241.006C450.387 211.279 489.57 183.97 530.377 159.243C570.572 134.695 612.433 112.986 655.655 94.2743C675.514 86.3065 701.502 74.416 721.728 67.674C807.535 39.2348 815.258 36.9058 856.568 27.8347C897.879 18.7636 951.692 11.1633 992.757 5.89229C1013.84 3.31805 1041.79 2.82772 1063.49 1.47931C1111.31 0.07974 1159.18 1.75855 1206.79 6.50524C1310.22 16.9469 1411.66 41.9559 1508.09 80.7902C1561.85 102.333 1613.79 128.159 1663.41 158.017C1690.86 174.811 1726.41 198.837 1752.52 217.715C1772.26 232.057 1797.02 253.386 1816.02 268.709C1974.11 405.802 2089.6 585.318 2148.83 786.007C2163.56 837.626 2175.06 890.111 2183.28 943.158C2190 1000.58 2193.6 1058.31 2194.07 1116.12C2194.36 1156.5 2191.45 1196.83 2185.36 1236.74C2181.32 1261.26 2176.9 1294.6 2171.51 1319C2164.52 1351.11 2154.35 1393.65 2144.05 1424.78C2126.34 1481.83 2103.82 1537.27 2076.75 1590.52C2050.64 1642.74 2045.01 1651.81 1990.95 1732.96C1960.95 1775.61 1927.71 1815.9 1891.53 1853.46C1857.54 1889.38 1821.04 1922.85 1782.31 1953.61C1708.09 2012.9 1626.51 2062.35 1539.6 2100.7C1474.81 2128.94 1407.55 2151.14 1338.69 2167.02C1293.08 2177.44 1291.37 2177.56 1202.01 2188.96C1180.92 2191.66 1152.97 2193.13 1131.28 2193.5C979.164 2198.36 827.717 2171.35 686.669 2114.19C657.017 2102.59 628.005 2089.41 599.758 2074.72C558.325 2052.16 504.144 2019.68 464.917 1993.57C412.164 1956.89 362.921 1915.4 317.818 1869.64C269.013 1820.28 224.974 1766.44 186.287 1708.81C164.345 1675.59 137.254 1629.25 119.234 1594.07C108.079 1570.17 94.5955 1536.83 83.4405 1512.43Z" fill="white"/>
</mask>
<g mask="url(#mask2_279_10660)">
<path d="M1473.65 2131.34C1466.05 2131.34 1444.84 2114.54 1361.49 1923.81C895.673 2068.45 414.536 1951.88 172.436 1654.12C122.711 1604 86.0853 1542.41 65.7891 1474.79L73.6345 1471.97C99.662 1535.6 134.937 1595.03 178.32 1648.36C221.155 1691.46 270.868 1727.13 325.419 1753.91C571.319 1877.59 931.957 1873.3 1289.9 1742.63L1293.7 1741.16L1295.17 1744.96C1322.87 1812.75 1346.29 1868.4 1366.27 1914.12C1385.64 1907.99 1404.92 1901.41 1424.13 1894.39L1428.29 1892.92L1429.52 1897.08C1496.94 2124.11 1482.97 2129.01 1476.22 2131.34C1475.37 2131.49 1474.5 2131.49 1473.65 2131.34ZM1369.45 1921.23C1446.44 2097.51 1467.52 2120.18 1473.16 2122.76C1475.61 2117.12 1476.59 2084.88 1422.78 1903.21C1405.37 1909.59 1387.6 1915.59 1369.45 1921.23ZM225.759 1700.58C477.421 1956.78 924.479 2050.19 1358.18 1915.59C1338.56 1870.61 1315.64 1816.3 1288.92 1750.72C929.996 1880.9 568.622 1884.58 321.619 1760.4C287.846 1743.73 255.746 1723.86 225.759 1701.07L225.759 1700.58Z" stroke="#A0A0A0" stroke-width="0.1" stroke-miterlimit="10"/>
<path d="M1194.53 2107.33C989.939 2107.33 808.762 2011.47 742.199 1848.43L749.799 1845.24C839.897 2065.89 1144.27 2160.77 1428.29 2057.07L1431.11 2064.91C1355.33 2092.75 1275.26 2107.11 1194.53 2107.33Z" stroke="#A0A0A0" stroke-width="0.1" stroke-miterlimit="10"/>
<path d="M1075.26 2191.9C726.272 2191.9 417.242 2028.5 303.73 1750.61L311.331 1747.42C466.152 2126.32 988.844 2289.85 1475.86 2111.73L1478.81 2119.46C1349.55 2166.96 1212.97 2191.48 1075.26 2191.9Z" stroke="#A0A0A0" stroke-width="0.1" stroke-miterlimit="10"/>
<path d="M686.794 2076.55C657.132 2076.71 627.564 2073.17 598.78 2066C488.455 2038.18 409.39 1955.68 371.145 1826.97L379.112 1824.64C415.887 1950.16 493.114 2030.82 600.864 2057.55C788.66 2104.74 1045.59 1987.06 1288.31 1742.63L1294.19 1748.39C1085.19 1959.36 865.275 2076.55 686.794 2076.55Z" stroke="#A0A0A0" stroke-width="0.1" stroke-miterlimit="10"/>
<path d="M1021.57 2194.97C956.107 2194.97 898.984 2120.44 857.551 1979.35L865.518 1977.02C906.338 2114.19 960.152 2186.63 1021.57 2186.63L1022.55 2186.63C1114.24 2185.53 1213.16 2020.29 1287.2 1745.34L1295.17 1747.54C1218.92 2030.95 1119.63 2194.23 1022.67 2195.46L1021.57 2194.97Z" stroke="#A0A0A0" stroke-width="0.1" stroke-miterlimit="10"/>
<path d="M1473.65 2131.34C1464.08 2131.34 1433.44 2105.11 1287.44 1747.54L1285.73 1743.61L1289.77 1742.14C1855.12 1535.59 2229.12 1078.36 2123.33 722.745L2131.18 720.049C2205.83 902.942 2199.46 1103.24 2112.67 1299.5C1995.23 1565.01 1746.64 1783.82 1430.37 1900.15C1496.57 2123.5 1482.59 2128.4 1475.97 2130.73C1475.24 2131.06 1474.45 2131.27 1473.65 2131.34ZM1296.64 1748.39C1434.05 2084.39 1466.66 2119.57 1473.15 2122.76C1475.61 2117.12 1476.59 2084.39 1421.55 1898.92L1420.44 1895.25L1424 1893.9C1739.89 1778.55 1987.88 1560.6 2105.19 1296.06C2181.56 1123.47 2195.04 947.684 2145.15 783.669C2194.06 1131.68 1830.97 1551.89 1296.64 1748.39Z" stroke="#A0A0A0" stroke-width="0.1" stroke-miterlimit="10"/>
<path d="M1431.1 2064.91L1428.28 2057.07C1587.63 1999.09 1711.93 1889.62 1770.65 1756.74C1813.8 1659.29 1816.99 1560.61 1779.97 1469.41L1787.57 1466.22C1825.44 1559.02 1822.26 1660.64 1778.25 1760.42C1718.55 1895.01 1592.05 2006.07 1431.1 2064.91Z" stroke="#A0A0A0" stroke-width="0.1" stroke-miterlimit="10"/>
<path d="M1479.39 2119.34L1476.45 2111.61C1749.07 2012.08 1963.22 1824.03 2064.85 1595.79C2138.39 1428.46 2144.4 1257.58 2080.78 1101.66L2088.38 1098.59C2152.86 1256.6 2147.34 1429.56 2072.45 1599.22C1969.97 1829.43 1753.98 2019.06 1479.39 2119.34Z" stroke="#A0A0A0" stroke-width="0.1" stroke-miterlimit="10"/>
<path d="M1741.24 1920.74C1627.11 1920.74 1468.61 1861.78 1289.03 1749.13L1293.44 1742.14C1549.76 1902.48 1761.59 1953.47 1860.14 1878.33C1923.76 1830.52 1936.02 1734.17 1896.18 1600.07L1904.15 1597.62C1944.97 1735.4 1931.61 1834.81 1865.17 1885.32C1834.03 1909.1 1791.99 1920.74 1741.24 1920.74Z" stroke="#A0A0A0" stroke-width="0.1" stroke-miterlimit="10"/>
<path d="M1419.2 1755.01C1377.35 1755.01 1334.57 1753.38 1290.85 1750.11L1290.85 1741.9C1650.02 1768.99 1947.4 1682.57 2086.04 1510.71C2162.66 1415.7 2184.11 1300.72 2147.34 1178.02L2155.3 1175.69C2192.08 1301.09 2170.87 1418.77 2092.54 1515.85C1969.71 1668.84 1722.96 1755.01 1419.2 1755.01Z" stroke="#A0A0A0" stroke-width="0.1" stroke-miterlimit="10"/>
<path d="M1288.89 1751.22L1287.42 1747.54C1107.11 1306.25 873.953 655.823 767.674 298.127L766.57 294.327L770.248 293.102C1339.64 84.7114 1950.23 276.676 2130.91 720.057C2237.93 1080.08 1861.23 1541.36 1292.2 1749.75L1288.89 1751.22ZM776.745 299.476C883.146 656.804 1114.21 1301.1 1293.55 1740.68C1856.7 1533.64 2228.86 1077.63 2123.44 723.244C1944.59 284.766 1340.99 95.2534 776.745 299.476Z" stroke="#A0A0A0" stroke-width="0.1" stroke-miterlimit="10"/>
<path d="M1779.99 1469.4C1689.89 1248.75 1385.52 1153.75 1101.49 1257.45L1098.55 1249.73C1386.74 1144.55 1695.9 1241.64 1787.59 1466.21L1779.99 1469.4Z" stroke="#A0A0A0" stroke-width="0.1" stroke-miterlimit="10"/>
<path d="M2080.18 1101.64C1925.36 722.742 1402.54 559.34 914.91 737.33L912.09 729.607C1404.01 549.901 1931.36 715.51 2087.78 1098.58L2080.18 1101.64Z" stroke="#A0A0A0" stroke-width="0.1" stroke-miterlimit="10"/>
<path d="M1294.15 1748.88L1288.26 1743.12C1686.16 1342.39 1923.85 726.417 1817.94 370.192L1825.91 367.863C1932.56 726.662 1694.01 1346.32 1294.15 1748.88Z" stroke="#A0A0A0" stroke-width="0.1" stroke-miterlimit="10"/>
<path d="M1295.13 1747.17L1287.16 1744.96C1417.71 1260.02 1437.7 574.91 1331.66 217.827L1339.63 215.498C1445.66 573.684 1426.05 1260.76 1295.13 1747.17Z" stroke="#A0A0A0" stroke-width="0.1" stroke-miterlimit="10"/>
<path d="M750.275 1851.5C589.324 1851.5 441.857 1821.34 321.236 1760.91C189.828 1694.84 101.446 1595.67 65.284 1474.31C-9.24616 1291.78 -2.87238 1091.49 83.916 895.23C201.84 628.614 451.663 409.191 770.378 293.105L774.546 291.512L775.772 295.802C881.805 653.253 1114.71 1303.19 1295.03 1744.48L1296.63 1748.4L1292.58 1749.88C1119.06 1814.9 935.564 1849.29 750.275 1851.5ZM768.907 302.299C455.096 418.139 208.46 635.233 91.8842 898.54C6.07644 1092.71 -0.297852 1290.8 73.4968 1471.49C109.046 1591.13 196.079 1688.46 325.281 1753.43C570.446 1876.63 929 1872.83 1285.72 1743.62C1106.38 1303.92 875.431 659.872 768.907 302.299Z" stroke="#A0A0A0" stroke-width="0.1" stroke-miterlimit="10"/>
<path d="M742.189 1848.42C704.311 1755.62 707.498 1654 751.505 1554.22C811.203 1419.38 937.708 1308.07 1098.54 1249.36L1101.48 1257.08C942.121 1315.18 817.822 1424.65 759.105 1557.53C715.956 1654.86 712.769 1754.27 749.789 1844.86L742.189 1848.42Z" stroke="#A0A0A0" stroke-width="0.1" stroke-miterlimit="10"/>
<path d="M303.703 1750.47C239.102 1592.34 244.618 1419.5 319.639 1249.72C421.505 1019.51 637.495 829.874 912.079 729.602L914.899 737.324C642.398 836.861 428.124 1024.9 327.239 1253.15C253.689 1420.48 247.683 1591.36 311.303 1747.28L303.703 1750.47Z" stroke="#A0A0A0" stroke-width="0.1" stroke-miterlimit="10"/>
<path d="M1289.03 1749.51C846.266 1472.47 399.452 955.542 293.051 597.233L301.019 594.904C406.93 951.742 852.64 1466.71 1293.94 1742.77L1289.03 1749.51Z" stroke="#A0A0A0" stroke-width="0.1" stroke-miterlimit="10"/>
<path d="M1290.85 1750.1C708.46 1706.09 147.89 1378.18 40.5078 1019.02L48.476 1016.57C154.265 1372.79 711.647 1698.13 1290.85 1741.89L1290.85 1750.1Z" stroke="#A0A0A0" stroke-width="0.1" stroke-miterlimit="10"/>
<path d="M959.031 1985.73C554.509 1985.73 197.303 1796.58 65.895 1474.68C-40.8743 1114.9 335.576 653.377 904.727 444.987L908.527 443.639L909.998 447.316C1090.19 889.104 1323.1 1538.79 1429.38 1896.61L1430.48 1900.29L1426.93 1901.63C1277.06 1956.75 1118.71 1985.21 959.031 1985.73ZM73.6178 1471.74C252.711 1909.97 856.184 2099.48 1420.43 1895.26C1314.03 1537.93 1082.96 893.639 903.624 453.936C340.48 661.1 -31.558 1116.98 73.6178 1471.74Z" stroke="#A0A0A0" stroke-width="0.1" stroke-miterlimit="10"/>
<path d="M880.948 1537.69C531.956 1537.69 222.925 1374.29 109.414 1096.39L117.014 1093.33C271.836 1472.35 794.65 1635.63 1281.55 1457.64L1284.49 1465.36C1155.22 1512.83 1018.65 1537.3 880.948 1537.69Z" stroke="#A0A0A0" stroke-width="0.1" stroke-miterlimit="10"/>
<path d="M371.107 1826.98C264.583 1468.06 503.128 848.403 902.992 445.842L908.877 451.603C510.851 852.325 273.286 1468.3 379.075 1824.53L371.107 1826.98Z" stroke="#A0A0A0" stroke-width="0.1" stroke-miterlimit="10"/>
<path d="M857.273 1979.33C750.871 1621.02 771.465 933.947 901.648 447.662L909.739 449.746C779.188 934.805 759.207 1619.92 865.241 1977L857.273 1979.33Z" stroke="#A0A0A0" stroke-width="0.1" stroke-miterlimit="10"/>
<path d="M1422.78 1903.21L1421.55 1898.92C1315.39 1541.47 1082.37 891.54 902.047 450.243L900.453 446.321L904.498 444.85C1264.77 313.196 1627.73 309.274 1875.47 433.817C2006.88 499.889 2095.39 599.059 2131.43 720.415C2205.96 902.941 2199.58 1103.24 2112.79 1299.5C1994.87 1565.99 1745.05 1785.53 1426.94 1901.62L1422.78 1903.21ZM911.362 451.102C1090.82 890.805 1321.65 1534.85 1428.17 1892.43C1742.1 1776.59 1988.74 1559.49 2105.19 1296.06C2191 1102.01 2197.5 903.799 2123.58 723.112C2088.15 603.594 2001 506.264 1871.8 441.172C1626.88 318.1 1268.2 321.777 911.362 451.102Z" stroke="#A0A0A0" stroke-width="0.1" stroke-miterlimit="10"/>
<path d="M1285.08 1465.22L1282.14 1457.5C1554.76 1357.84 1768.91 1169.92 1870.53 941.675C1944.08 774.35 1950.09 603.347 1886.47 447.545L1894.07 444.357C1958.55 602.366 1953.03 775.33 1878.13 945.107C1775.65 1175.19 1559.66 1364.83 1285.08 1465.22Z" stroke="#A0A0A0" stroke-width="0.1" stroke-miterlimit="10"/>
<path d="M1896.2 1600.07C1790.16 1243.23 1344.57 728.262 903.277 452.206L907.69 445.219C1350.34 722.133 1797.15 1239.19 1903.67 1597.49L1896.2 1600.07Z" stroke="#A0A0A0" stroke-width="0.1" stroke-miterlimit="10"/>
<path d="M2147.95 1178.01C2042.28 822.518 1484.9 496.571 905.574 452.809L906.31 444.596C1488.7 488.48 2049.27 816.511 2155.92 1175.68L2147.95 1178.01Z" stroke="#A0A0A0" stroke-width="0.1" stroke-miterlimit="10"/>
<path d="M2123.69 723.12C2097.52 659.534 2062.21 600.109 2018.88 546.723C1976 503.671 1926.3 468.008 1871.78 441.18C1626.62 317.617 1265.49 321.784 907.303 452.58L903.626 453.928L902.154 450.251C874.451 382.463 850.915 326.81 831.057 281.087C811.689 287.216 792.443 293.345 773.075 300.823L768.907 302.294L767.682 298.126C700.261 71.1031 714.358 66.1999 721.1 63.7482C727.842 61.2966 741.817 56.0256 835.715 270.913C1301.53 126.143 1782.79 242.841 2024.76 540.594C2074.44 590.738 2111.02 652.324 2131.29 719.932L2123.69 723.12ZM1446.79 343.114C1607.86 343.114 1755.21 373.269 1875.83 433.702C1909.66 450.531 1941.8 470.563 1971.81 493.522C1720.15 237.448 1273.09 144.04 839.392 278.513C858.883 323.501 881.806 377.805 908.651 443.386C1080.93 379.272 1262.98 345.391 1446.79 343.236L1446.79 343.114ZM723.552 71.8387C721.101 77.4775 720.12 109.717 773.933 291.384C791.585 285.01 809.482 279.126 827.257 273.364C750.642 97.2133 729.191 74.5354 724.042 71.9612L723.552 71.8387Z" stroke="#A0A0A0" stroke-width="0.1" stroke-miterlimit="10"/>
<path d="M1885.87 447.794C1731.05 68.7688 1208.36 -94.6336 720.6 83.4787L717.781 75.7559C1209.58 -103.95 1737.06 61.6591 1893.47 444.607L1885.87 447.794Z" stroke="#A0A0A0" stroke-width="0.1" stroke-miterlimit="10"/>
<path d="M908.881 451.591L902.996 445.83C1148.16 199.194 1408.04 80.6569 1598.28 128.709C1708.61 156.535 1787.8 239.033 1825.92 367.745L1817.95 370.074C1781.18 244.55 1704.07 163.768 1596.32 137.167C1408.89 89.3603 1151.47 207.162 908.881 451.591Z" stroke="#A0A0A0" stroke-width="0.1" stroke-miterlimit="10"/>
<path d="M909.981 449.756L901.891 447.672C978.137 164.262 1077.43 0.981685 1174.39 -0.24414L1175.98 -0.24414C1241.44 -0.24414 1298.57 74.286 1340.12 215.378L1332.15 217.708C1290.84 80.0474 1237.28 8.09157 1175.98 8.09157L1175 8.09157C1082.94 9.19481 984.021 174.313 909.981 449.756Z" stroke="#A0A0A0" stroke-width="0.1" stroke-miterlimit="10"/>
<path d="M65.8734 1474.67C-8.90187 1291.78 -2.52758 1091.48 84.2608 895.222C201.817 629.708 450.292 410.898 766.555 294.567C700.36 71.3447 714.335 66.4414 721.077 63.9898C727.819 61.5381 748.903 53.5702 909.732 447.428L911.325 451.35L907.28 452.821C342.052 659.25 -32.0698 1116.61 73.7189 1472.22L65.8734 1474.67ZM724.019 71.9576C721.567 77.5964 720.587 110.326 775.626 295.793L776.729 299.471L773.052 300.819C457.157 416.169 209.172 633.998 91.8609 898.531C15.492 1071.25 2.00779 1247.03 51.8989 1411.05C2.86587 1062.91 366.201 642.824 900.415 446.325C763.123 110.326 730.393 75.1447 724.019 71.9576Z" stroke="#A0A0A0" stroke-width="0.1" stroke-miterlimit="10"/>
<path d="M109.531 1096.13C44.9303 938.123 50.4463 765.159 125.467 595.504C227.333 365.294 443.201 175.659 717.908 75.3867L720.727 83.1095C448.226 182.646 233.952 370.688 133.067 598.937C59.5174 766.262 53.511 937.142 117.131 1093.07L109.531 1096.13Z" stroke="#A0A0A0" stroke-width="0.1" stroke-miterlimit="10"/>
<path d="M293.392 596.981C252.449 459.321 265.933 359.784 332.25 309.402C433.871 232.175 649.126 283.047 908.388 445.224L903.975 452.211C647.655 291.873 435.833 241.001 337.154 315.899C273.779 364.197 261.398 460.546 301.237 594.652L293.392 596.981Z" stroke="#A0A0A0" stroke-width="0.1" stroke-miterlimit="10"/>
<path d="M41.1477 1019.04C4.37298 893.635 25.7024 775.956 104.033 678.871C244.39 504.804 544.104 417.28 906.335 444.616L905.6 452.829C546.188 425.738 249.048 512.159 110.407 684.019C33.9157 779.021 12.3411 894.003 49.1159 1016.59L41.1477 1019.04Z" stroke="#A0A0A0" stroke-width="0.1" stroke-miterlimit="10"/>
<path d="M1098.9 2197.66C957.272 2198.24 816.898 2171.13 685.672 2117.86C664.955 2109.4 625.974 2093.34 598.393 2078.14C556.47 2055.34 502.043 2022.61 463.552 1996.75C410.802 1959.88 361.56 1918.23 316.453 1872.32C267.369 1822.66 223.121 1768.44 184.309 1710.39C161.018 1675.21 134.296 1627.89 117.011 1595.29C108.431 1579.11 99.6049 1558.51 91.1467 1539.39L89.5531 1535.84C85.9982 1528.48 82.6885 1521.13 79.6239 1513.53C64.056 1474.18 40.3977 1404.18 35.3718 1382.12C33.5331 1374.39 31.4492 1365.81 29.2427 1356.99C24.0942 1335.78 18.7008 1313.72 15.6362 1295.7C8.89419 1254.75 3.37801 1201.43 -0.422047 1165.15C-3.69648 1124.36 -3.98336 1083.39 -1.28021 1042.56C2.98959 986.538 10.1498 930.77 20.1717 875.483C27.0192 839.437 36.2739 803.891 47.8747 769.082C50.0812 762.708 52.5331 755.72 54.9847 748.488C61.2364 730.101 68.3462 709.262 74.843 692.958C83.5464 671.629 100.34 631.667 115.418 602.983C140.228 553.124 168.919 505.292 201.226 459.929C231.593 417.225 264.981 376.751 301.131 338.817C335.196 302.758 371.821 269.206 410.719 238.422C448.119 208.517 487.428 181.082 528.398 156.292C568.881 131.695 610.983 109.866 654.413 90.9556C660.788 88.504 667.775 85.5619 674.884 82.4974C690.575 75.8779 706.756 69.0134 720.73 64.3552C807.396 35.7935 814.383 33.4645 856.552 24.3934C900.804 14.832 961.115 6.49626 993.109 2.45104C1007.82 0.612299 1025.72 -0.245763 1043 -0.981258L1064.08 -2.08446C1112.11 -3.49273 1160.18 -1.81393 1208 2.94147C1370.05 19.1746 1526.53 70.9042 1666.33 154.453C1692.2 170.267 1727.62 194.293 1755.69 214.274C1770.16 224.816 1787.32 238.79 1802.52 251.048L1819.56 265.023C1978.2 402.616 2094.11 582.764 2153.6 784.16C2168.4 836.015 2179.95 888.747 2188.17 942.046C2194.84 999.674 2198.48 1057.61 2199.08 1115.62C2199.4 1156.21 2196.44 1196.75 2190.25 1236.86C2189.15 1243.72 2188.04 1251.2 2186.82 1258.92C2183.88 1278.9 2180.32 1301.58 2176.4 1319.48C2169.78 1350 2159.48 1393.03 2148.82 1425.63C2131.08 1482.86 2108.48 1538.47 2081.27 1591.86C2055.16 1644.32 2049.52 1653.15 1995.47 1734.42C1965.23 1777.37 1931.75 1817.94 1895.32 1855.78C1861.24 1891.81 1824.66 1925.4 1785.85 1956.29C1711.3 2015.62 1629.39 2065.06 1542.16 2103.39C1477.09 2131.75 1409.55 2154.04 1340.38 2169.95C1294.91 2180.25 1293.19 2180.5 1204.81 2191.77L1203.34 2191.77C1180.9 2194.59 1151.85 2195.94 1132.12 2196.31L1098.9 2197.66ZM133.07 1608.16C149.741 1638.8 171.806 1676.93 191.174 1706.23C229.667 1763.64 273.502 1817.28 322.092 1866.44C366.928 1911.91 415.793 1953.23 468.088 1989.88C506.947 2015.62 561.128 2048.23 602.929 2070.91C630.264 2085.74 668.878 2101.8 689.472 2110.13C829.961 2167.12 980.837 2194.01 1132.36 2189.08C1155.88 2188.81 1179.36 2187.33 1202.72 2184.66L1204.07 2184.66C1292.09 2173.51 1293.8 2173.26 1338.91 2162.97C1407.59 2147.21 1474.64 2125.09 1539.21 2096.9C1625.75 2058.82 1706.96 2009.66 1780.82 1950.65C1819.4 1919.98 1855.77 1886.64 1889.68 1850.87C1925.64 1813.48 1958.71 1773.4 1988.6 1730.99C2042.9 1649.35 2048.54 1640.89 2074.41 1588.91C2101.48 1535.9 2123.96 1480.65 2141.58 1423.79C2152.13 1391.8 2162.3 1348.77 2168.92 1318.37C2172.84 1300.84 2176.27 1278.29 2179.34 1258.43C2180.44 1250.59 2181.67 1243.11 2182.77 1236.24C2188.8 1196.61 2191.71 1156.57 2191.48 1116.48C2190.89 1058.84 2187.24 1001.27 2180.57 944.007C2172.4 891.213 2160.98 838.975 2146.36 787.592C2087.43 587.911 1972.58 409.265 1815.39 272.745L1798.35 258.649C1783.28 246.39 1766.11 232.048 1752.02 221.874C1724.44 202.015 1688.76 178.112 1663.14 162.421C1483.11 54.0175 1275.74 -0.40072 1065.68 5.63811L1044.35 6.6188C1027.31 7.47687 1009.66 8.21235 995.315 10.0511C963.444 14.0963 903.378 22.3095 859.494 31.8709C817.816 40.8195 810.461 43.1484 724.653 71.5875C710.801 76.1231 694.743 82.8652 679.297 89.4847L658.581 98.0654C615.495 116.768 573.758 138.436 533.669 162.911C492.698 187.429 453.386 214.619 415.99 244.306C377.335 274.884 340.955 308.233 307.137 344.088C271.342 381.68 238.282 421.785 208.213 464.097C175.858 509.041 147.163 556.511 122.405 606.047C107.45 634.486 90.6565 674.326 82.0757 695.533C75.5789 711.468 68.4691 732.307 62.2174 750.572C59.7658 757.804 57.4366 764.914 55.2301 771.288C43.6809 805.677 34.5066 840.818 27.7718 876.464C17.8241 931.425 10.7451 986.866 6.5645 1042.56C3.85323 1083.1 4.09901 1123.78 7.29996 1164.29C10.6097 1201.06 16.6168 1253.65 23.2363 1294.35C26.3008 1312.61 31.6943 1334.43 36.8428 1355.64C39.0492 1364.46 41.1331 1373.05 42.9719 1380.89C55.3956 1424.96 70.0428 1468.37 86.8566 1510.95C89.9212 1517.69 93.2308 1525.29 96.6631 1533.14C210.91 1772.05 544.947 1881.64 934.391 1830.4C1054.6 1814.07 1172.68 1784.76 1286.57 1743L1288.78 1742.26L1291.6 1749.99C803.351 1928.59 323.808 1863.25 133.07 1608.16Z" stroke="#A0A0A0" stroke-width="0.1" stroke-miterlimit="10"/>
</g>
<path d="M83.4483 1512.43C217.063 1839.48 745.394 1945.39 1291.25 1745.34C745.149 1944.78 217.063 1838.87 83.4483 1512.43ZM83.4483 1512.43C67.8803 1473.2 44.4675 1403.58 39.4416 1381.76C33.4351 1355.77 23.9957 1321.32 19.7053 1294.97C13.331 1256.11 7.44705 1203.89 3.64699 1164.66C0.393562 1123.88 0.147762 1082.9 2.91153 1042.08C6.97032 986.308 13.9262 930.785 23.7507 875.736C30.5889 839.9 39.8029 804.559 51.3318 769.947C59.2996 747.024 69.229 716.378 78.3001 693.946C89.4551 666.61 104.9 630.325 118.629 604.215C143.35 554.502 172.046 506.867 204.437 461.775C234.606 419.248 267.832 378.975 303.851 341.276C337.793 305.262 374.296 271.75 413.073 241.004C450.394 211.278 489.578 183.968 530.384 159.241C570.58 134.693 612.441 112.984 655.663 94.2724C675.522 86.3045 701.509 74.414 721.735 67.672C807.543 39.2329 815.266 36.9038 856.576 27.8327C897.887 18.7616 951.7 11.1614 992.765 5.89033C1013.85 3.3161 1041.8 2.82576 1063.5 1.47736C1111.32 0.0777869 1159.19 1.75659 1206.79 6.50328C1310.23 16.945 1411.67 41.9539 1508.1 80.7882C1561.86 102.331 1613.79 128.157 1663.41 158.015C1690.87 174.809 1726.42 198.835 1752.53 217.713C1772.27 232.055 1797.03 253.384 1816.03 268.707C1974.11 405.8 2089.61 585.316 2148.84 786.005C2163.57 837.624 2175.07 890.109 2183.29 943.156C2190.01 1000.57 2193.61 1058.31 2194.07 1116.12C2194.37 1156.49 2191.46 1196.83 2185.37 1236.74C2181.33 1261.26 2176.91 1294.6 2171.52 1318.99C2164.53 1351.11 2154.36 1393.65 2144.06 1424.78C2126.34 1481.83 2103.83 1537.27 2076.76 1590.51C2050.65 1642.73 2045.01 1651.81 1990.95 1732.95C1960.96 1775.61 1927.72 1815.9 1891.54 1853.45C1857.55 1889.38 1821.05 1922.85 1782.32 1953.6C1708.1 2012.9 1626.52 2062.35 1539.61 2100.7C1474.82 2128.94 1407.56 2151.14 1338.69 2167.02C1293.09 2177.44 1291.38 2177.56 1202.01 2188.96C1180.93 2191.66 1152.98 2193.13 1131.28 2193.5C979.171 2198.36 827.725 2171.34 686.677 2114.19C657.025 2102.58 628.013 2089.41 599.766 2074.71C558.333 2052.16 504.151 2019.68 464.925 1993.57C412.172 1956.88 362.929 1915.4 317.826 1869.63C269.021 1820.28 224.982 1766.43 186.295 1708.81C164.353 1675.59 137.262 1629.25 119.242 1594.07C108.087 1570.17 94.6033 1536.82 83.4483 1512.43Z" stroke="#A0A0A0" stroke-width="0.1" stroke-miterlimit="10"/>
<mask id="mask3_279_10660" style="mask-type:luminance" maskUnits="userSpaceOnUse" x="1" y="1" width="2195" height="2193">
<path d="M1474.64 2127.18C1408.86 2151.21 1340.92 2168.9 1271.77 2180.01C1202.93 2191.41 1133.11 2195.84 1063.38 2193.25C1021.21 2191.42 965.315 2185.16 923.269 2179.65C900.469 2176.71 870.559 2170.21 848.371 2164.81C826.184 2159.42 793.331 2151.45 770.408 2143.49C727.75 2128.65 671.362 2106.71 630.052 2088.69C514.441 2034.49 409.258 1960.38 319.305 1869.76C301.898 1851.37 278.24 1827.22 262.304 1807.61C238.769 1778.92 208.245 1739.94 187.774 1709.54C173.309 1687.6 154.309 1658.06 142.051 1634.89C123.051 1599.22 99.6371 1550.55 83.4562 1513.41C78.2219 1500.53 73.6397 1487.4 69.727 1474.06C-36.552 1115.51 338.673 656.192 906.353 448.66C339.041 655.947 -36.1839 1115.51 70.0951 1473.08C74.0078 1486.42 78.59 1499.55 83.8243 1512.43C74.6306 1487.06 61.1466 1453.59 53.1787 1427.73C43.6173 1396.47 33.4428 1354.18 25.4749 1322.18C16.9285 1284.59 10.9487 1246.46 7.57761 1208.06C2.98535 1165.03 1.14272 1121.75 2.06125 1078.49C3.40966 1053.11 4.02275 1019.04 6.84215 993.662C10.7648 958.113 17.0166 910.673 24.6168 875.737C48.0233 762.153 89.4044 653.031 147.199 552.487C201.878 457.172 270.554 370.604 350.931 295.677C423.295 227.939 504.635 170.481 592.664 124.92C634.716 103.22 678.071 84.1426 722.479 67.796C742.705 61.1766 769.305 51.0023 789.899 45.6086C881.468 21.0921 881.468 21.092 924.74 14.8403C945.334 11.6532 972.792 7.36295 993.509 6.01454C1034.82 3.44031 1090.23 1.60156 1131.66 1.60156C1179.38 3.19128 1226.95 7.73554 1274.1 15.2082C1325.85 23.4185 1376.9 35.5064 1426.84 51.37C1474.66 66.9386 1521.56 85.1914 1567.32 106.042C1649.1 144.634 1725.8 193.176 1795.69 250.567C1863.6 308.916 1863.6 308.916 1934.82 387.491C1962.25 418.133 1987.17 450.927 2009.35 485.557C2040.66 535.28 2069.3 586.633 2095.16 639.398C2116.36 686.91 2134.66 735.665 2149.95 785.394C2157.55 811.136 2166.62 845.705 2171.89 871.937C2178.64 905.893 2185.01 951.738 2189.67 986.062C2195.06 1028.99 2196.91 1072.28 2195.19 1115.51C2192.98 1166.14 2186.85 1233.56 2179.25 1283.69C2173.34 1322.41 2164.57 1360.64 2153.02 1398.06C2145.54 1421.23 2136.47 1452.37 2127.76 1475.17C2116.49 1504.83 2099.94 1543.93 2086.33 1572.62C2061.45 1624.92 2032.34 1675.1 1999.3 1722.66C1968.85 1766.98 1934.99 1808.87 1898.05 1847.94C1863.44 1884.9 1826.24 1919.35 1786.74 1951.03C1748.95 1981.5 1709.19 2009.43 1667.71 2034.63C1648.83 2045.3 1624.32 2060.62 1604.7 2069.94C1566.46 2088.32 1514.85 2111.74 1475.14 2126.94L1474.64 2127.18Z" fill="white"/>
</mask>
<g mask="url(#mask3_279_10660)">
<path d="M1473.67 2131.34C1466.06 2131.34 1444.86 2114.55 1361.5 1923.81C895.688 2068.46 414.552 1951.88 172.452 1654.13C122.727 1604 86.1009 1542.41 65.8047 1474.79L73.6501 1471.97C99.6776 1535.6 134.953 1595.04 178.335 1648.37C221.171 1691.47 270.884 1727.14 325.434 1753.91C571.335 1877.59 931.972 1873.3 1289.91 1742.63L1293.71 1741.16L1295.18 1744.96C1322.89 1812.75 1346.3 1868.4 1366.28 1914.12C1385.65 1907.99 1404.94 1901.42 1424.14 1894.39L1428.31 1892.92L1429.53 1897.09C1496.96 2124.11 1482.98 2129.01 1476.24 2131.34C1475.39 2131.49 1474.52 2131.49 1473.67 2131.34ZM1369.47 1921.23C1446.45 2097.51 1467.54 2120.19 1473.17 2122.76C1475.63 2117.12 1476.61 2084.88 1422.79 1903.21C1405.39 1909.59 1387.61 1915.6 1369.47 1921.23ZM225.775 1700.59C477.437 1956.78 924.495 2050.19 1358.19 1915.59C1338.58 1870.61 1315.66 1816.3 1288.93 1750.72C930.012 1880.9 568.638 1884.58 321.634 1760.41C287.862 1743.73 255.762 1723.86 225.775 1701.08L225.775 1700.59Z" stroke="#A0A0A0" stroke-width="0.1" stroke-miterlimit="10"/>
<path d="M1075.28 2191.9C726.288 2191.9 417.257 2028.5 303.746 1750.61L311.346 1747.42C466.168 2126.32 988.86 2289.85 1475.88 2111.74L1478.82 2119.46C1349.56 2166.96 1212.99 2191.48 1075.28 2191.9Z" stroke="#A0A0A0" stroke-width="0.1" stroke-miterlimit="10"/>
<path d="M686.81 2076.55C657.148 2076.71 627.58 2073.17 598.795 2066.01C488.471 2038.18 409.406 1955.68 371.16 1826.97L379.128 1824.64C415.902 1950.17 493.13 2030.82 600.88 2057.55C788.676 2104.74 1045.61 1987.06 1288.32 1742.63L1294.21 1748.39C1085.2 1959.36 865.29 2076.55 686.81 2076.55Z" stroke="#A0A0A0" stroke-width="0.1" stroke-miterlimit="10"/>
<path d="M1021.58 2194.97C956.123 2194.97 898.999 2120.44 857.566 1979.35L865.534 1977.02C906.354 2114.19 960.168 2186.63 1021.58 2186.63L1022.56 2186.63C1114.25 2185.53 1213.18 2020.29 1287.22 1745.34L1295.19 1747.54C1218.94 2030.96 1119.65 2194.23 1022.68 2195.46L1021.58 2194.97Z" stroke="#A0A0A0" stroke-width="0.1" stroke-miterlimit="10"/>
<path d="M1473.66 2131.34C1464.1 2131.34 1433.45 2105.11 1287.46 1747.54L1285.74 1743.61L1289.79 1742.14C1855.14 1535.59 2229.14 1078.36 2123.35 722.747L2131.19 720.051C2205.85 902.944 2199.47 1103.24 2112.68 1299.5C1995.25 1565.01 1746.65 1783.82 1430.39 1900.15C1496.58 2123.5 1482.61 2128.4 1475.99 2130.73C1475.25 2131.06 1474.47 2131.27 1473.66 2131.34ZM1296.65 1748.4C1434.07 2084.39 1466.67 2119.58 1473.17 2122.76C1475.62 2117.12 1476.6 2084.39 1421.56 1898.93L1420.46 1895.25L1424.01 1893.9C1739.91 1778.55 1987.89 1560.6 2105.21 1296.07C2181.57 1123.47 2195.06 947.686 2145.17 783.671C2194.08 1131.68 1830.99 1551.9 1296.65 1748.4Z" stroke="#A0A0A0" stroke-width="0.1" stroke-miterlimit="10"/>
<path d="M1479.41 2119.34L1476.46 2111.62C1749.09 2012.08 1963.24 1824.04 2064.86 1595.79C2138.41 1428.46 2144.42 1257.58 2080.8 1101.66L2088.4 1098.59C2152.87 1256.6 2147.36 1429.57 2072.46 1599.22C1969.98 1829.43 1753.99 2019.07 1479.41 2119.34Z" stroke="#A0A0A0" stroke-width="0.1" stroke-miterlimit="10"/>
<path d="M1741.25 1920.74C1627.13 1920.74 1468.63 1861.78 1289.05 1749.13L1293.46 1742.14C1549.78 1902.48 1761.6 1953.47 1860.16 1878.33C1923.78 1830.52 1936.04 1734.17 1896.2 1600.07L1904.17 1597.62C1944.99 1735.4 1931.62 1834.81 1865.18 1885.32C1834.05 1909.1 1792 1920.74 1741.25 1920.74Z" stroke="#A0A0A0" stroke-width="0.1" stroke-miterlimit="10"/>
<path d="M1419.21 1755.01C1377.37 1755.01 1334.59 1753.38 1290.87 1750.11L1290.87 1741.9C1650.03 1768.99 1947.42 1682.57 2086.06 1510.71C2162.67 1415.71 2184.13 1300.72 2147.35 1178.02L2155.32 1175.69C2192.09 1301.09 2170.89 1418.77 2092.56 1515.86C1969.73 1668.84 1722.97 1755.01 1419.21 1755.01Z" stroke="#A0A0A0" stroke-width="0.1" stroke-miterlimit="10"/>
<path d="M1288.91 1751.22L1287.44 1747.54C1107.12 1306.25 873.969 655.825 767.69 298.129L766.586 294.329L770.264 293.104C1339.66 84.7134 1950.24 276.678 2130.93 720.059C2237.94 1080.08 1861.25 1541.36 1292.22 1749.75L1288.91 1751.22ZM776.76 299.478C883.162 656.806 1114.23 1301.1 1293.57 1740.68C1856.71 1533.64 2228.87 1077.63 2123.45 723.246C1944.6 284.768 1341.01 95.2554 776.76 299.478Z" stroke="#A0A0A0" stroke-width="0.1" stroke-miterlimit="10"/>
<path d="M2080.19 1101.65C1925.37 722.744 1402.56 559.342 914.925 737.332L912.105 729.609C1404.03 549.903 1931.38 715.512 2087.79 1098.58L2080.19 1101.65Z" stroke="#A0A0A0" stroke-width="0.1" stroke-miterlimit="10"/>
<path d="M1294.16 1748.88L1288.28 1743.12C1686.18 1342.4 1923.87 726.419 1817.96 370.194L1825.92 367.865C1932.57 726.664 1694.03 1346.32 1294.16 1748.88Z" stroke="#A0A0A0" stroke-width="0.1" stroke-miterlimit="10"/>
<path d="M1295.15 1747.17L1287.18 1744.96C1417.73 1260.03 1437.71 574.912 1331.68 217.829L1339.64 215.5C1445.68 573.686 1426.07 1260.76 1295.15 1747.17Z" stroke="#A0A0A0" stroke-width="0.1" stroke-miterlimit="10"/>
<path d="M750.291 1851.5C589.34 1851.5 441.873 1821.34 321.252 1760.91C189.843 1694.84 101.461 1595.67 65.2996 1474.31C-9.23054 1291.79 -2.85676 1091.49 83.9316 895.232C201.856 628.616 451.679 409.193 770.394 293.107L774.562 291.514L775.787 295.804C881.821 653.255 1114.73 1303.19 1295.05 1744.48L1296.64 1748.41L1292.6 1749.88C1119.08 1814.9 935.58 1849.29 750.291 1851.5ZM768.923 302.301C455.111 418.141 208.476 635.235 91.8998 898.542C6.09206 1092.71 -0.282227 1290.81 73.5124 1471.49C109.061 1591.13 196.095 1688.46 325.297 1753.43C570.462 1876.63 929.016 1872.83 1285.73 1743.63C1106.39 1303.92 875.447 659.874 768.923 302.301Z" stroke="#A0A0A0" stroke-width="0.1" stroke-miterlimit="10"/>
<path d="M303.719 1750.47C239.118 1592.34 244.634 1419.5 319.654 1249.72C421.52 1019.51 637.51 829.876 912.095 729.604L914.915 737.326C642.414 836.863 428.14 1024.9 327.254 1253.15C253.705 1420.48 247.698 1591.36 311.319 1747.28L303.719 1750.47Z" stroke="#A0A0A0" stroke-width="0.1" stroke-miterlimit="10"/>
<path d="M1289.05 1749.51C846.281 1472.47 399.468 955.544 293.066 597.235L301.035 594.906C406.946 951.744 852.656 1466.71 1293.95 1742.77L1289.05 1749.51Z" stroke="#A0A0A0" stroke-width="0.1" stroke-miterlimit="10"/>
<path d="M1290.86 1750.1C708.475 1706.09 147.906 1378.19 40.5234 1019.02L48.4916 1016.57C154.28 1372.79 711.663 1698.13 1290.86 1741.89L1290.86 1750.1Z" stroke="#A0A0A0" stroke-width="0.1" stroke-miterlimit="10"/>
<path d="M959.047 1985.73C554.524 1985.73 197.319 1796.58 65.9107 1474.68C-40.8587 1114.9 335.592 653.379 904.743 444.989L908.543 443.641L910.014 447.318C1090.21 889.105 1323.12 1538.79 1429.4 1896.61L1430.5 1900.29L1426.94 1901.64C1277.08 1956.75 1118.72 1985.21 959.047 1985.73ZM73.6334 1471.74C252.726 1909.97 856.2 2099.48 1420.45 1895.26C1314.05 1537.93 1082.98 893.641 903.64 453.938C340.496 661.102 -31.5424 1116.99 73.6334 1471.74Z" stroke="#A0A0A0" stroke-width="0.1" stroke-miterlimit="10"/>
<path d="M880.964 1537.69C531.972 1537.69 222.941 1374.29 109.43 1096.39L117.03 1093.33C271.851 1472.35 794.666 1635.63 1281.56 1457.64L1284.51 1465.37C1155.24 1512.83 1018.67 1537.31 880.964 1537.69Z" stroke="#A0A0A0" stroke-width="0.1" stroke-miterlimit="10"/>
<path d="M861.968 987.16C657.378 987.16 476.201 891.3 409.516 728.265L417.238 725.078C507.337 945.727 811.709 1040.61 1095.73 936.901L1098.55 944.746C1022.77 972.577 942.7 986.931 861.968 987.16Z" stroke="#A0A0A0" stroke-width="0.1" stroke-miterlimit="10"/>
<path d="M371.123 1826.98C264.599 1468.06 503.144 848.405 903.008 445.844L908.892 451.605C510.867 852.327 273.301 1468.3 379.09 1824.53L371.123 1826.98Z" stroke="#A0A0A0" stroke-width="0.1" stroke-miterlimit="10"/>
<path d="M857.289 1979.33C750.887 1621.02 771.481 933.949 901.663 447.664L909.754 449.748C779.204 934.807 759.223 1619.92 865.257 1977L857.289 1979.33Z" stroke="#A0A0A0" stroke-width="0.1" stroke-miterlimit="10"/>
<path d="M1422.79 1903.22L1421.57 1898.93C1315.41 1541.47 1082.38 891.542 902.062 450.245L900.469 446.323L904.513 444.852C1264.78 313.198 1627.75 309.276 1875.49 433.819C2006.9 499.891 2095.4 599.061 2131.44 720.417C2205.97 902.943 2199.6 1103.24 2112.81 1299.5C1994.88 1565.99 1745.06 1785.54 1426.96 1901.62L1422.79 1903.22ZM911.378 451.104C1090.84 890.807 1321.66 1534.86 1428.19 1892.43C1742.12 1776.59 1988.76 1559.49 2105.21 1296.06C2191.02 1102.02 2197.51 903.801 2123.6 723.114C2088.17 603.596 2001.01 506.266 1871.81 441.174C1626.89 318.102 1268.22 321.779 911.378 451.104Z" stroke="#A0A0A0" stroke-width="0.1" stroke-miterlimit="10"/>
<path d="M1285.09 1465.23L1282.15 1457.5C1554.78 1357.84 1768.93 1169.93 1870.55 941.677C1944.1 774.352 1950.1 603.349 1886.48 447.546L1894.08 444.359C1958.56 602.368 1953.05 775.332 1878.15 945.109C1775.67 1175.2 1559.68 1364.83 1285.09 1465.23Z" stroke="#A0A0A0" stroke-width="0.1" stroke-miterlimit="10"/>
<path d="M1098.56 944.986L1095.74 937.141C1254.48 879.159 1379.27 769.693 1438.11 636.813C1481.14 539.483 1484.32 440.681 1447.3 349.48L1455.03 346.293C1492.91 439.088 1489.72 540.709 1445.71 640.491C1386.01 775.087 1259.51 886.269 1098.56 944.986Z" stroke="#A0A0A0" stroke-width="0.1" stroke-miterlimit="10"/>
<path d="M1896.21 1600.07C1790.18 1243.23 1344.59 728.264 903.293 452.208L907.706 445.221C1350.35 722.135 1797.16 1239.19 1903.69 1597.5L1896.21 1600.07Z" stroke="#A0A0A0" stroke-width="0.1" stroke-miterlimit="10"/>
<path d="M2147.96 1178.01C2042.3 822.52 1484.91 496.573 905.59 452.811L906.325 444.598C1488.71 488.482 2049.28 816.513 2155.93 1175.68L2147.96 1178.01Z" stroke="#A0A0A0" stroke-width="0.1" stroke-miterlimit="10"/>
<path d="M2123.7 723.121C2097.54 659.536 2062.23 600.111 2018.9 546.725C1976.02 503.672 1926.32 468.01 1871.8 441.182C1626.63 317.619 1265.5 321.786 907.319 452.582L903.642 453.93L902.17 450.253C874.466 382.465 850.931 326.812 831.072 281.089C811.704 287.218 792.459 293.347 773.091 300.825L768.923 302.296L767.697 298.128C700.277 71.105 714.374 66.2018 721.116 63.7502C727.858 61.2985 741.832 56.0276 835.73 270.915C1301.54 126.145 1782.8 242.843 2024.78 540.596C2074.45 590.74 2111.03 652.326 2131.3 719.934L2123.7 723.121ZM1446.8 343.116C1607.88 343.116 1755.22 373.271 1875.84 433.704C1909.67 450.533 1941.81 470.565 1971.82 493.524C1720.16 237.45 1273.1 144.042 839.408 278.515C858.898 323.502 881.822 377.806 908.667 443.388C1080.94 379.274 1263 345.393 1446.8 343.238L1446.8 343.116ZM723.568 71.8406C721.116 77.4794 720.135 109.719 773.949 291.386C791.601 285.012 809.498 279.128 827.272 273.366C750.658 97.2152 729.206 74.5374 724.058 71.9632L723.568 71.8406Z" stroke="#A0A0A0" stroke-width="0.1" stroke-miterlimit="10"/>
<path d="M1885.89 447.796C1731.06 68.7708 1208.37 -94.6317 720.616 83.4807L717.797 75.7579C1209.6 -103.948 1737.07 61.661 1893.49 444.609L1885.89 447.796Z" stroke="#A0A0A0" stroke-width="0.1" stroke-miterlimit="10"/>
<path d="M1447.4 349.737C1357.3 129.088 1052.81 34.2095 768.785 137.914L765.965 130.069C1054.03 24.7707 1363.19 121.979 1455 346.55L1447.4 349.737Z" stroke="#A0A0A0" stroke-width="0.1" stroke-miterlimit="10"/>
<path d="M908.896 451.593L903.012 445.832C1148.18 199.196 1408.05 80.6588 1598.3 128.711C1708.62 156.537 1787.81 239.035 1825.94 367.747L1817.97 370.076C1781.19 244.552 1704.09 163.77 1596.34 137.169C1408.91 89.3622 1151.49 207.164 908.896 451.593Z" stroke="#A0A0A0" stroke-width="0.1" stroke-miterlimit="10"/>
<path d="M909.996 449.758L901.906 447.674C978.153 164.264 1077.44 0.983638 1174.41 -0.242187L1176 -0.242187C1241.46 -0.242187 1298.58 74.2879 1340.14 215.38L1332.17 217.709C1290.86 80.0493 1237.29 8.09352 1176 8.09352L1175.02 8.09352C1082.96 9.19676 984.036 174.315 909.996 449.758Z" stroke="#A0A0A0" stroke-width="0.1" stroke-miterlimit="10"/>
<path d="M65.8891 1474.67C-8.88625 1291.78 -2.51196 1091.48 84.2764 895.224C201.833 629.71 450.307 410.9 766.57 294.569C700.376 71.3466 714.351 66.4434 721.093 63.9917C727.835 61.5401 748.919 53.5722 909.747 447.43L911.34 451.352L907.295 452.823C342.068 659.252 -32.0542 1116.61 73.7345 1472.22L65.8891 1474.67ZM724.034 71.9595C721.583 77.5983 720.602 110.328 775.642 295.795L776.745 299.473L773.067 300.821C457.172 416.171 209.188 634 91.8765 898.533C15.5076 1071.25 2.02341 1247.04 51.9145 1411.05C2.88149 1062.92 366.216 642.826 900.431 446.327C763.138 110.328 730.409 75.1467 724.034 71.9595Z" stroke="#A0A0A0" stroke-width="0.1" stroke-miterlimit="10"/>
<path d="M109.547 1096.13C44.9459 938.124 50.462 765.16 125.482 595.506C227.348 365.296 443.216 175.661 717.924 75.3887L720.743 83.1114C448.242 182.648 233.968 370.69 133.082 598.939C59.533 766.264 53.5266 937.144 117.147 1093.07L109.547 1096.13Z" stroke="#A0A0A0" stroke-width="0.1" stroke-miterlimit="10"/>
<path d="M409.498 728.514C371.62 635.719 374.93 534.098 418.937 434.316C478.634 299.475 605.139 188.293 765.968 129.453L768.788 137.298C610.043 195.28 485.254 304.746 426.537 437.625C383.388 534.956 380.2 634.37 417.22 724.959L409.498 728.514Z" stroke="#A0A0A0" stroke-width="0.1" stroke-miterlimit="10"/>
<path d="M293.408 596.983C252.465 459.323 265.949 359.786 332.266 309.404C433.887 232.177 649.142 283.049 908.404 445.226L903.991 452.213C647.671 291.875 435.849 241.003 337.17 315.901C273.794 364.199 261.414 460.548 301.253 594.654L293.408 596.983Z" stroke="#A0A0A0" stroke-width="0.1" stroke-miterlimit="10"/>
<path d="M41.1633 1019.04C4.3886 893.637 25.718 775.958 104.048 678.873C244.405 504.806 544.12 417.282 906.351 444.618L905.615 452.831C546.204 425.74 249.064 512.161 110.423 684.021C33.9313 779.023 12.3568 894.005 49.1315 1016.59L41.1633 1019.04Z" stroke="#A0A0A0" stroke-width="0.1" stroke-miterlimit="10"/>
<path d="M1100.64 2198.16C1085.56 2198.16 1072.81 2198.16 1062.88 2197.3C1027.09 2195.71 974.501 2190.56 922.403 2183.69C895.558 2180.14 861.112 2172.05 847.138 2168.74C826.789 2163.83 792.834 2155.62 768.808 2147.29C721.368 2130.74 666.083 2109.16 628.083 2092.37C512.025 2037.63 406.474 1962.95 316.233 1871.72L307.652 1862.77C291.226 1845.61 272.716 1826 258.619 1809.45C240.354 1787.14 206.522 1744.72 183.844 1710.4C162.76 1678.41 147.069 1653.89 137.875 1635.38C118.875 1599.59 95.2171 1550.68 79.2814 1513.53C76.0942 1505.69 73.0291 1497.6 70.3323 1489.02C70.3323 1488.28 69.7192 1487.42 69.3515 1486.57C61.7513 1466.58 53.9067 1445.87 48.513 1428.22C40.4226 1401.74 31.9642 1367.78 24.6093 1338L20.6866 1322.43C12.1398 1284.63 6.16018 1246.3 2.78925 1207.69C-1.94791 1164.51 -3.83112 1121.06 -2.84906 1077.63C-2.84906 1070.4 -2.11399 1062.55 -1.74624 1054.46C-1.01074 1033.99 -0.0302327 1010.82 1.93109 992.436C5.73114 958.358 11.9831 910.061 19.8284 874.021C43.1492 760.102 84.5323 650.644 142.411 549.791C170.893 500.368 203.061 453.163 238.639 408.576C271.863 367.16 307.993 328.162 346.756 291.877C419.509 223.826 501.258 166.082 589.714 120.262C632.025 98.5035 675.623 79.3452 720.265 62.893L740.859 55.7832C756.917 50.1444 773.588 44.383 787.808 40.5829C879.622 16.6793 879.622 16.6794 923.752 9.81476C944.345 6.62762 972.049 2.33721 992.888 0.988806C1034.81 -1.70801 1089.48 -3.54687 1129.69 -3.54687L1131.28 -3.54687C1178.99 -1.77626 1226.56 2.80825 1273.72 10.1825C1325.71 18.6771 1377.01 30.9682 1427.2 46.9572C1475.2 62.5973 1522.27 80.9738 1568.17 101.997C1650.37 140.579 1727.42 189.295 1797.52 247.012C1865.68 305.606 1865.68 305.606 1937.02 384.304C1964.65 415.338 1989.73 448.542 2012.04 483.596C2043.39 533.46 2072.04 584.979 2097.85 637.927C2119.12 685.467 2137.46 734.264 2152.76 784.046C2160 808.562 2169.43 843.989 2174.95 871.447C2181.94 906.751 2188.8 956.152 2192.85 985.694C2198.22 1028.91 2200.07 1072.49 2198.36 1116C2196.04 1168.83 2189.54 1236.62 2182.43 1284.55C2176.46 1323.52 2167.61 1361.99 2155.95 1399.65C2153.74 1406.4 2151.42 1413.75 2149.09 1421.47C2143.33 1439.74 2136.83 1460.58 2130.7 1476.76C2118.44 1509.12 2102.01 1547.49 2089.14 1574.83C2063.99 1627.1 2034.68 1677.28 2001.5 1724.87C1970.88 1769.28 1936.91 1811.29 1899.88 1850.51C1831.61 1923.17 1753.79 1986.22 1668.56 2037.94L1649.69 2048.85C1634.61 2057.68 1618.92 2066.87 1605.31 2073.37C1587.41 2081.95 1525.26 2111.37 1475.37 2130.49L1473.41 2126.81L1474.88 2130.61C1354.58 2174.68 1227.53 2197.45 1099.41 2197.91L1100.64 2198.16ZM87.3715 1510.84C103.307 1547.61 126.72 1596.65 145.598 1631.95C155.282 1650.09 170.114 1675.1 191.198 1706.23C213.631 1740.31 247.341 1782.48 265.483 1804.3C278.845 1820.73 297.356 1840.09 313.659 1857.26L322.239 1866.2C367.096 1911.62 415.959 1952.89 468.235 1989.52C519.767 2025.85 574.358 2057.64 631.393 2084.52C669.271 2101.19 724.188 2122.65 771.504 2139.07C795.163 2147.29 828.873 2155.5 849.099 2160.28C862.583 2163.59 897.029 2171.56 923.507 2175.11C975.482 2181.98 1027.7 2187.37 1063.25 2188.6C1132.98 2191.23 1202.79 2186.83 1271.64 2175.48C1340.54 2164.37 1408.23 2146.72 1473.78 2122.77C1507.61 2109.78 1555.79 2088.57 1603.1 2065.89C1616.34 2059.52 1631.91 2050.45 1646.87 2041.37L1665.87 2030.34C1707.15 2005.21 1746.75 1977.41 1784.4 1947.11C1823.52 1915.52 1860.39 1881.24 1894.73 1844.51C1931.52 1805.53 1965.28 1763.82 1995.74 1719.72C2028.76 1672.67 2057.98 1623.07 2083.14 1571.39C2095.4 1544.42 2112.19 1506.3 2124.45 1474.19C2130.58 1458.25 2136.71 1437.41 2142.71 1419.27C2145.16 1411.67 2147.49 1404.19 2149.7 1397.45C2161.18 1360.22 2169.91 1322.2 2175.81 1283.69C2182.92 1236.01 2189.29 1168.59 2191.74 1116C2193.32 1072.98 2191.48 1029.9 2186.23 987.165C2182.18 957.745 2175.32 908.467 2168.45 873.408C2163.06 846.195 2153.62 811.014 2146.51 787.601C2131.35 738.058 2113.14 689.504 2091.96 642.218C2066.18 589.535 2037.53 538.3 2006.15 488.744C1984.3 454.143 1959.7 421.349 1932.61 390.678C1861.63 312.348 1861.63 312.348 1793.84 254.122C1724.29 196.968 1647.91 148.669 1566.45 110.332C1520.63 89.3856 1473.65 71.0906 1425.73 55.538C1376.16 39.5396 1325.48 27.2475 1274.09 18.7632C1227.3 11.3869 1180.1 6.84311 1132.75 5.15657L1131.16 5.15657C1091.2 5.15657 1036.65 6.87273 994.849 9.56954C974.378 10.918 946.92 15.2084 926.816 18.273C882.686 25.1376 882.686 25.1375 791.975 49.0411C778.124 52.596 761.575 58.48 745.64 63.9962L724.923 71.106C680.216 87.7302 636.575 107.094 594.25 129.087C506.61 174.499 425.607 231.705 353.498 299.109C273.396 373.747 205.002 460.034 150.624 555.062C92.8576 655.138 51.4738 763.812 28.0412 876.963C20.1959 912.757 14.0674 960.687 10.2674 994.642C8.30604 1012.66 7.44736 1035.71 6.58928 1055.93C6.58928 1064.15 6.58982 1071.99 5.60916 1079.22C4.65306 1122.17 6.61868 1165.13 11.4929 1207.81C14.8706 1246 20.7675 1283.92 29.1448 1321.32L33.0675 1336.89C38.9515 1360.43 45.3254 1385.93 51.8222 1409.22C49.0756 1388.7 47.6837 1368.02 47.6549 1347.31C47.6549 1012.29 400.447 629.102 904.629 444.983L907.449 452.705C406.577 635.598 55.8677 1015.48 55.8677 1346.94C55.7697 1389.31 61.798 1431.46 73.765 1472.1C75.236 1477.13 76.829 1482.15 78.5451 1487.06C81.6097 1495.39 85.0424 1503.48 87.3715 1510.84Z" stroke="#A0A0A0" stroke-width="0.1" stroke-miterlimit="10"/>
</g>
<path d="M1474.64 2127.18C1408.85 2151.2 1340.92 2168.9 1271.77 2180.01C1202.92 2191.4 1133.11 2195.84 1063.38 2193.25C1021.21 2191.41 965.311 2185.16 923.265 2179.65C900.465 2176.7 870.555 2170.21 848.367 2164.81C826.18 2159.42 793.327 2151.45 770.404 2143.48C727.746 2128.65 671.358 2106.71 630.048 2088.69C514.437 2034.48 409.254 1960.38 319.301 1869.76C301.894 1851.37 278.236 1827.22 262.301 1807.61C238.765 1778.92 208.241 1739.94 187.77 1709.54C173.305 1687.6 154.305 1658.06 142.047 1634.89C123.047 1599.22 99.6332 1550.55 83.4523 1513.41C78.2179 1500.53 73.6358 1487.4 69.7231 1474.06C-36.5559 1115.51 338.669 656.19 906.349 448.658C339.037 655.945 -36.1878 1115.51 70.0912 1473.08C74.0039 1486.42 78.5861 1499.55 83.8204 1512.43C74.6267 1487.05 61.1427 1453.59 53.1748 1427.72C43.6134 1396.47 33.4389 1354.17 25.471 1322.18C16.9246 1284.59 10.9448 1246.46 7.57371 1208.06C2.98144 1165.03 1.13882 1121.75 2.05735 1078.49C3.40575 1053.11 4.01884 1019.03 6.83824 993.66C10.7609 958.111 17.0127 910.671 24.6129 875.735C48.0194 762.151 89.4005 653.029 147.195 552.485C201.874 457.17 270.55 370.603 350.927 295.675C423.291 227.937 504.631 170.479 592.66 124.918C634.712 103.218 678.067 84.1406 722.475 67.7941C742.701 61.1746 769.301 51.0003 789.895 45.6067C881.464 21.0902 881.464 21.0901 924.736 14.8384C945.33 11.6512 972.788 7.361 993.505 6.01259C1034.81 3.43836 1090.22 1.59961 1131.66 1.59961C1179.37 3.18933 1226.94 7.73359 1274.1 15.2063C1325.84 23.4165 1376.9 35.5045 1426.83 51.3681C1474.65 66.9366 1521.55 85.1894 1567.31 106.04C1649.1 144.632 1725.8 193.174 1795.68 250.565C1863.6 308.914 1863.6 308.914 1934.82 387.489C1962.24 418.131 1987.17 450.925 2009.35 485.555C2040.66 535.278 2069.3 586.631 2095.15 639.396C2116.35 686.908 2134.65 735.663 2149.95 785.392C2157.55 811.134 2166.62 845.703 2171.89 871.935C2178.63 905.891 2185.01 951.736 2189.66 986.06C2195.06 1028.98 2196.9 1072.28 2195.18 1115.51C2192.97 1166.13 2186.85 1233.55 2179.25 1283.69C2173.34 1322.41 2164.57 1360.64 2153.01 1398.06C2145.54 1421.23 2136.46 1452.36 2127.76 1475.16C2116.48 1504.83 2099.93 1543.93 2086.33 1572.62C2061.45 1624.92 2032.34 1675.1 1999.29 1722.66C1968.84 1766.98 1934.99 1808.87 1898.04 1847.94C1863.43 1884.9 1826.24 1919.35 1786.74 1951.03C1748.95 1981.49 1709.19 2009.42 1667.71 2034.63C1648.83 2045.3 1624.31 2060.62 1604.7 2069.93C1566.46 2088.32 1514.85 2111.73 1475.13 2126.93L1474.64 2127.18Z" stroke="#A0A0A0" stroke-width="0.1" stroke-miterlimit="10"/>
</svg>
