<svg width="100%" height="100%" viewBox="0 0 82 82" fill="none" xmlns="http://www.w3.org/2000/svg">
<g>
<path d="M11.7547 47.0802C10.2077 47.0802 8.94922 48.3853 8.94922 49.9896V72.5994C8.94922 74.2037 10.2077 75.5087 11.7547 75.5087C13.3017 75.5087 14.5601 74.2037 14.5601 72.5994V49.9896C14.5601 48.3853 13.3097 47.0802 11.7547 47.0802ZM31.5531 39.1419C30.0061 39.1419 28.7476 40.4469 28.7476 42.0512V72.5994C28.7476 74.2037 30.0061 75.5087 31.5531 75.5087C33.1001 75.5087 34.3585 74.2037 34.3585 72.5994V42.0512C34.3585 40.4469 33.1081 39.1419 31.5531 39.1419ZM51.3515 46.8641C49.8045 46.8641 48.546 48.1692 48.546 49.7735V72.5994C48.546 74.2037 49.8045 75.5087 51.3515 75.5087C52.8985 75.5087 54.1569 74.2037 54.1569 72.5994V49.7735C54.1569 48.1692 52.9065 46.8641 51.3515 46.8641ZM71.1498 32.9491C69.6028 32.9491 68.3444 34.2542 68.3444 35.8585V72.5994C68.3444 74.2037 69.6028 75.5087 71.1498 75.5087C72.6968 75.5087 73.9553 74.2037 73.9553 72.5994V35.8585C73.9553 34.2542 72.7049 32.9491 71.1498 32.9491ZM70.8212 25.2103C72.3682 25.1936 73.6106 23.872 73.5947 22.2677L73.4583 9.37512V9.34187C73.4583 9.292 73.4583 9.23381 73.4503 9.18393V9.14237C73.4423 9.00937 73.4183 8.88469 73.3942 8.75169C73.3942 8.74338 73.3942 8.73506 73.3862 8.73506C73.3541 8.60206 73.3141 8.47738 73.274 8.35269V8.34438C73.2259 8.21969 73.1698 8.09501 73.1056 7.97863C73.1056 7.97032 73.0976 7.97032 73.0976 7.96201C73.0656 7.90382 73.0335 7.85395 73.0014 7.80407C73.0014 7.80407 73.0014 7.79576 72.9934 7.79576C72.9614 7.74589 72.9213 7.6877 72.8892 7.63782L72.8652 7.61289L72.769 7.4882L72.7449 7.46326C72.7049 7.4217 72.6648 7.37183 72.6247 7.33027L72.5926 7.29702C72.5606 7.26377 72.5205 7.23052 72.4884 7.19727C72.4804 7.18895 72.4644 7.18064 72.4564 7.17233C72.4083 7.13077 72.3682 7.09752 72.3201 7.05596C72.3121 7.04764 72.3041 7.03933 72.2961 7.03933C72.248 7.00608 72.2079 6.97283 72.1598 6.93958C72.1518 6.93958 72.1518 6.93127 72.1438 6.93127L71.9754 6.83152H71.9674C71.7911 6.73177 71.5987 6.65696 71.3983 6.59877L71.206 6.5489H71.1979L71.0296 6.52396C71.0136 6.52396 71.0056 6.52396 70.9895 6.51565C70.9254 6.50734 70.8693 6.49902 70.8052 6.49902H57.2268C55.6798 6.49902 54.4214 7.80407 54.4214 9.40837C54.4214 11.0127 55.6798 12.3177 57.2268 12.3177H63.3908L46.7585 28.0032L34.7994 15.6011C33.7573 14.5205 32.0981 14.4623 30.984 15.4515L9.92712 34.2542C8.75685 35.3015 8.62058 37.1386 9.63054 38.3605C10.1836 39.0255 10.9691 39.3746 11.7547 39.3746C12.4039 39.3746 13.0532 39.1419 13.5822 38.6681L32.6672 21.6276L44.6745 34.0796C45.7326 35.1769 47.4399 35.2184 48.546 34.1794L67.9116 15.9253L67.9837 22.3342C68.0078 23.9385 69.2742 25.2269 70.8212 25.2103Z" fill="currentColor"/>
</g>
</svg>
