<svg width="100%" height="100%" viewBox="0 0 88 88" fill="none" xmlns="http://www.w3.org/2000/svg">
<g id="Group 1312317560">
<path id="Vector" d="M72 58H74V68H72V58Z" fill="currentColor"/>
<path id="Vector_2" d="M62 68H72V70H62V68Z" fill="currentColor"/>
<path id="Vector_3" d="M72 58V55.2545H68.674V47H65.326V55.2545H62V58H72Z" fill="currentColor"/>
<path id="Vector_4" d="M62 44H65V47H62V44Z" fill="currentColor"/>
<path id="Vector_5" d="M60 58H62V68H60V58Z" fill="currentColor"/>
<path id="Vector_6" d="M44.9288 41.2073V32.811H47.7678V30H39.2322V32.811H42.0712V41.2073H25V44H42.0712V55.2073H39.2322V58H47.7678V55.2073H44.9288V44H62V41.2073H44.9288Z" fill="currentColor"/>
<path id="Vector_7" d="M48 58H52V68H48V58Z" fill="currentColor"/>
<path id="Vector_8" d="M48 20H52V30H48V20Z" fill="currentColor"/>
<path id="Vector_9" d="M40 68H48V70H40V68Z" fill="currentColor"/>
<path id="Vector_10" d="M40 18H48V20H40V18Z" fill="currentColor"/>
<path id="Vector_11" d="M36 58H40V68H36V58Z" fill="currentColor"/>
<path id="Vector_12" d="M36 20H40V30H36V20Z" fill="currentColor"/>
<path id="Vector_13" d="M25 58H28V68H25V58Z" fill="currentColor"/>
<path id="Vector_14" d="M23 44H25V47H23V44Z" fill="currentColor"/>
<path id="Vector_15" d="M16 68H25V70H16V68Z" fill="currentColor"/>
<path id="Vector_16" d="M18.9934 55.2545H16V58H25V55.2545H22.0066V47H18.9934V55.2545Z" fill="currentColor"/>
<path id="Vector_17" d="M14 58H16V68H14V58Z" fill="currentColor"/>
<path id="Vector_18" d="M84 9H88V79H84V9Z" fill="currentColor"/>
<path id="Vector_19" d="M79 79H84V84H79V79Z" fill="currentColor"/>
<path id="Vector_20" d="M79 4H84V9H79V4Z" fill="currentColor"/>
<path id="Vector_21" d="M9 84H79V88H9V84Z" fill="currentColor"/>
<path id="Vector_22" d="M9 0H79V4H9V0Z" fill="currentColor"/>
<path id="Vector_23" d="M4 79H9V84H4V79Z" fill="currentColor"/>
<path id="Vector_24" d="M4 4H9V9H4V4Z" fill="currentColor"/>
<path id="Vector_25" d="M0 9H4V79H0V9Z" fill="currentColor"/>
</g>
</svg>
