<svg viewBox="0 0 216 85" fill="none" xmlns="http://www.w3.org/2000/svg">
<g clip-path="url(#clip0_703_3845)">
<path d="M38.231 50.1907L35.6685 44.5158L33.1062 50.1907H28.4992L25.9368 44.5158L23.3744 50.1907H18.7646L25.9366 34.3136L30.8031 45.0895L35.6696 34.3136L42.8412 50.192L38.231 50.1907ZM51.7154 50.1907H47.6172V44.5569H42.4417L40.701 40.459H47.6172V34.8257H51.7154V50.1907Z" fill="currentColor"/>
<path d="M59.0855 63.4396H11.3926V21.5604H59.0855V63.4396ZM14.437 60.3959H56.0412V24.6041H14.437V60.3959Z" fill="currentColor"/>
<path d="M75.814 48.7865H73.7139L67.8135 37.7546H70.3057L74.7679 46.1007L79.2303 37.7546H81.7234L75.814 48.7865Z" fill="currentColor"/>
<path d="M98.4142 37.7546V39.9598H87.1904V37.7546H98.4142ZM87.1904 44.3771V42.172H98.4142V44.3771H87.1904ZM98.4142 46.5823V48.7865H87.1904V46.5823H98.4142Z" fill="currentColor"/>
<path d="M106.072 40.3911V48.7865H103.883V37.7546H106.539L115.028 46.158V37.7546H117.217V48.7865H114.561L106.072 40.3911Z" fill="currentColor"/>
<path d="M135.06 37.7546V39.9598H129.927V48.7865H127.729V39.9598H122.781V37.7546H135.06Z" fill="currentColor"/>
<path d="M144.903 48.7835C143.736 48.7835 142.707 48.352 141.813 47.489C140.956 46.5906 140.528 45.5521 140.527 44.3736V37.7546H142.72V44.3736C142.721 44.9575 142.95 45.5173 143.36 45.9308C143.768 46.3443 144.323 46.5779 144.903 46.5805H148.914C149.494 46.5786 150.048 46.3458 150.458 45.9329C150.868 45.52 151.098 44.9605 151.101 44.3766V37.7576H153.286V44.3766C153.286 45.5525 152.861 46.591 152.01 47.492C151.112 48.355 150.081 48.7865 148.914 48.7865L144.903 48.7835Z" fill="currentColor"/>
<path d="M161.043 45.1093V48.7864H158.851V37.7548H166.614C167.26 37.7473 167.896 37.9192 168.453 38.2516C168.998 38.5767 169.454 39.0358 169.776 39.5858C170.111 40.167 170.281 40.8297 170.269 41.5016C170.257 42.1735 170.062 42.8293 169.706 43.3979C169.344 43.9731 168.831 44.437 168.224 44.7392L170.362 48.7482H167.876L165.936 45.1093H161.043ZM161.043 39.9599V42.9041H166.614C167.001 42.9041 167.374 42.749 167.648 42.473C167.923 42.1969 168.077 41.8225 168.077 41.4321C168.077 41.0417 167.923 40.6671 167.648 40.3911C167.374 40.1151 167.001 39.9599 166.614 39.9599H161.043Z" fill="currentColor"/>
<path d="M187.054 37.7546V39.9598H175.832V37.7546H187.054ZM175.829 44.3771V42.172H187.054V44.3771H175.829ZM187.054 46.5823V48.7865H175.832V46.5823H187.054Z" fill="currentColor"/>
<path d="M193.649 43.5386C193.073 43.0371 192.69 42.3491 192.565 41.5938C192.441 40.8382 192.582 40.0628 192.967 39.4014C193.256 38.9063 193.667 38.4933 194.159 38.2013C194.659 37.9031 195.231 37.7487 195.812 37.7547H204.958V39.9606H195.812C195.592 39.9584 195.377 40.0232 195.195 40.1467C195.013 40.2701 194.871 40.4463 194.792 40.6519C194.71 40.8576 194.693 41.083 194.743 41.2982C194.793 41.5135 194.907 41.7087 195.069 41.8577C195.272 42.0136 195.515 42.1085 195.769 42.1314C196.087 42.1665 196.408 42.1832 196.727 42.1816H196.92C197.779 42.1964 198.639 42.1988 199.498 42.1887H199.75C200.169 42.1833 200.587 42.1756 201.001 42.1655C201.144 42.1655 201.291 42.1655 201.439 42.1585C201.801 42.1488 202.164 42.1638 202.524 42.2037C202.92 42.2498 203.305 42.362 203.663 42.5358C204.61 43.0246 205.192 43.7984 205.412 44.8573C205.505 45.3456 205.489 45.8485 205.366 46.33C205.236 46.8379 204.987 47.3067 204.637 47.6959C204.33 48.0375 203.954 48.3114 203.536 48.5007C203.122 48.6904 202.671 48.7878 202.217 48.7864H192.889V46.5855H202.217C202.376 46.5829 202.533 46.5449 202.675 46.4745C202.818 46.4041 202.945 46.3028 203.044 46.178C203.144 46.0531 203.215 45.9077 203.252 45.7522C203.289 45.5966 203.292 45.4346 203.26 45.2778C203.233 45.1162 203.169 44.9635 203.071 44.8321C202.974 44.7007 202.847 44.5945 202.7 44.5224C202.31 44.3802 201.893 44.3272 201.48 44.3675C201.338 44.3735 201.194 44.3756 201.051 44.3756C200.632 44.3855 200.206 44.3932 199.77 44.3986H199.517C198.643 44.4147 197.762 44.4121 196.878 44.3906H196.709C196.201 44.399 195.693 44.359 195.193 44.2709C194.625 44.1642 194.093 43.912 193.649 43.5386Z" fill="currentColor"/>
</g>
<defs>
<clipPath id="clip0_703_3845">
<rect width="195" height="41.8792" fill="white" transform="translate(10.7383 21.5604)"/>
</clipPath>
</defs>
</svg>
