<svg viewBox="0 0 33 32" fill="none" xmlns="http://www.w3.org/2000/svg">
<g clip-path="url(#clip0_791_2606)">
<path d="M32.5 12.1851H30.98V19.8051H32.5V12.1851Z" fill="currentColor"/>
<path d="M30.98 19.8047H29.46V22.8547H30.98V19.8047Z" fill="currentColor"/>
<path d="M30.98 9.14502H29.46V12.185H30.98V9.14502Z" fill="currentColor"/>
<path d="M29.4602 22.855H27.9302V24.375H29.4602V22.855Z" fill="currentColor"/>
<path d="M29.4602 12.1851H27.9302V13.7151H29.4602V12.1851Z" fill="currentColor"/>
<path d="M29.4602 7.61475H27.9302V9.14475H29.4602V7.61475Z" fill="currentColor"/>
<path d="M27.9302 10.665H26.4102V12.185H27.9302V10.665Z" fill="currentColor"/>
<path d="M24.8799 18.2849H26.4099V13.7149H24.8799V7.61494H27.9299V6.09494H24.8799V4.56494H23.3599V27.4249H24.8799V25.9049H27.9299V24.3749H24.8799V18.2849Z" fill="currentColor"/>
<path d="M23.3598 27.4248H2.02979V28.9548H23.3598V27.4248Z" fill="currentColor"/>
<path d="M18.7902 15.235H15.7402V16.755H14.2202V19.805H15.7402V21.335H18.7902V19.805H20.3102V9.14502H18.7902V15.235ZM18.7902 18.285H17.2702V16.755H18.7902V18.285Z" fill="currentColor"/>
<path d="M18.7902 7.61475H15.7402V9.14475H18.7902V7.61475Z" fill="currentColor"/>
<path d="M15.7399 9.14502H12.6899V10.665H15.7399V9.14502Z" fill="currentColor"/>
<path d="M12.6899 10.665H9.6499V12.185H12.6899V10.665Z" fill="currentColor"/>
<path d="M8.1198 18.2851H5.0798V19.8051H3.5498V22.8551H5.0798V24.3751H8.1198V22.8551H9.6498V12.1851H8.1198V18.2851ZM8.1198 21.3351H6.5998V19.8051H8.1198V21.3351Z" fill="currentColor"/>
<path d="M23.3598 3.04492H2.02979V4.56492H23.3598V3.04492Z" fill="currentColor"/>
<path d="M2.03 4.56494H0.5V27.4249H2.03V4.56494Z" fill="currentColor"/>
</g>
<defs>
<clipPath id="clip0_791_2606">
<rect width="32" height="32" fill="currentColor" transform="translate(0.5)"/>
</clipPath>
</defs>
</svg>
