<svg width="100%" height="100%" viewBox="0 0 77 78" fill="none" xmlns="http://www.w3.org/2000/svg">
<g id="Interface-Essential-Cog-Browser--Streamline-Pixel">
<path id="Vector" d="M73.1671 15.281H3.80768V4.33203H0.166016V73.6914H3.80768V18.9227H73.1671V73.6914H76.8327V4.33203H73.1671V15.281Z" fill="currentColor"/>
<path id="Vector_2" d="M3.80859 73.6914H73.168V77.3331H3.80859V73.6914Z" fill="currentColor"/>
<path id="Vector_3" d="M54.9355 55.4355H58.5772V59.0772H54.9355V55.4355Z" fill="currentColor"/>
<path id="Vector_4" d="M54.9355 33.5371H58.5772V37.1788H54.9355V33.5371Z" fill="currentColor"/>
<path id="Vector_5" d="M51.2695 59.0762H54.9352V62.7418H51.2695V59.0762Z" fill="currentColor"/>
<path id="Vector_6" d="M51.2695 51.793H54.9352V55.4346H51.2695V51.793Z" fill="currentColor"/>
<path id="Vector_7" d="M51.2695 37.1797H54.9352V40.8214H51.2695V37.1797Z" fill="currentColor"/>
<path id="Vector_8" d="M51.2695 29.8711H54.9352V33.5367H51.2695V29.8711Z" fill="currentColor"/>
<path id="Vector_9" d="M47.6289 62.7422H51.2706V66.3839H47.6289V62.7422Z" fill="currentColor"/>
<path id="Vector_10" d="M47.6289 26.2305H51.2706V29.8721H47.6289V26.2305Z" fill="currentColor"/>
<path id="Vector_11" d="M43.9629 59.0762H47.6285V62.7418H43.9629V59.0762Z" fill="currentColor"/>
<path id="Vector_12" d="M43.9629 40.8203H47.6285V51.7932H43.9629V40.8203Z" fill="currentColor"/>
<path id="Vector_13" d="M43.9629 29.8711H47.6285V33.5367H43.9629V29.8711Z" fill="currentColor"/>
<path id="Vector_14" d="M33.0137 51.793H43.9626V55.4346H33.0137V51.793Z" fill="currentColor"/>
<path id="Vector_15" d="M33.0137 37.1797H43.9626V40.8214H33.0137V37.1797Z" fill="currentColor"/>
<path id="Vector_16" d="M29.3711 59.0762H33.0128V62.7418H29.3711V59.0762Z" fill="currentColor"/>
<path id="Vector_17" d="M29.3711 40.8203H33.0128V51.7932H29.3711V40.8203Z" fill="currentColor"/>
<path id="Vector_18" d="M29.3711 29.8711H33.0128V33.5367H29.3711V29.8711Z" fill="currentColor"/>
<path id="Vector_19" d="M25.7305 62.7422H29.3721V66.3839H25.7305V62.7422Z" fill="currentColor"/>
<path id="Vector_20" d="M25.7305 26.2305H29.3721V29.8721H25.7305V26.2305Z" fill="currentColor"/>
<path id="Vector_21" d="M22.0645 59.0762H25.7301V62.7418H22.0645V59.0762Z" fill="currentColor"/>
<path id="Vector_22" d="M22.0645 51.793H25.7301V55.4346H22.0645V51.793Z" fill="currentColor"/>
<path id="Vector_23" d="M22.0645 37.1797H25.7301V40.8214H22.0645V37.1797Z" fill="currentColor"/>
<path id="Vector_24" d="M22.0645 29.8711H25.7301V33.5367H22.0645V29.8711Z" fill="currentColor"/>
<path id="Vector_25" d="M22.0645 7.97461H25.7301V11.6163H22.0645V7.97461Z" fill="currentColor"/>
<path id="Vector_26" d="M18.4238 55.4355H22.0655V59.0772H18.4238V55.4355Z" fill="currentColor"/>
<path id="Vector_27" d="M18.4238 33.5371H22.0655V37.1788H18.4238V33.5371Z" fill="currentColor"/>
<path id="Vector_28" d="M14.7578 7.97461H18.4234V11.6163H14.7578V7.97461Z" fill="currentColor"/>
<path id="Vector_29" d="M7.47461 7.97461H11.1163V11.6163H7.47461V7.97461Z" fill="currentColor"/>
<path id="Vector_30" d="M3.80859 0.666016H73.168V4.33164H3.80859V0.666016Z" fill="currentColor"/>
</g>
</svg>
