<svg viewBox="0 0 344 85" fill="none" xmlns="http://www.w3.org/2000/svg">
<path d="M156.824 32.0093V34.268H145.559V41.4508H155.643V43.7096H145.559V52.9905H142.937V32.0093H156.824ZM169.415 31.6017C175.566 31.6017 179.759 35.5354 179.759 42.4998C179.759 49.4642 175.566 53.398 169.415 53.398C163.264 53.398 159.071 49.4642 159.071 42.4998C159.071 35.5354 163.264 31.6017 169.415 31.6017ZM169.415 51.0961C174.04 51.0961 177.065 47.9783 177.065 42.4998C177.065 37.0214 174.039 33.9035 169.415 33.9035C164.791 33.9035 161.766 37.0214 161.766 42.4998C161.766 47.9783 164.791 51.0961 169.415 51.0961ZM186.257 32.0093V45.1955C186.257 48.9549 188.201 50.9943 191.99 50.9943C195.779 50.9943 197.724 48.9549 197.724 45.1955V32.0093H200.375V45.2533C200.375 50.1637 197.623 53.3393 191.99 53.3393C186.357 53.3393 183.62 50.1628 183.62 45.2533V32.0093H186.257ZM208.457 32.0093L219.075 49.0999H219.305V32.0093H221.855V52.9905H218.672L208.069 35.8999H207.838V52.9905H205.288V32.0093H208.457ZM244.675 42.4999C244.675 49.0274 240.612 52.9905 234.504 52.9905H226.898V32.0093H234.504C240.613 32.0093 244.675 35.9724 244.675 42.4999ZM234.432 50.6886C238.956 50.6886 241.995 47.7892 241.995 42.4999C241.995 37.2105 238.955 34.3112 234.432 34.3112H229.534V50.6878H234.432V50.6886ZM257.209 32.0093L264.787 52.5527V52.9896H262.151L259.961 46.9578H250.986L248.81 52.9896H246.246V52.5527L253.809 32.0093H257.209ZM259.198 44.6559L255.596 34.6902H255.365L251.749 44.6559H259.198ZM282.147 32.0093V34.3258H274.655V52.9905H272.005V34.3258H264.513V32.0093H282.147ZM288.256 32.0093V52.9905H285.604V32.0093H288.256ZM302.561 31.6017C308.712 31.6017 312.906 35.5354 312.906 42.4998C312.906 49.4642 308.712 53.398 302.561 53.398C296.41 53.398 292.217 49.4642 292.217 42.4998C292.217 35.5354 296.41 31.6017 302.561 31.6017ZM302.561 51.0961C307.186 51.0961 310.211 47.9783 310.211 42.4998C310.211 37.0214 307.185 33.9035 302.561 33.9035C297.937 33.9035 294.912 37.0214 294.912 42.4998C294.912 47.9783 297.937 51.0961 302.561 51.0961ZM320.051 32.0093L330.669 49.0999H330.898V32.0093H333.449V52.9905H330.265L319.661 35.8999H319.432V52.9905H316.881V32.0093H320.051ZM61.5711 31.6399C59.2991 31.6399 57.6471 32.183 56.2436 33.4359L53.7653 35.6074C53.5587 35.7749 53.1456 35.9001 52.857 35.6488C52.5675 35.3984 52.5264 35.0643 52.774 34.7301L54.0958 32.7253C54.3024 32.4326 54.1374 32.057 53.7653 32.057H50.5852C50.2137 32.057 49.9245 32.3497 49.9245 32.7253V52.2732C49.9245 52.6488 50.2137 52.9415 50.5852 52.9415H53.8892C54.2605 52.9415 54.55 52.6488 54.55 52.2732V41.2464C54.55 36.1928 58.7213 35.3993 60.2903 35.3993C63.6353 35.3993 64.8331 37.8221 64.8331 39.6594V52.2732C64.8331 52.6488 65.1224 52.9415 65.4939 52.9415H68.7979C69.1691 52.9415 69.4586 52.6488 69.4586 52.2732V39.2415C69.4586 34.5635 66.4432 31.6399 61.5702 31.6399H61.5711ZM82.9209 31.5558C76.5198 31.5558 72.4312 35.5241 72.4312 40.9119V43.8777C72.4312 49.5582 76.5198 53.4428 82.9209 53.4428C88.5787 53.4428 92.5434 50.4769 92.9565 46.4671C92.9984 46.0492 92.7089 45.7574 92.2958 45.7574H89.0747C88.7852 45.7574 88.5376 45.9249 88.455 46.2168C88.0416 47.5534 86.1013 49.5582 82.9209 49.5582C79.7409 49.5582 76.7674 47.2192 76.8084 43.8777L76.8501 40.1607C76.8911 37.3623 79.7828 35.4412 82.9209 35.4412C85.7707 35.4412 88.5376 37.0705 88.8262 39.7437C88.8501 40.0528 88.6402 40.3317 88.3389 40.3904L79.0792 42.2079C78.7077 42.2916 78.4185 42.6258 78.4185 43.0428V43.0843C78.4185 43.4599 78.7897 43.794 79.3268 43.794H92.6254C92.9909 43.794 93.2861 43.4944 93.2861 43.1257V40.4948C93.2861 35.525 89.0319 31.5566 82.92 31.5566L82.9209 31.5558ZM105.965 31.5558C100.802 31.5558 96.3425 34.6045 96.3425 38.6143C96.3425 38.9484 96.632 39.1988 97.0033 39.1988H100.348C100.678 39.1988 100.926 38.9484 100.968 38.6143C101.299 36.7769 103.487 35.4403 105.841 35.4403C108.649 35.4403 110.549 37.1948 110.549 40.2021V43.8363C110.549 47.5533 107.824 49.433 104.437 49.433C101.794 49.433 100.265 48.4305 100.265 46.8013C100.265 45.3809 101.009 44.1695 104.064 43.4598L108.483 42.2484C108.938 42.1232 109.103 41.7468 109.02 41.3298C108.979 40.9956 108.608 40.8281 108.277 40.8281H103.693C99.8112 40.8281 95.8875 43.3337 95.8875 47.0094V47.5939C95.8875 51.3533 99.398 53.3158 103.404 53.3158C105.964 53.3158 108.153 52.3134 109.516 51.1443L111.54 49.3898C111.87 49.0971 112.201 49.0971 112.489 49.3898C112.737 49.6402 112.654 50.0167 112.447 50.3085L111.209 52.2719C111.002 52.5646 111.167 52.9402 111.539 52.9402H114.512C114.884 52.9402 115.173 52.6475 115.173 52.2719V39.6158C115.173 34.7712 111.745 31.5549 105.963 31.5549L105.965 31.5558ZM133.014 32.0578H128.389C126.779 32.0578 125.209 33.0602 124.094 34.0212L122.277 35.6082C122.071 35.7757 121.698 35.9009 121.451 35.692C121.161 35.483 121.037 35.0651 121.286 34.731L122.608 32.7261C122.814 32.4334 122.649 32.0578 122.277 32.0578H119.18C118.808 32.0578 118.519 32.3505 118.519 32.7261V52.2741C118.519 52.6497 118.808 52.9424 119.18 52.9424H122.567C122.938 52.9424 123.227 52.6497 123.227 52.2741V42.2497C123.227 37.9472 124.962 36.0261 128.72 36.0261H133.015C133.387 36.0261 133.676 35.7334 133.676 35.3578V32.7261C133.676 32.3505 133.387 32.0578 133.015 32.0578H133.014ZM37.5121 27.3469C36.4023 27.3469 35.3718 27.9288 34.7904 28.8855L28.5266 38.2908C28.3226 38.6008 28.4054 39.0187 28.7119 39.225C28.9603 39.3925 29.289 39.3718 29.5152 39.1749L35.6809 33.7664C35.7833 33.6732 35.9413 33.6827 36.0335 33.7863C36.0753 33.8338 36.0975 33.8951 36.0975 33.9581V50.8917C36.0975 51.0315 35.9857 51.1438 35.8474 51.1438C35.7731 51.1438 35.7031 51.1109 35.6561 51.0531L17.0183 28.49C16.4113 27.7656 15.52 27.3477 14.5818 27.3469H13.9304C12.1674 27.3469 10.7383 28.7922 10.7383 30.5752V54.4248C10.7383 56.2077 12.1674 57.6531 13.9304 57.6531C15.0402 57.6531 16.0707 57.0712 16.6521 56.1145L22.9159 46.7092C23.1199 46.3992 23.0371 45.9813 22.7306 45.775C22.4822 45.6075 22.1535 45.6282 21.9273 45.825L15.7616 51.2336C15.6592 51.3268 15.5013 51.3173 15.409 51.2137C15.3672 51.1662 15.345 51.1049 15.3459 51.0419V34.104C15.3459 33.9642 15.4577 33.8519 15.596 33.8519C15.6694 33.8519 15.7403 33.8847 15.7872 33.9426L34.4225 56.51C35.0295 57.2344 35.9208 57.6523 36.859 57.6531H37.5104C39.2734 57.654 40.7034 56.2095 40.7051 54.4265V30.5752C40.7051 28.7922 39.2759 27.3469 37.513 27.3469H37.5121Z" fill="currentColor"/>
</svg>
