<svg width="100%" height="100%" viewBox="0 0 82 82" fill="none" xmlns="http://www.w3.org/2000/svg">
<g>
<path d="M67.5799 23.4163C67.4779 23.4658 67.3764 23.5149 67.2757 23.5638C66.1216 23.7522 64.5659 23.415 63.0296 22.6623C61.4165 21.8719 60.188 20.8019 59.7132 19.9893C59.3961 19.4465 58.774 19.159 58.1551 19.2692C57.5362 19.3794 57.0516 19.8639 56.9413 20.4829C55.9682 25.9442 56.8434 30.6255 59.892 33.2405L59.8946 33.2428C59.9024 33.2495 59.9103 33.2561 59.9182 33.2626C61.7204 34.7383 61.9885 36.0371 61.9201 36.9174C61.8424 37.9174 61.2996 38.7126 61.0543 38.9753C59.7592 40.3599 57.3822 40.911 54.9846 40.3585C52.6198 39.8135 50.6647 38.2914 50.0573 36.0721C47.5852 27.0393 43.4603 22.2882 39.0286 19.8671C34.6949 17.4996 30.2936 17.4999 27.573 17.5L27.5097 17.5C27.4906 17.5 27.4715 17.5004 27.4524 17.5011C17.8079 17.8699 12.0263 22.1336 8.83624 27.4421C5.82053 32.4604 5.19701 38.2748 5.54231 42.2881C4.03514 45.2572 3.3447 47.4524 3.52943 49.344C3.7311 51.4091 4.94897 52.7905 6.16122 54.0866C6.17305 54.0993 6.1851 54.1117 6.19736 54.124C12.6402 60.551 21.1402 63.4861 29.3103 64.2736C37.4701 65.0601 45.4437 63.7207 50.9951 61.4394C50.9994 61.4377 51.0036 61.4359 51.0077 61.4342C51.0149 61.4311 51.0221 61.4281 51.0293 61.4249C56.8187 58.8768 61.2019 55.1989 64.2157 51.4944C66.9721 48.1063 68.6553 44.6034 69.144 41.8381C74.0438 38.1461 76.5767 33.305 77.7132 28.9599C78.3006 26.714 78.5198 24.5855 78.4986 22.788C78.4778 21.0251 78.2243 19.467 77.7762 18.4131C77.552 17.8856 77.0467 17.5321 76.4744 17.5021C75.902 17.472 75.3626 17.7708 75.0844 18.2719C74.5517 19.2312 73.4189 20.2001 71.8637 21.1601C70.4979 22.0031 68.9798 22.7383 67.5799 23.4163Z" stroke="currentColor" stroke-width="3" stroke-linejoin="round"/>
<path d="M15 33C15 35.2091 16.7909 37 19 37C21.2091 37 23 35.2091 23 33C23 30.7909 21.2091 29 19 29C16.7909 29 15 30.7909 15 33Z" fill="currentColor"/>
</g>
</svg>
