<svg width="100%" height="100%" viewBox="0 0 84 84" fill="none" xmlns="http://www.w3.org/2000/svg">
<g id="Business-Products-Deal-Handshake--Streamline-Pixel">
<path id="Vector" d="M80.2266 19.9629H84.2324V23.9687H80.2266V19.9629Z" fill="currentColor"/>
<path id="Vector_2" d="M72.1884 40.0449V44.0508H64.1767V48.0829H72.1884V72.1707H56.1387V76.1765H72.1884V80.2087H84.2322V40.0449H72.1884Z" fill="currentColor"/>
<path id="Vector_3" d="M76.2207 23.9688H80.2265V28.0009H76.2207V23.9688Z" fill="currentColor"/>
<path id="Vector_4" d="M72.1895 19.9629H76.2216V23.9687H72.1895V19.9629Z" fill="currentColor"/>
<path id="Vector_5" d="M68.1836 23.9688H72.1894V28.0009H68.1836V23.9688Z" fill="currentColor"/>
<path id="Vector_6" d="M68.1836 3.91211H72.1894V7.91794H68.1836V3.91211Z" fill="currentColor"/>
<path id="Vector_7" d="M64.1777 19.9629H68.1836V23.9687H64.1777V19.9629Z" fill="currentColor"/>
<path id="Vector_8" d="M60.1445 40.0449H64.1767V44.0508H60.1445V40.0449Z" fill="currentColor"/>
<path id="Vector_9" d="M56.1387 36.0391H60.1445V40.0449H56.1387V36.0391Z" fill="currentColor"/>
<path id="Vector_10" d="M56.1396 60.125H52.1074V68.163H44.0957V76.1747H48.1015V72.1689H56.1396V60.125Z" fill="currentColor"/>
<path id="Vector_11" d="M48.1016 56.1191H52.1074V60.125H48.1016V56.1191Z" fill="currentColor"/>
<path id="Vector_12" d="M48.1016 7.91797H52.1074V11.9238H48.1016V7.91797Z" fill="currentColor"/>
<path id="Vector_13" d="M44.0957 52.0879H48.1015V56.1201H44.0957V52.0879Z" fill="currentColor"/>
<path id="Vector_14" d="M44.0957 44.0488H48.1015V48.081H44.0957V44.0488Z" fill="currentColor"/>
<path id="Vector_15" d="M40.0645 32.0059H56.1405V36.038H40.0645V32.0059Z" fill="currentColor"/>
<path id="Vector_16" d="M44.0957 11.9238H48.1015V15.956H44.0957V11.9238Z" fill="currentColor"/>
<path id="Vector_17" d="M44.0957 3.91211H48.1015V7.91794H44.0957V3.91211Z" fill="currentColor"/>
<path id="Vector_18" d="M40.0645 64.1309H44.0966V68.163H40.0645V64.1309Z" fill="currentColor"/>
<path id="Vector_19" d="M40.0645 48.082H44.0966V52.0879H40.0645V48.082Z" fill="currentColor"/>
<path id="Vector_20" d="M40.0645 7.91797H44.0966V11.9238H40.0645V7.91797Z" fill="currentColor"/>
<path id="Vector_21" d="M36.0575 80.208H24.0137V84.2138H40.0634V80.208H44.0955V76.1758H36.0575V80.208Z" fill="currentColor"/>
<path id="Vector_22" d="M36.0586 36.0391H40.0644V40.0449H36.0586V36.0391Z" fill="currentColor"/>
<path id="Vector_23" d="M32.0254 72.1699H36.0576V76.1758H32.0254V72.1699Z" fill="currentColor"/>
<path id="Vector_24" d="M32.0254 52.0879H40.0634V56.1201H32.0254V52.0879Z" fill="currentColor"/>
<path id="Vector_25" d="M32.0254 40.0449H36.0576V44.0508H32.0254V40.0449Z" fill="currentColor"/>
<path id="Vector_26" d="M28.0195 32.0059H36.0576V36.038H28.0195V32.0059Z" fill="currentColor"/>
<path id="Vector_27" d="M28.0195 68.1641H32.0254V72.1699H28.0195V68.1641Z" fill="currentColor"/>
<path id="Vector_28" d="M28.0195 44.0488H32.0254V52.0868H28.0195V44.0488Z" fill="currentColor"/>
<path id="Vector_29" d="M28.0195 15.957H32.0254V19.9629H28.0195V15.957Z" fill="currentColor"/>
<path id="Vector_30" d="M24.0137 36.0391H28.0195V40.0449H24.0137V36.0391Z" fill="currentColor"/>
<path id="Vector_31" d="M19.9824 76.1758H24.0146V80.208H19.9824V76.1758Z" fill="currentColor"/>
<path id="Vector_32" d="M19.9824 40.0449H24.0146V44.0508H19.9824V40.0449Z" fill="currentColor"/>
<path id="Vector_33" d="M11.9706 72.1707V48.0829H19.9823V44.0508H11.9706V40.0449H-0.0996094V80.2087H11.9706V76.1765H19.9823V72.1707H11.9706Z" fill="currentColor"/>
<path id="Vector_34" d="M15.9766 -0.119141H19.9824V3.91305H15.9766V-0.119141Z" fill="currentColor"/>
<path id="Vector_35" d="M11.9697 32.0067V28.0009H15.9755V23.9687H11.9697V19.9629H7.93747V23.9687H3.93164V28.0009H7.93747V32.0067H11.9697Z" fill="currentColor"/>
</g>
</svg>
