<svg width="100%" height="100%" viewBox="0 0 80 100" fill="none" xmlns="http://www.w3.org/2000/svg">
<g id="Group">
<path id="Vector" d="M75.1758 14.3105H79.925V95.2354H75.1758V14.3105Z" fill="currentColor"/>
<path id="Vector_2" d="M70.3965 9.53027H75.177V14.3108H70.3965V9.53027Z" fill="currentColor"/>
<path id="Vector_3" d="M65.6465 4.78027H70.3957V9.52953H65.6465V4.78027Z" fill="currentColor"/>
<path id="Vector_4" d="M70.3888 23.8093H65.6395V19.0757H60.8903V14.3108H56.1098V9.53027H-1V100H70.3888V23.8093ZM65.6395 95.2356H3.74925V14.3108H46.5863V33.339H65.6458L65.6395 95.2356Z" fill="currentColor"/>
<path id="Vector_5" d="M3.75 0H65.6465V4.7805H3.75V0Z" fill="currentColor"/>
<path id="Vector_6" d="M13.2793 80.9561H56.1163V85.7053H13.2793V80.9561Z" fill="currentColor"/>
<path id="Vector_7" d="M13.2793 61.8965H56.1163V66.677H13.2793V61.8965Z" fill="currentColor"/>
<path id="Vector_8" d="M13.2793 42.8682H56.1163V47.6174H13.2793V42.8682Z" fill="currentColor"/>
<path id="Vector_9" d="M13.2793 23.8086H32.3076V28.5891H13.2793V23.8086Z" fill="currentColor"/>
</g>
</svg>
