<svg xmlns="http://www.w3.org/2000/svg" viewBox="0 0 28 28"><g fill="currentColor" fill-rule="evenodd" transform="translate(1.262)"><polygon fill-rule="nonzero" points="23.8 8.399 25.206 8.399 25.206 25.206 23.8 25.206"/><polygon fill-rule="nonzero" points="22.404 25.206 23.8 25.206 23.8 26.603 22.404 26.603"/><polygon fill-rule="nonzero" points="22.404 7.002 23.8 7.002 23.8 8.399 22.404 8.399"/><polygon fill-rule="nonzero" points="2.803 26.603 22.404 26.603 22.404 28 2.803 28"/><polygon fill-rule="nonzero" points="16.798 5.596 22.404 5.596 22.404 7.002 16.798 7.002"/><polygon fill-rule="nonzero" points="15.401 2.794 16.798 2.794 16.798 5.596 15.401 5.596"/><polygon fill-rule="nonzero" points="14.005 1.397 15.401 1.397 15.401 2.794 14.005 2.794"/><polygon fill-rule="nonzero" points="11.202 0 14.005 0 14.005 1.397 11.202 1.397"/><polygon fill-rule="nonzero" points="9.796 1.397 11.202 1.397 11.202 2.794 9.796 2.794"/><polygon fill-rule="nonzero" points="8.399 2.794 9.796 2.794 9.796 5.596 8.399 5.596"/><polygon fill-rule="nonzero" points="3.975 15.406 5.381 15.406 5.381 18.209 3.975 18.209"/><polygon fill-rule="nonzero" points="2.578 18.208 3.975 18.208 3.975 19.605 2.578 19.605"/><polygon fill-rule="nonzero" points="2.578 14 3.975 14 3.975 15.406 2.578 15.406"/><polygon fill-rule="nonzero" points="2.803 5.596 8.399 5.596 8.399 7.002 2.803 7.002"/><polygon fill-rule="nonzero" points="1.397 12.599 1.397 8.399 0 8.399 0 13.995 2.529 13.995 2.529 12.599"/><polygon fill-rule="nonzero" points="1.397 25.206 2.803 25.206 2.803 26.603 1.397 26.603"/><polygon fill-rule="nonzero" points="1.397 7.002 2.803 7.002 2.803 8.399 1.397 8.399"/><polygon fill-rule="nonzero" points="1.397 20.998 2.529 20.998 2.529 19.601 0 19.601 0 25.206 1.397 25.206"/><path d="M19.5809469,9.36096602 C19.9768581,9.75691058 17.3232042,13.0525166 13.6538083,16.7219125 C9.98437904,20.3913418 6.68877301,23.0449957 6.29286187,22.6490845 C6.06814019,22.4243294 6.82577805,21.2655676 8.19392371,19.6345727 C8.04609193,19.4376196 7.91129234,19.2320452 7.78999276,19.0193867 C7.28925606,18.1412178 7.01925589,17.1404462 7.01925589,16.1118391 C7.01925589,14.5551945 7.63761643,13.062274 8.73836836,11.9615555 C9.83908687,10.860837 11.3319739,10.2424765 12.8886519,10.2424765 C13.917259,10.2424765 14.9179972,10.5124766 15.7961661,11.0132133 C16.0033779,11.1313718 16.2037728,11.262362 16.3960811,11.4057161 C18.1164634,9.94731416 19.3485062,9.12852528 19.5809469,9.36096602 Z M10.2240376,17.3522359 C10.8418301,16.6902008 11.5120186,15.9961199 12.2200005,15.2881046 C12.8704403,14.6377317 13.5090842,14.0192041 14.1219311,13.44395 C13.7389854,13.2669128 13.3186806,13.1727135 12.8886519,13.1727135 C12.1091267,13.1727135 11.361547,13.4823448 10.8103523,14.0335395 C10.2591577,14.5847342 9.94949288,15.3323472 9.94949288,16.1118391 C9.94949288,16.5445411 10.0448952,16.9673854 10.2240376,17.3522359 Z M9.62355456,20.9888174 C9.65182437,21.0076973 9.68022786,21.0264102 9.70879842,21.044789 C10.649622,21.65122 11.7523455,21.9810346 12.8890529,21.9810346 C14.4456974,21.9810346 15.9385845,21.3626406 17.039303,20.2619221 C18.1400215,19.1612036 18.7584823,17.6682831 18.7584823,16.1116386 C18.7584823,14.9749312 18.4287012,13.8722077 17.8222367,12.9313841 C17.8093047,12.9114014 17.7964062,12.891519 17.783207,12.8717034 C17.5295471,13.2009833 17.253198,13.5447991 16.9565653,13.8999429 C17.3223688,14.5727044 17.5189877,15.3320131 17.5189877,16.1116386 C17.5189877,17.3395379 17.031183,18.5171463 16.1629052,19.385424 C15.2946274,20.2537018 14.1169856,20.7415066 12.8890529,20.7415066 C12.1020759,20.7415066 11.3357499,20.5411117 10.6582767,20.1686919 C10.2998916,20.4644223 9.95383694,20.738566 9.62355456,20.9888174 Z M11.0796174,19.8158204 C11.6378962,20.0884604 12.255956,20.2341535 12.8890529,20.2341535 C13.9823865,20.2341535 15.0309429,19.7998142 15.8040857,19.0267048 C16.5771951,18.2535954 17.0115344,17.2049722 17.0115344,16.1116386 C17.0115344,15.4849241 16.8688821,14.8729126 16.6014216,14.319078 C16.308732,14.6599198 15.9988333,15.0095834 15.6738306,15.3653621 C15.7385237,15.6066915 15.7721067,15.8574441 15.7721067,16.1116386 C15.7721067,16.8762603 15.4683231,17.609538 14.9276544,18.1502067 C14.3869858,18.6908753 13.6536747,18.9946255 12.8890529,18.9946255 C12.6306814,18.9946255 12.3758855,18.9599733 12.1308804,18.893175 C11.7728294,19.2172754 11.421495,19.5254031 11.0796174,19.8158204 Z"/></g></svg>