<svg width="100%" height="100%" viewBox="0 0 77 76" fill="none" xmlns="http://www.w3.org/2000/svg">
<g id="Interface-Essential-Question-Help-Square--Streamline-Pixel">
<path id="Vector" d="M73.1914 6.97461H76.8331V69.0267H73.1914V6.97461Z" fill="currentColor"/>
<path id="Vector_2" d="M69.5254 69.0254H73.191V72.691H69.5254V69.0254Z" fill="currentColor"/>
<path id="Vector_3" d="M69.5254 3.30859H73.191V6.97422H69.5254V3.30859Z" fill="currentColor"/>
<path id="Vector_4" d="M7.47461 72.6914H69.5267V76.3331H7.47461V72.6914Z" fill="currentColor"/>
<path id="Vector_5" d="M65.8835 58.0762H62.2418V61.7178H58.5762V65.3835H62.2418V69.0251H65.8835V65.3835H69.5251V61.7178H65.8835V58.0762Z" fill="currentColor"/>
<path id="Vector_6" d="M65.8835 6.97461H62.2418V10.6163H58.5762V14.2579H62.2418V17.9236H65.8835V14.2579H69.5251V10.6163H65.8835V6.97461Z" fill="currentColor"/>
<path id="Vector_7" d="M14.7819 58.0762H11.1163V61.7178H7.47461V65.3835H11.1163V69.0251H14.7819V65.3835H18.4236V61.7178H14.7819V58.0762Z" fill="currentColor"/>
<path id="Vector_8" d="M14.7819 6.97461H11.1163V10.6163H7.47461V14.2579H11.1163V17.9236H14.7819V14.2579H18.4236V10.6163H14.7819V6.97461Z" fill="currentColor"/>
<path id="Vector_9" d="M7.47461 -0.333984H69.5267V3.30768H7.47461V-0.333984Z" fill="currentColor"/>
<path id="Vector_10" d="M3.83203 69.0254H7.4737V72.691H3.83203V69.0254Z" fill="currentColor"/>
<path id="Vector_11" d="M3.83203 3.30859H7.4737V6.97422H3.83203V3.30859Z" fill="currentColor"/>
<path id="Vector_12" d="M0.166016 6.97461H3.83164V69.0267H0.166016V6.97461Z" fill="currentColor"/>
<path id="Vector_13" d="M18.7266 41.7113H22.3682V45.353H26.0099V48.9947H29.6755V52.6603H36.9589V48.9947H40.6245V45.353H44.2661V41.7113H47.9318V38.0457H51.5734V34.404H55.2151V30.7624H58.8807V27.0967H55.2151V23.4551H51.5734V27.0967H47.9318V30.7624H44.2661V34.404H40.6245V38.0457H36.9589V41.7113H29.6755V38.0457H26.0099V34.404H22.3682V38.0457H18.7266V41.7113Z" fill="currentColor"/>
</g>
</svg>
