<svg viewBox="0 0 33 32" fill="none" xmlns="http://www.w3.org/2000/svg">
<path d="M22.9216 8.14375V11.0031H21.4966V15.2875H22.9216V16.7125H24.356V18.1469H20.0716V19.5719H18.6372V20.9969H22.9216V23.8562H21.4966V26.7156H22.9216V28.1406H25.781V26.7156H27.2153V25.2812H28.6403V22.4313H30.0653V19.5719H31.4997V12.4281H30.0653V9.56875H28.6403V6.71875H27.2153V8.14375H22.9216Z" fill="currentColor"/>
<path d="M27.2156 5.28418H25.7812V6.71855H27.2156V5.28418Z" fill="currentColor"/>
<path d="M25.7812 3.85938H22.9219V5.28438H25.7812V3.85938Z" fill="currentColor"/>
<path d="M22.9218 28.1406H20.0718V29.575H22.9218V28.1406Z" fill="currentColor"/>
<path d="M22.9218 2.4248H20.0718V3.85918H22.9218V2.4248Z" fill="currentColor"/>
<path d="M17.2126 28.1408H15.7876V26.7158H11.4938V28.1408H10.0688V29.5752H12.9282V31.0002H20.072V29.5752H17.2126V28.1408Z" fill="currentColor"/>
<path d="M20.072 1H12.9282V2.425H20.072V1Z" fill="currentColor"/>
<path d="M11.4941 16.7129H12.9285V18.1473H14.3535V13.8535H11.4941V16.7129Z" fill="currentColor"/>
<path d="M10.0684 26.7158H7.20898V28.1408H10.0684V26.7158Z" fill="currentColor"/>
<path d="M7.20918 25.2812H5.78418V26.7156H7.20918V25.2812Z" fill="currentColor"/>
<path d="M4.35938 22.4311V25.2811H5.78438V23.8561H7.20938V22.4311H8.64375V18.1467H7.20938V16.7123H5.78438V15.2873H4.35938V13.8529H5.78438V12.4279H10.0688V11.0029H11.4937V9.56855H12.9281V11.0029H14.3531V9.56855H15.7875V6.71855H14.3531V5.28418H11.4937V3.85918H12.9281V2.4248H10.0688V3.85918H7.20938V5.28418H5.78438V6.71855H4.35938V9.56855H2.925V12.4279H1.5V19.5717H2.925V22.4311H4.35938Z" fill="currentColor"/>
</svg>
