<svg width="100%" height="100%" viewBox="0 0 88 82" fill="none" xmlns="http://www.w3.org/2000/svg">
<g id="Group">
<path id="Vector" d="M50.8437 9.83191H59.9779V14.6305H64.5299V19.4607H69.112V29.0895H73.6641V53.1141H69.112V62.7429H64.5299V67.5731H59.9779V72.3717H50.8437V77.1703H28.0234V82.0005H59.9779V77.1703H69.112V72.3717H73.6641V67.5731H78.2461V62.7429H82.7982V53.1141H87.3503V29.0895H82.7982V19.4607H78.2461V14.6305H73.6641V9.83191H69.112V5.0333H59.9779V0.203125H28.0234V5.0333H50.8437V9.83191Z" fill="currentColor"/>
<path id="Vector_2" d="M18.918 72.3711H28.0221V77.1697H18.918V72.3711Z" fill="currentColor"/>
<path id="Vector_3" d="M18.918 5.0332H28.0221V9.83181H18.918V5.0332Z" fill="currentColor"/>
<path id="Vector_4" d="M14.3359 67.5723H18.918V72.3709H14.3359V67.5723Z" fill="currentColor"/>
<path id="Vector_5" d="M14.3359 9.83203H18.918V14.6306H14.3359V9.83203Z" fill="currentColor"/>
<path id="Vector_6" d="M9.78516 62.7422H14.3372V67.5724H9.78516V62.7422Z" fill="currentColor"/>
<path id="Vector_7" d="M9.78516 14.6309H14.3372V19.461H9.78516V14.6309Z" fill="currentColor"/>
<path id="Vector_8" d="M5.20312 53.1152H9.78516V62.744H5.20312V53.1152Z" fill="currentColor"/>
<path id="Vector_9" d="M5.20312 19.4609H9.78516V29.0897H5.20312V19.4609Z" fill="currentColor"/>
<path id="Vector_10" d="M0.650391 29.0898H5.20247V53.1145H0.650391V29.0898Z" fill="currentColor"/>
<path id="Vector_11" fill-rule="evenodd" clip-rule="evenodd" d="M61.3741 19.1259C62.6478 20.3996 54.1109 31.0016 42.3063 42.8062C30.5017 54.6109 19.8996 63.1478 18.6259 61.8741C17.903 61.1512 20.3403 57.4233 24.7416 52.1764C24.2662 51.5428 23.8324 50.8814 23.4422 50.1973C21.8313 47.3722 20.9627 44.1527 20.9627 40.8437C20.9627 35.8359 22.9521 31.0331 26.4931 27.4921C30.0342 23.951 34.8369 21.9616 39.8448 21.9616C43.1538 21.9616 46.3733 22.8302 49.1984 24.4412C49.8649 24.8213 50.5096 25.2427 51.1284 25.7038C56.6628 21.0121 60.6263 18.378 61.3741 19.1259ZM31.2727 44.8341C33.26 42.7043 35.4161 40.4714 37.6938 38.1937C39.7862 36.1013 41.8408 34.1116 43.8123 32.261C42.5803 31.6914 41.2282 31.3883 39.8448 31.3883C37.3371 31.3883 34.932 32.3845 33.1588 34.1577C31.3856 35.9309 30.3894 38.3359 30.3894 40.8437C30.3894 42.2356 30.6963 43.5959 31.2727 44.8341ZM29.3409 56.533C29.4318 56.5937 29.5232 56.6539 29.6151 56.7131C32.6418 58.6641 36.1892 59.725 39.8461 59.725C44.8539 59.725 49.6565 57.7357 53.1976 54.1946C56.7387 50.6536 58.7283 45.8508 58.7283 40.8429C58.7283 37.1861 57.6673 33.6387 55.7163 30.612C55.6747 30.5477 55.6332 30.4838 55.5908 30.42C54.7747 31.4793 53.8857 32.5854 52.9314 33.7279C54.1082 35.8921 54.7407 38.3349 54.7407 40.8429C54.7407 44.7932 53.1714 48.5816 50.3781 51.3749C47.5849 54.1682 43.7964 55.7374 39.8461 55.7374C37.3143 55.7374 34.849 55.0928 32.6696 53.8947C31.5166 54.846 30.4033 55.728 29.3409 56.533ZM34.0251 52.7595C35.8211 53.6366 37.8094 54.1053 39.8461 54.1053C43.3634 54.1053 46.7367 52.7079 49.2238 50.2208C51.7109 47.7337 53.1082 44.3603 53.1082 40.8429C53.1082 38.8268 52.6493 36.858 51.7889 35.0763C50.8473 36.1728 49.8504 37.2976 48.8048 38.4422C49.0129 39.2186 49.1209 40.0252 49.1209 40.8429C49.1209 43.3027 48.1437 45.6618 46.4043 47.4011C44.665 49.1404 42.3059 50.1177 39.8461 50.1177C39.0149 50.1177 38.1952 50.0062 37.407 49.7913C36.2552 50.8339 35.1248 51.8252 34.0251 52.7595Z" fill="currentColor"/>
</g>
</svg>
