<svg viewBox="0 0 36 36" fill="currentColor" xmlns="http://www.w3.org/2000/svg">
  <path d="M33.4298 26.5726H31.7086V24.8626H29.9986V23.1413H28.2886V19.7213H26.5673V23.1413H24.8629V24.8626H23.1529V26.5726H19.7217V28.2826H23.1529V30.0038H24.8629V31.7138H26.5729V33.4351H28.2942V35.1451H33.4354V33.4351H35.1454V28.2826H33.4354L33.4298 26.5726ZM33.4298 31.7138H31.7086V30.0038H29.9986V28.2826H28.2886V26.5726H29.9986V28.2826H31.7086V30.0038H33.4298V31.7138Z"/>
  <path d="M29.9986 11.1488H28.2886V19.7213H29.9986V11.1488Z"/>
  <path d="M28.2886 7.71753H26.5674V11.1488H28.2886V7.71753Z"/>
  <path d="M26.5674 5.99628H24.8574V7.71753H26.5674V5.99628Z"/>
  <path d="M24.857 4.28625H23.147V5.99625H24.857V4.28625Z"/>
  <path d="M23.1471 2.57629H19.7158V4.28629H23.1471V2.57629Z"/>
  <path d="M19.7161 28.2825H11.1436V30.0037H19.7161V28.2825Z"/>
  <path d="M19.7161 0.855042H11.1436V2.57629H19.7161V0.855042Z"/>
  <path d="M11.1432 26.5726H7.71191V28.2826H11.1432V26.5726Z"/>
  <path d="M11.1432 2.57629H7.71191V4.28629H11.1432V2.57629Z"/>
  <path d="M7.71244 24.8625H6.00244V26.5725H7.71244V24.8625Z"/>
  <path d="M7.71244 4.28625H6.00244V5.99625H7.71244V4.28625Z"/>
  <path d="M6.00152 23.1412H4.28027V24.8625H6.00152V23.1412Z"/>
  <path d="M6.00152 5.99628H4.28027V7.71753H6.00152V5.99628Z"/>
  <path d="M4.28129 19.7213H2.57129V23.1413H4.28129V19.7213Z"/>
  <path d="M4.28129 7.71753H2.57129V11.1488H4.28129V7.71753Z"/>
  <path d="M2.57084 11.1488H0.86084V19.7213H2.57084V11.1488Z"/>
</svg>
