<svg viewBox="0 0 32 32" fill="none" xmlns="http://www.w3.org/2000/svg">
<g clip-path="url(#clip0_791_2675)">
<path d="M31.2346 8.37977H29.7146V9.89977H31.2346V8.37977Z" fill="currentColor"/>
<path d="M29.7146 9.89977H26.6646V11.4298H29.7146V9.89977Z" fill="currentColor"/>
<path d="M29.7146 6.85977H26.6646V8.37977L29.7146 8.37977V6.85977Z" fill="currentColor"/>
<path d="M23.6146 23.6198V25.1398H20.5746V26.6698H17.5246V28.1898H14.4746V26.6698H11.4246V25.1398H8.38465V23.6198H5.33465V22.0898H0.764648V23.6198H2.28465V25.1398H5.33465V26.6698H8.38465V28.1898H11.4246V29.7098H14.4746V31.2398H17.5246V29.7098H20.5746V28.1898H23.6146V26.6698H26.6646V25.1398H29.7146V23.6198H31.2346V22.0898H26.6646V23.6198H23.6146Z" fill="currentColor"/>
<path d="M23.6146 19.0498V20.5698H20.5746V22.0898H17.5246V23.6198H14.4746V22.0898H11.4246V20.5698H8.38465V19.0498H5.33465V17.5198H0.764648V19.0498H2.28465V20.5698H5.33465V22.0898H8.38465V23.6198H11.4246V25.1398H14.4746V26.6698H17.5246V25.1398H20.5746V23.6198H23.6146V22.0898H26.6646V20.5698H29.7146V19.0498H31.2346V17.5198H26.6646V19.0498H23.6146Z" fill="currentColor"/>
<path d="M23.6146 14.4798V15.9998H20.5746V17.5198H17.5246V19.0498H14.4746V17.5198H11.4246V15.9998H8.38465V14.4798H5.33465V12.9498H0.764648V14.4798H2.28465V15.9998H5.33465V17.5198H8.38465V19.0498H11.4246V20.5698H14.4746V22.0898H17.5246V20.5698H20.5746V19.0498H23.6146V17.5198H26.6646V15.9998H29.7146V14.4798H31.2346V12.9498H26.6646V14.4798H23.6146Z" fill="currentColor"/>
<path d="M26.6646 11.4298H23.6146V12.9498H26.6646V11.4298Z" fill="currentColor"/>
<path d="M26.6646 5.32977H23.6146V6.85977L26.6646 6.85977V5.32977Z" fill="currentColor"/>
<path d="M23.6146 12.9498H20.5746V14.4798H23.6146V12.9498Z" fill="currentColor"/>
<path d="M23.6146 3.80977H20.5746V5.32977H23.6146V3.80977Z" fill="currentColor"/>
<path d="M20.5746 14.4798H17.5246V15.9998H20.5746V14.4798Z" fill="currentColor"/>
<path d="M20.5746 2.28977H17.5246V3.80977H20.5746V2.28977Z" fill="currentColor"/>
<path d="M17.5246 15.9998H14.4746V17.5198H17.5246V15.9998Z" fill="currentColor"/>
<path d="M17.5246 0.759766H14.4746V2.28977H17.5246L17.5246 0.759766Z" fill="currentColor"/>
<path d="M14.4746 14.4798H11.4246V15.9998H14.4746V14.4798Z" fill="currentColor"/>
<path d="M14.4746 2.28977H11.4246V3.80977H14.4746V2.28977Z" fill="currentColor"/>
<path d="M11.4246 12.9498H8.38465V14.4798H11.4246V12.9498Z" fill="currentColor"/>
<path d="M11.4246 3.80977H8.38465V5.32977H11.4246V3.80977Z" fill="currentColor"/>
<path d="M8.38465 11.4298H5.33465V12.9498H8.38465V11.4298Z" fill="currentColor"/>
<path d="M8.38465 5.32977H5.33465V6.85977H8.38465V5.32977Z" fill="currentColor"/>
<path d="M5.33465 9.89977H2.28465V11.4298H5.33465V9.89977Z" fill="currentColor"/>
<path d="M5.33465 6.85977L2.28465 6.85977V8.37977H5.33465V6.85977Z" fill="currentColor"/>
<path d="M2.28465 8.37977L0.764648 8.37977V9.89977H2.28465V8.37977Z" fill="currentColor"/>
</g>
<defs>
<clipPath id="clip0_791_2675">
<rect width="32" height="32" fill="white"/>
</clipPath>
</defs>
</svg>
