<svg viewBox="0 0 197 85" fill="none" xmlns="http://www.w3.org/2000/svg">
<g clip-path="url(#clip0_703_3835)">
<path d="M27.7655 60.7638C31.8175 60.7638 35.1429 59.4945 37.3196 57.3781C38.9535 55.7442 39.9213 53.5674 39.9213 51.0288C39.9213 48.7314 39.0742 46.6753 37.5033 45.1017C35.9297 43.5281 33.6926 42.3794 30.8497 41.8366L26.1919 40.9292C24.2564 40.5673 23.1681 39.5995 23.1681 38.2672C23.1681 36.5126 24.8623 35.3036 27.5819 35.3036C29.2761 35.3036 30.7263 35.8492 31.6941 36.8142C32.3 37.4804 32.7221 38.3247 32.8428 39.2925L39.5567 37.7819C39.3757 35.8464 38.4683 34.1522 37.0784 32.7623C34.9016 30.5855 31.5159 29.1929 27.5243 29.1929C23.8342 29.1929 20.7501 30.4018 18.6336 32.3373C16.8188 34.0316 15.7907 36.3289 15.7907 38.8676C15.7907 41.1046 16.5172 42.9798 17.9675 44.43C19.4177 45.8803 21.5369 46.9687 24.3167 47.6348L28.9142 48.7232C31.2116 49.2688 32.2396 50.1131 32.2396 51.6264C32.2396 53.5016 30.5454 54.59 27.7655 54.59C25.7697 54.59 24.1358 53.9238 23.1077 52.8354C22.3812 52.1089 21.9591 51.1412 21.8987 50.0528L15.0039 51.5716C15.1848 53.6277 16.1526 55.4426 17.6056 56.8928C19.9029 59.3108 23.593 60.7638 27.7655 60.7638ZM78.8066 60.7638C83.2807 60.7638 86.7295 59.1299 89.0871 56.8325C90.9623 55.0177 92.111 52.9012 92.7169 50.7245L85.6411 48.3668C85.3395 49.4552 84.7337 50.6039 83.7659 51.5113C82.6172 52.5997 81.0436 53.3865 78.8066 53.3865C76.7504 53.3865 74.8149 52.5997 73.425 51.2097C72.0351 49.7595 71.188 47.6403 71.188 44.9811C71.188 42.3218 72.0351 40.2027 73.425 38.7524C74.8149 37.3625 76.6901 36.636 78.7462 36.636C80.923 36.636 82.4363 37.3625 83.5247 38.4509C84.4321 39.3583 84.9749 40.507 85.3395 41.6557L92.5359 39.2377C91.9904 37.1212 90.8417 35.0048 89.1502 33.2503C86.7322 30.8926 83.2231 29.1983 78.568 29.1983C74.2749 29.1983 70.4039 30.8323 67.6213 33.6121C64.8387 36.4551 63.1472 40.3863 63.1472 44.9811C63.1472 49.5758 64.9017 53.5071 67.7447 56.35C70.5273 59.1326 74.4586 60.7638 78.812 60.7638H78.8066ZM54.3744 60.7638C57.5189 60.7638 59.756 59.7961 60.7237 58.949V52.4187C59.9972 52.9643 58.547 53.6277 56.6718 53.6277C55.3422 53.6277 54.3744 53.3262 53.6479 52.66C53.0421 52.0541 52.7405 51.0261 52.7405 49.6361V21.9389H44.7573V30.103H60.7237V37.845H44.7573V51.5744C44.7573 54.357 45.6044 56.594 47.115 58.1649C48.8092 59.8591 51.2875 60.7666 54.3717 60.7666L54.3744 60.7638Z" fill="currentColor"/>
<path d="M115.649 30.1251V45.3075C115.649 48.5561 113.837 50.6259 109.985 50.6259H103.688V47.5198H109.87C111.307 47.5198 112.143 46.7138 112.143 45.047V42.8319C111.079 44.1259 109.528 44.8441 107.543 44.8441C103.518 44.8441 100.612 41.7106 100.612 37.253C100.612 32.7953 103.516 29.7194 107.543 29.7194C109.497 29.7194 111.079 30.4102 112.143 31.7042V30.1224H115.652L115.649 30.1251ZM112.14 39.0952V35.4436C111.392 33.9193 110.07 32.9132 108.143 32.9132C105.813 32.9132 104.261 34.5526 104.261 37.2557C104.261 39.9588 105.813 41.6558 108.143 41.6558C110.07 41.6558 111.392 40.5921 112.14 39.098V39.0952Z" fill="currentColor"/>
<path d="M128.82 30.125V33.2886H127.007C125.11 33.2886 123.901 34.0946 123.271 35.0432V44.8769H119.677V30.125H123.271V32.2825C124.219 30.9885 125.571 30.125 127.353 30.125H128.82Z" fill="currentColor"/>
<path d="M130.371 37.4861C130.371 32.9709 133.535 29.7223 138.193 29.7223C142.85 29.7223 146.014 32.9709 146.014 37.4861C146.014 42.0014 142.881 45.3076 138.193 45.3076C133.505 45.3076 130.371 42.0288 130.371 37.4861ZM142.362 37.4861C142.362 34.7556 140.781 32.9435 138.193 32.9435C135.605 32.9435 134.023 34.7556 134.023 37.4861C134.023 40.2167 135.574 42.0864 138.193 42.0864C140.811 42.0864 142.362 40.2742 142.362 37.4861Z" fill="currentColor"/>
<path d="M163.351 30.125V44.8769H159.757V43.0949C158.578 44.5041 156.854 45.3101 154.784 45.3101C151.448 45.3101 149.436 43.01 149.436 39.5584V30.125H153.03V38.6921C153.03 40.6194 153.921 42.0285 155.875 42.0285C157.4 42.0285 159.097 40.9922 159.757 39.4981V30.125H163.351Z" fill="currentColor"/>
<path d="M182.645 37.4861C182.645 42.059 179.742 45.3076 175.715 45.3076C173.73 45.3076 172.178 44.5592 171.115 43.2378V50.6288H167.605V30.1253H171.115V31.7647C172.178 30.4433 173.76 29.7223 175.715 29.7223C179.739 29.7223 182.645 32.9133 182.645 37.4861ZM178.994 37.4861C178.994 34.6981 177.442 33.0011 175.112 33.0011C173.184 33.0011 171.863 34.0374 171.115 35.6165V39.3833C171.863 40.9075 173.184 42.0288 175.112 42.0288C177.442 42.0288 178.994 40.3044 178.994 37.4861Z" fill="currentColor"/>
</g>
<defs>
<clipPath id="clip0_703_3835">
<rect width="176.239" height="41.1223" fill="white" transform="translate(10.5 21.9388)"/>
</clipPath>
</defs>
</svg>
