<svg xmlns="http://www.w3.org/2000/svg" viewBox="0 0 28 28"><g fill="currentColor" transform="translate(0 .896)"><polygon points="1.33 6.667 26.67 6.667 26.67 24 28 24 28 1.339 26.67 1.339 26.67 5.337 1.33 5.337 1.33 1.339 0 1.339 0 24 1.33 24"/><polygon points="1.331 24.001 26.671 24.001 26.671 25.34 1.331 25.34"/><path d="M3.99816876,9.33625331 L3.99816876,21.3409394 L24.000644,21.3409394 L24.000644,9.33625331 L3.99816876,9.33625331 Z M11.9957034,16.0035329 L10.6656711,16.0035329 L10.6656711,17.3335016 L9.33563884,17.3335016 L9.33563884,18.6722839 L7.99692018,18.6722839 L7.99692018,17.3335016 L9.33563884,17.3335016 L9.33563884,16.0035329 L10.6656711,16.0035329 L10.6656711,14.6735961 L9.33563884,14.6735961 L9.33563884,13.3348456 L7.99692018,13.3348456 L7.99692018,12.0049406 L9.33563884,12.0049406 L9.33563884,13.3348456 L10.6656711,13.3348456 L10.6656711,14.6735961 L11.9957034,14.6735961 L11.9957034,16.0035329 Z M20.0018926,16.0035329 L14.6644225,16.0035329 L14.6644225,14.6735961 L20.0018926,14.6735961 L20.0018926,16.0035329 Z"/><polygon points="7.996 2.669 9.335 2.669 9.335 4.008 7.996 4.008"/><polygon points="5.338 2.669 6.668 2.669 6.668 4.008 5.338 4.008"/><polygon points="2.668 2.669 3.998 2.669 3.998 4.008 2.668 4.008"/><polygon points="1.331 0 26.671 0 26.671 1.339 1.331 1.339"/></g></svg>