<svg width="100%" height="100%" viewBox="0 0 88 88" fill="none" xmlns="http://www.w3.org/2000/svg">
<g id="Group">
<path id="Vector" d="M87.3639 14.3509V0.634766H73.6777V5.2168H14.3509V0.634766H0.634766V14.3509H5.2168V73.6777H0.634766V87.3639H14.3509V82.7819H73.6777V87.3639H87.3639V73.6777H82.7819V14.3509H87.3639ZM78.2298 73.6777H73.6777V78.2298H14.3509V73.6777H9.76888V14.3509H14.3509V9.76888H73.6777V14.3509H78.2298V73.6777Z" fill="currentColor"/>
<path id="Vector_2" d="M59.9609 23.4551H64.543V32.5892H59.9609V23.4551Z" fill="currentColor"/>
<path id="Vector_3" d="M28.0371 18.9023V23.4544H41.7233V64.543H32.5892V69.0951H55.4095V64.543H46.2754V23.4544H59.9616V18.9023H28.0371Z" fill="currentColor"/>
<path id="Vector_4" d="M23.4551 23.4551H28.0371V32.5892H23.4551V23.4551Z" fill="currentColor"/>
</g>
</svg>
