<svg viewBox="0 0 88 88" fill="none" xmlns="http://www.w3.org/2000/svg">
  <g>
    <path d="M41.7383 52.2682H37.1862V47.7161H32.6042V43.1341H28.0521V47.7161H23.5V52.2682H28.0521V56.8203H32.6042V61.4023H37.1862V65.9544H41.7383V61.4023H46.3203V56.8203H50.8724V52.2682H55.4245V47.7161H60.0065V43.1341H64.5586V38.582H60.0065V34H55.4245V38.582H50.8724V43.1341H46.3203V47.7161H41.7383V52.2682Z" fill="currentColor"/>
    <path d="M80.6272 18.6815H7.3475V7H3.5V81H7.3475V22.5668H80.6272V81H84.5V7H80.6272V18.6815Z" fill="currentColor"/>
    <path d="M7.5 81H80.5V85H7.5V81Z" fill="currentColor"/>
    <path d="M26.5 10H30.5V14H26.5V10Z" fill="currentColor"/>
    <path d="M18.5 10H22.5V14H18.5V10Z" fill="currentColor"/>
    <path d="M10.5 10H14.5V14H10.5V10Z" fill="currentColor"/>
    <path d="M7.5 3H80.5V7H7.5V3Z" fill="currentColor"/>
  </g>
</svg>
