<svg width="100%" height="100%" viewBox="0 0 96 96" fill="none" xmlns="http://www.w3.org/2000/svg">
<g id="Group">
<path id="Vector" d="M91.3359 36.5898H95.918V59.4102H91.3359V36.5898Z" fill="currentColor"/>
<path id="Vector_2" d="M86.7832 59.4102H91.3353V68.5443H86.7832V59.4102Z" fill="currentColor"/>
<path id="Vector_3" d="M86.7832 27.457H91.3353V36.5911H86.7832V27.457Z" fill="currentColor"/>
<path id="Vector_4" d="M82.2305 68.5449H86.7825V77.6491H82.2305V68.5449Z" fill="currentColor"/>
<path id="Vector_5" d="M82.2305 18.3223H86.7825V27.4564H82.2305V18.3223Z" fill="currentColor"/>
<path id="Vector_6" d="M91.3359 13.7708V9.21875H73.0977V27.457H77.6497V18.3229H82.2318V13.7708H91.3359Z" fill="currentColor"/>
<path id="Vector_7" d="M77.6484 77.6484H82.2305V82.2305H77.6484V77.6484Z" fill="currentColor"/>
<path id="Vector_8" d="M68.5156 82.2305H77.6497V86.7825H68.5156V82.2305Z" fill="currentColor"/>
<path id="Vector_9" d="M63.9629 59.4102H68.515V63.9622H63.9629V59.4102Z" fill="currentColor"/>
<path id="Vector_10" d="M59.4102 86.7832H68.5143V91.3652H59.4102V86.7832Z" fill="currentColor"/>
<path id="Vector_11" d="M59.4102 59.4102H45.724V63.9622H41.1419V68.5443H36.5898V73.0964H59.4102V68.5443H63.9622V63.9622H59.4102V59.4102Z" fill="currentColor"/>
<path id="Vector_12" d="M36.5898 91.3652H59.4102V95.9173H36.5898V91.3652Z" fill="currentColor"/>
<path id="Vector_13" d="M59.4102 27.4564V22.9043H36.5898V27.4564H50.276V32.0384H45.724V36.5905H50.276V41.1426H59.4102V50.2767H63.9622V45.7246H68.5143V59.4108H73.0964V36.5905H68.5143V32.0384H63.9622V27.4564H59.4102Z" fill="currentColor"/>
<path id="Vector_14" d="M36.5898 0.0839844H59.4102V4.63607H36.5898V0.0839844Z" fill="currentColor"/>
<path id="Vector_15" d="M41.1426 54.8294V50.2773H45.7246V41.1432H41.1426V32.0391H36.5905V27.457H32.0085V32.0391H27.4564V36.5911H22.9043V59.4115H27.4564V63.9635H32.0085V68.5456H36.5905V54.8294H41.1426Z" fill="currentColor"/>
<path id="Vector_16" d="M27.457 4.63672H36.5911V9.21875H27.457V4.63672Z" fill="currentColor"/>
<path id="Vector_17" d="M18.3223 9.21875H27.4564V13.7708H18.3223V9.21875Z" fill="currentColor"/>
<path id="Vector_18" d="M4.63672 82.2311V86.7832H22.9049V68.5449H18.3229V77.6491H13.7708V82.2311H4.63672Z" fill="currentColor"/>
<path id="Vector_19" d="M13.7695 13.7695H18.3216V18.3216H13.7695V13.7695Z" fill="currentColor"/>
<path id="Vector_20" d="M9.21875 68.5449H13.7708V77.6491H9.21875V68.5449Z" fill="currentColor"/>
<path id="Vector_21" d="M9.21875 18.3223H13.7708V27.4564H9.21875V18.3223Z" fill="currentColor"/>
<path id="Vector_22" d="M4.63672 59.4102H9.21875V68.5443H4.63672V59.4102Z" fill="currentColor"/>
<path id="Vector_23" d="M4.63672 27.457H9.21875V36.5911H4.63672V27.457Z" fill="currentColor"/>
<path id="Vector_24" d="M0.0839844 36.5898H4.63607V59.4102H0.0839844V36.5898Z" fill="currentColor"/>
</g>
</svg>
