<svg width="100%" height="100%" viewBox="0 0 77 76" fill="none" xmlns="http://www.w3.org/2000/svg">
<g id="Interface-Essential-Question-Help-Square--Streamline-Pixel">
<path id="Vector" d="M46.7402 53.8887H53.3923V57.0467H46.7402V53.8887Z" fill="currentColor"/>
<path id="Vector_2" d="M46.7402 47.5527H50.0663V50.7107H46.7402V47.5527Z" fill="currentColor"/>
<path id="Vector_3" d="M43.3926 34.8789H46.7405V41.2157H43.3926V34.8789Z" fill="currentColor"/>
<path id="Vector_4" d="M30.0664 50.7109H46.7403V53.8897H30.0664V50.7109Z" fill="currentColor"/>
<path id="Vector_5" d="M33.3926 44.373H43.3925V47.5518H33.3926V44.373Z" fill="currentColor"/>
<path id="Vector_6" d="M30.0664 34.8789H33.3924V41.2157H30.0664V34.8789Z" fill="currentColor"/>
<path id="Vector_7" d="M23.3926 53.8887H30.0665V57.0467H23.3926V53.8887Z" fill="currentColor"/>
<path id="Vector_8" d="M26.7188 47.5527H30.0667V50.7107H26.7188V47.5527Z" fill="currentColor"/>
<path id="Vector_9" d="M26.7186 31.7205H30.0665V28.5625H46.7404V31.7205H50.0664V47.5521H53.3924V25.3837H50.0664V22.2257H46.7404V19.0469H30.0665V22.2257H26.7186V25.3837H23.3926V47.5521H26.7186V31.7205Z" fill="currentColor"/>
<path id="Vector_10" d="M73.084 7.02148H76.7257V69.0736H73.084V7.02148Z" fill="currentColor"/>
<path id="Vector_11" d="M69.418 69.0723H73.0836V72.7379H69.418V69.0723Z" fill="currentColor"/>
<path id="Vector_12" d="M69.418 3.35547H73.0836V7.02109H69.418V3.35547Z" fill="currentColor"/>
<path id="Vector_13" d="M7.36719 72.7383H69.4193V76.38H7.36719V72.7383Z" fill="currentColor"/>
<path id="Vector_14" d="M65.776 58.123H62.1344V61.7647H58.4688V65.4303H62.1344V69.072H65.776V65.4303H69.4177V61.7647H65.776V58.123Z" fill="currentColor"/>
<path id="Vector_15" d="M65.776 7.02148H62.1344V10.6632H58.4688V14.3048H62.1344V17.9704H65.776V14.3048H69.4177V10.6632H65.776V7.02148Z" fill="currentColor"/>
<path id="Vector_16" d="M14.6745 58.123H11.0089V61.7647H7.36719V65.4303H11.0089V69.072H14.6745V65.4303H18.3161V61.7647H14.6745V58.123Z" fill="currentColor"/>
<path id="Vector_17" d="M14.6745 7.02148H11.0089V10.6632H7.36719V14.3048H11.0089V17.9704H14.6745V14.3048H18.3161V10.6632H14.6745V7.02148Z" fill="currentColor"/>
<path id="Vector_18" d="M7.36719 -0.287109H69.4193V3.35456H7.36719V-0.287109Z" fill="currentColor"/>
<path id="Vector_19" d="M3.72461 69.0723H7.36628V72.7379H3.72461V69.0723Z" fill="currentColor"/>
<path id="Vector_20" d="M3.72461 3.35547H7.36628V7.02109H3.72461V3.35547Z" fill="currentColor"/>
<path id="Vector_21" d="M0.0585938 7.02148H3.72422V69.0736H0.0585938V7.02148Z" fill="currentColor"/>
</g>
</svg>
