<svg width="100%" height="100%" viewBox="0 0 88 88" fill="none" xmlns="http://www.w3.org/2000/svg">
<g id="Group">
<path id="Vector" d="M84 9H88V79H84V9Z" fill="currentColor"/>
<path id="Vector_2" d="M79 79H84V84H79V79Z" fill="currentColor"/>
<path id="Vector_3" d="M79 4H84V9H79V4Z" fill="currentColor"/>
<path id="Vector_4" d="M9 84H79V88H9V84Z" fill="currentColor"/>
<path id="Vector_5" d="M68 34.7282H71.5115V53.2962H68V57H75V31H68V34.7282Z" fill="currentColor"/>
<path id="Vector_6" d="M64 49H68V54H64V49Z" fill="currentColor"/>
<path id="Vector_7" d="M64 34H68V39H64V34Z" fill="currentColor"/>
<path id="Vector_8" d="M60.5115 45.7856V42.2378H64V38.6667H60.5115V28H57V60H60.5115V49.3333H64V45.7856H60.5115Z" fill="currentColor"/>
<path id="Vector_9" d="M16 60H57V64H16V60Z" fill="currentColor"/>
<path id="Vector_10" d="M20 39V57H49V39H20ZM38.1131 53.4094H34.5V49.7953H38.1131V53.4094ZM45.3631 53.4094H41.75V46.2047H27.25V53.4094H23.6369V42.6142H45.3631V53.4094Z" fill="currentColor"/>
<path id="Vector_11" d="M28 31H31V34H28V31Z" fill="currentColor"/>
<path id="Vector_12" d="M20 31H24V34H20V31Z" fill="currentColor"/>
<path id="Vector_13" d="M16 24H57V28H16V24Z" fill="currentColor"/>
<path id="Vector_14" d="M9 0H79V4H9V0Z" fill="currentColor"/>
<path id="Vector_15" d="M13 28H16V60H13V28Z" fill="currentColor"/>
<path id="Vector_16" d="M4 79H9V84H4V79Z" fill="currentColor"/>
<path id="Vector_17" d="M4 4H9V9H4V4Z" fill="currentColor"/>
<path id="Vector_18" d="M0 9H4V79H0V9Z" fill="currentColor"/>
</g>
</svg>
