<svg width="100%" height="100%" viewBox="0 0 87 88" fill="none" xmlns="http://www.w3.org/2000/svg">
<g id="Group">
<path id="Vector" d="M82.1309 41.7383H86.6829V46.2904H82.1309V41.7383Z" fill="currentColor"/>
<path id="Vector_2" d="M77.5488 46.291H82.1309V50.8431H77.5488V46.291Z" fill="currentColor"/>
<path id="Vector_3" d="M77.5488 37.1562H82.1309V41.7383H77.5488V37.1562Z" fill="currentColor"/>
<path id="Vector_4" d="M72.998 50.8438H77.5501V55.4258H72.998V50.8438Z" fill="currentColor"/>
<path id="Vector_5" d="M72.998 32.6055H77.5501V37.1576H72.998V32.6055Z" fill="currentColor"/>
<path id="Vector_6" d="M68.4447 69.112H54.7285V73.6641H72.9967V55.4258H68.4447V69.112Z" fill="currentColor"/>
<path id="Vector_7" d="M41.043 46.2917H36.4909V41.7396H31.9089V37.1576H27.3568V41.7396H22.8047V46.2917H27.3568V50.8437H31.9089V55.4258H36.4909V59.9779H41.043V55.4258H45.625V50.8437H50.1771V46.2917H54.7292V41.7396H59.3112V37.1576H63.8633V32.6055H59.3112V28.0234H54.7292V32.6055H50.1771V37.1576H45.625V41.7396H41.043V46.2917Z" fill="currentColor"/>
<path id="Vector_8" d="M68.4447 18.918V32.6042H72.9967V14.3359H54.7285V18.918H68.4447Z" fill="currentColor"/>
<path id="Vector_9" d="M50.1777 73.6641H54.7298V78.2461H50.1777V73.6641Z" fill="currentColor"/>
<path id="Vector_10" d="M50.1777 9.78516H54.7298V14.3372H50.1777V9.78516Z" fill="currentColor"/>
<path id="Vector_11" d="M45.625 78.2461H50.1771V82.7982H45.625V78.2461Z" fill="currentColor"/>
<path id="Vector_12" d="M45.625 5.23242H50.1771V9.7845H45.625V5.23242Z" fill="currentColor"/>
<path id="Vector_13" d="M41.043 82.7969H45.625V87.349H41.043V82.7969Z" fill="currentColor"/>
<path id="Vector_14" d="M41.043 0.650391H45.625V5.23242H41.043V0.650391Z" fill="currentColor"/>
<path id="Vector_15" d="M36.4902 78.2461H41.0423V82.7982H36.4902V78.2461Z" fill="currentColor"/>
<path id="Vector_16" d="M36.4902 5.23242H41.0423V9.7845H36.4902V5.23242Z" fill="currentColor"/>
<path id="Vector_17" d="M31.9082 73.6641H36.4902V78.2461H31.9082V73.6641Z" fill="currentColor"/>
<path id="Vector_18" d="M31.9082 9.78516H36.4902V14.3372H31.9082V9.78516Z" fill="currentColor"/>
<path id="Vector_19" d="M18.222 69.112V55.4258H13.6699V73.6641H31.9082V69.112H18.222Z" fill="currentColor"/>
<path id="Vector_20" d="M18.222 18.918H31.9082V14.3359H13.6699V32.6042H18.222V18.918Z" fill="currentColor"/>
<path id="Vector_21" d="M9.11914 50.8438H13.6712V55.4258H9.11914V50.8438Z" fill="currentColor"/>
<path id="Vector_22" d="M9.11914 32.6055H13.6712V37.1576H9.11914V32.6055Z" fill="currentColor"/>
<path id="Vector_23" d="M4.53711 46.291H9.11914V50.8431H4.53711V46.291Z" fill="currentColor"/>
<path id="Vector_24" d="M4.53711 37.1562H9.11914V41.7383H4.53711V37.1562Z" fill="currentColor"/>
<path id="Vector_25" d="M-0.015625 41.7383H4.53646V46.2904H-0.015625V41.7383Z" fill="currentColor"/>
</g>
</svg>
