<svg width="100%" height="100%" viewBox="0 0 69 76" fill="none" xmlns="http://www.w3.org/2000/svg">
<g id="Computer-Old-Electronics--Streamline-Pixel">
<path id="Vector" d="M69.1797 54.4831H58.2307V50.8174H61.8724V47.1758H7.1276V50.8174H10.7813V54.4831H-0.179688V76.381H69.1797V54.4831ZM14.4109 50.8174H54.5651V54.4831H14.4109V50.8174ZM65.538 72.7393H3.46198V58.1247H65.538V72.7393Z" fill="currentColor"/>
<path id="Vector_2" d="M61.873 3.35547H65.5387V47.1753H61.873V3.35547Z" fill="currentColor"/>
<path id="Vector_3" d="M39.9746 61.7656H58.2309V65.4313H39.9746V61.7656Z" fill="currentColor"/>
<path id="Vector_4" d="M39.9746 25.2773H43.6163V28.919H39.9746V25.2773Z" fill="currentColor"/>
<path id="Vector_5" d="M39.9746 17.9707H43.6163V21.6124H39.9746V17.9707Z" fill="currentColor"/>
<path id="Vector_6" d="M29.0254 28.918H39.9743V32.5596H29.0254V28.918Z" fill="currentColor"/>
<path id="Vector_7" d="M25.3594 25.2773H29.025V28.919H25.3594V25.2773Z" fill="currentColor"/>
<path id="Vector_8" d="M25.3594 17.9707H29.025V21.6124H25.3594V17.9707Z" fill="currentColor"/>
<path id="Vector_9" d="M10.7812 43.534H58.2427V7.02148H10.7812V43.534ZM14.4109 10.6632H54.5651V39.8684H14.4109V10.6632Z" fill="currentColor"/>
<path id="Vector_10" d="M10.7695 61.7656H18.0768V69.0729H10.7695V61.7656Z" fill="currentColor"/>
<path id="Vector_11" d="M7.12695 -0.287109H61.8717V3.35456H7.12695V-0.287109Z" fill="currentColor"/>
<path id="Vector_12" d="M3.46289 3.35547H7.12852V47.1753H3.46289V3.35547Z" fill="currentColor"/>
</g>
</svg>
