<svg width="17" height="17" viewBox="0 0 17 17" fill="none" xmlns="http://www.w3.org/2000/svg">
<path fill-rule="evenodd" clip-rule="evenodd" d="M13.8936 6.00977C12.2367 6.00977 10.8936 4.66662 10.8936 3.00977C10.8936 1.35291 12.2367 0.00976603 13.8936 0.00976589C15.5504 0.00976574 16.8936 1.35291 16.8936 3.00977C16.8936 4.66662 15.5504 6.00977 13.8936 6.00977ZM3.89356 6.00977C2.2367 6.00977 0.893555 4.66662 0.893555 3.00977C0.893555 1.35291 2.2367 0.00976691 3.89355 0.00976676C5.55041 0.00976662 6.89355 1.35291 6.89355 3.00977C6.89356 4.66662 5.55041 6.00977 3.89356 6.00977ZM10.8936 13.0098C10.8936 14.6666 12.2367 16.0098 13.8936 16.0098C15.5504 16.0098 16.8936 14.6666 16.8936 13.0098C16.8936 11.3529 15.5504 10.0098 13.8936 10.0098C12.2367 10.0098 10.8936 11.3529 10.8936 13.0098ZM3.89356 16.0098C2.2367 16.0098 0.893556 14.6666 0.893556 13.0098C0.893556 11.3529 2.2367 10.0098 3.89356 10.0098C5.55041 10.0098 6.89356 11.3529 6.89356 13.0098C6.89356 14.6666 5.55041 16.0098 3.89356 16.0098Z" fill="url(#paint0_linear_1059_2013)"/>
<defs>
<linearGradient id="paint0_linear_1059_2013" x1="18.8936" y1="-2.99024" x2="21.1616" y2="13.2489" gradientUnits="userSpaceOnUse">
<stop stop-color="#7A43FF"/>
<stop offset="1" stop-color="#00FFD1"/>
</linearGradient>
</defs>
</svg>
